<svg width="399" height="495" viewBox="0 0 399 495" fill="none" xmlns="http://www.w3.org/2000/svg">
<path d="M126.66 135H129.9V146.36H136.92V149H126.66V135ZM138.51 138.24H141.63V149H138.51V138.24ZM140.07 136.74C139.497 136.74 139.03 136.573 138.67 136.24C138.31 135.907 138.13 135.493 138.13 135C138.13 134.507 138.31 134.093 138.67 133.76C139.03 133.427 139.497 133.26 140.07 133.26C140.644 133.26 141.11 133.42 141.47 133.74C141.83 134.06 142.01 134.46 142.01 134.94C142.01 135.46 141.83 135.893 141.47 136.24C141.11 136.573 140.644 136.74 140.07 136.74ZM149.146 144.78L147.646 146.26V149H144.526V134.16H147.646V142.56L152.206 138.24H155.926L151.446 142.8L156.326 149H152.546L149.146 144.78ZM167.8 143.66C167.8 143.7 167.78 143.98 167.74 144.5H159.6C159.747 145.167 160.094 145.693 160.64 146.08C161.187 146.467 161.867 146.66 162.68 146.66C163.24 146.66 163.734 146.58 164.16 146.42C164.6 146.247 165.007 145.98 165.38 145.62L167.04 147.42C166.027 148.58 164.547 149.16 162.6 149.16C161.387 149.16 160.314 148.927 159.38 148.46C158.447 147.98 157.727 147.32 157.22 146.48C156.714 145.64 156.46 144.687 156.46 143.62C156.46 142.567 156.707 141.62 157.2 140.78C157.707 139.927 158.394 139.267 159.26 138.8C160.14 138.32 161.12 138.08 162.2 138.08C163.254 138.08 164.207 138.307 165.06 138.76C165.914 139.213 166.58 139.867 167.06 140.72C167.554 141.56 167.8 142.54 167.8 143.66ZM162.22 140.44C161.514 140.44 160.92 140.64 160.44 141.04C159.96 141.44 159.667 141.987 159.56 142.68H164.86C164.754 142 164.46 141.46 163.98 141.06C163.5 140.647 162.914 140.44 162.22 140.44Z" fill="white"/>
<path d="M281.66 135H284.9V146.36H291.92V149H281.66V135ZM293.51 138.24H296.63V149H293.51V138.24ZM295.07 136.74C294.497 136.74 294.03 136.573 293.67 136.24C293.31 135.907 293.13 135.493 293.13 135C293.13 134.507 293.31 134.093 293.67 133.76C294.03 133.427 294.497 133.26 295.07 133.26C295.644 133.26 296.11 133.42 296.47 133.74C296.83 134.06 297.01 134.46 297.01 134.94C297.01 135.46 296.83 135.893 296.47 136.24C296.11 136.573 295.644 136.74 295.07 136.74ZM304.146 144.78L302.646 146.26V149H299.526V134.16H302.646V142.56L307.206 138.24H310.926L306.446 142.8L311.326 149H307.546L304.146 144.78ZM322.8 143.66C322.8 143.7 322.78 143.98 322.74 144.5H314.6C314.747 145.167 315.094 145.693 315.64 146.08C316.187 146.467 316.867 146.66 317.68 146.66C318.24 146.66 318.734 146.58 319.16 146.42C319.6 146.247 320.007 145.98 320.38 145.62L322.04 147.42C321.027 148.58 319.547 149.16 317.6 149.16C316.387 149.16 315.314 148.927 314.38 148.46C313.447 147.98 312.727 147.32 312.22 146.48C311.714 145.64 311.46 144.687 311.46 143.62C311.46 142.567 311.707 141.62 312.2 140.78C312.707 139.927 313.394 139.267 314.26 138.8C315.14 138.32 316.12 138.08 317.2 138.08C318.254 138.08 319.207 138.307 320.06 138.76C320.914 139.213 321.58 139.867 322.06 140.72C322.554 141.56 322.8 142.54 322.8 143.66ZM317.22 140.44C316.514 140.44 315.92 140.64 315.44 141.04C314.96 141.44 314.667 141.987 314.56 142.68H319.86C319.754 142 319.46 141.46 318.98 141.06C318.5 140.647 317.914 140.44 317.22 140.44Z" fill="white"/>
<path d="M126.66 135H129.9V146.36H136.92V149H126.66V135ZM138.51 138.24H141.63V149H138.51V138.24ZM140.07 136.74C139.497 136.74 139.03 136.573 138.67 136.24C138.31 135.907 138.13 135.493 138.13 135C138.13 134.507 138.31 134.093 138.67 133.76C139.03 133.427 139.497 133.26 140.07 133.26C140.644 133.26 141.11 133.42 141.47 133.74C141.83 134.06 142.01 134.46 142.01 134.94C142.01 135.46 141.83 135.893 141.47 136.24C141.11 136.573 140.644 136.74 140.07 136.74ZM149.146 144.78L147.646 146.26V149H144.526V134.16H147.646V142.56L152.206 138.24H155.926L151.446 142.8L156.326 149H152.546L149.146 144.78ZM167.8 143.66C167.8 143.7 167.78 143.98 167.74 144.5H159.6C159.747 145.167 160.094 145.693 160.64 146.08C161.187 146.467 161.867 146.66 162.68 146.66C163.24 146.66 163.734 146.58 164.16 146.42C164.6 146.247 165.007 145.98 165.38 145.62L167.04 147.42C166.027 148.58 164.547 149.16 162.6 149.16C161.387 149.16 160.314 148.927 159.38 148.46C158.447 147.98 157.727 147.32 157.22 146.48C156.714 145.64 156.46 144.687 156.46 143.62C156.46 142.567 156.707 141.62 157.2 140.78C157.707 139.927 158.394 139.267 159.26 138.8C160.14 138.32 161.12 138.08 162.2 138.08C163.254 138.08 164.207 138.307 165.06 138.76C165.914 139.213 166.58 139.867 167.06 140.72C167.554 141.56 167.8 142.54 167.8 143.66ZM162.22 140.44C161.514 140.44 160.92 140.64 160.44 141.04C159.96 141.44 159.667 141.987 159.56 142.68H164.86C164.754 142 164.46 141.46 163.98 141.06C163.5 140.647 162.914 140.44 162.22 140.44Z" fill="white"/>
<path d="M110.66 331H113.9V342.36H120.92V345H110.66V331ZM122.51 334.24H125.63V345H122.51V334.24ZM124.07 332.74C123.497 332.74 123.03 332.573 122.67 332.24C122.31 331.907 122.13 331.493 122.13 331C122.13 330.507 122.31 330.093 122.67 329.76C123.03 329.427 123.497 329.26 124.07 329.26C124.644 329.26 125.11 329.42 125.47 329.74C125.83 330.06 126.01 330.46 126.01 330.94C126.01 331.46 125.83 331.893 125.47 332.24C125.11 332.573 124.644 332.74 124.07 332.74ZM133.146 340.78L131.646 342.26V345H128.526V330.16H131.646V338.56L136.206 334.24H139.926L135.446 338.8L140.326 345H136.546L133.146 340.78ZM151.8 339.66C151.8 339.7 151.78 339.98 151.74 340.5H143.6C143.747 341.167 144.094 341.693 144.64 342.08C145.187 342.467 145.867 342.66 146.68 342.66C147.24 342.66 147.734 342.58 148.16 342.42C148.6 342.247 149.007 341.98 149.38 341.62L151.04 343.42C150.027 344.58 148.547 345.16 146.6 345.16C145.387 345.16 144.314 344.927 143.38 344.46C142.447 343.98 141.727 343.32 141.22 342.48C140.714 341.64 140.46 340.687 140.46 339.62C140.46 338.567 140.707 337.62 141.2 336.78C141.707 335.927 142.394 335.267 143.26 334.8C144.14 334.32 145.12 334.08 146.2 334.08C147.254 334.08 148.207 334.307 149.06 334.76C149.914 335.213 150.58 335.867 151.06 336.72C151.554 337.56 151.8 338.54 151.8 339.66ZM146.22 336.44C145.514 336.44 144.92 336.64 144.44 337.04C143.96 337.44 143.667 337.987 143.56 338.68H148.86C148.754 338 148.46 337.46 147.98 337.06C147.5 336.647 146.914 336.44 146.22 336.44Z" fill="white"/>
<path d="M259.58 415L256.88 411.1H256.72H253.9V415H250.66V401H256.72C257.96 401 259.033 401.207 259.94 401.62C260.86 402.033 261.567 402.62 262.06 403.38C262.553 404.14 262.8 405.04 262.8 406.08C262.8 407.12 262.547 408.02 262.04 408.78C261.547 409.527 260.84 410.1 259.92 410.5L263.06 415H259.58ZM259.52 406.08C259.52 405.293 259.267 404.693 258.76 404.28C258.253 403.853 257.513 403.64 256.54 403.64H253.9V408.52H256.54C257.513 408.52 258.253 408.307 258.76 407.88C259.267 407.453 259.52 406.853 259.52 406.08ZM275.687 409.66C275.687 409.7 275.667 409.98 275.627 410.5H267.487C267.634 411.167 267.98 411.693 268.527 412.08C269.074 412.467 269.754 412.66 270.567 412.66C271.127 412.66 271.62 412.58 272.047 412.42C272.487 412.247 272.894 411.98 273.267 411.62L274.927 413.42C273.914 414.58 272.434 415.16 270.487 415.16C269.274 415.16 268.2 414.927 267.267 414.46C266.334 413.98 265.614 413.32 265.107 412.48C264.6 411.64 264.347 410.687 264.347 409.62C264.347 408.567 264.594 407.62 265.087 406.78C265.594 405.927 266.28 405.267 267.147 404.8C268.027 404.32 269.007 404.08 270.087 404.08C271.14 404.08 272.094 404.307 272.947 404.76C273.8 405.213 274.467 405.867 274.947 406.72C275.44 407.56 275.687 408.54 275.687 409.66ZM270.107 406.44C269.4 406.44 268.807 406.64 268.327 407.04C267.847 407.44 267.554 407.987 267.447 408.68H272.747C272.64 408 272.347 407.46 271.867 407.06C271.387 406.647 270.8 406.44 270.107 406.44ZM282.964 415.16C281.818 415.16 280.784 414.927 279.864 414.46C278.958 413.98 278.244 413.32 277.724 412.48C277.218 411.64 276.964 410.687 276.964 409.62C276.964 408.553 277.218 407.6 277.724 406.76C278.244 405.92 278.958 405.267 279.864 404.8C280.784 404.32 281.818 404.08 282.964 404.08C284.098 404.08 285.084 404.32 285.924 404.8C286.778 405.267 287.398 405.94 287.784 406.82L285.364 408.12C284.804 407.133 283.998 406.64 282.944 406.64C282.131 406.64 281.458 406.907 280.924 407.44C280.391 407.973 280.124 408.7 280.124 409.62C280.124 410.54 280.391 411.267 280.924 411.8C281.458 412.333 282.131 412.6 282.944 412.6C284.011 412.6 284.818 412.107 285.364 411.12L287.784 412.44C287.398 413.293 286.778 413.96 285.924 414.44C285.084 414.92 284.098 415.16 282.964 415.16ZM294.564 415.16C293.431 415.16 292.411 414.927 291.504 414.46C290.611 413.98 289.911 413.32 289.404 412.48C288.897 411.64 288.644 410.687 288.644 409.62C288.644 408.553 288.897 407.6 289.404 406.76C289.911 405.92 290.611 405.267 291.504 404.8C292.411 404.32 293.431 404.08 294.564 404.08C295.697 404.08 296.711 404.32 297.604 404.8C298.497 405.267 299.197 405.92 299.704 406.76C300.211 407.6 300.464 408.553 300.464 409.62C300.464 410.687 300.211 411.64 299.704 412.48C299.197 413.32 298.497 413.98 297.604 414.46C296.711 414.927 295.697 415.16 294.564 415.16ZM294.564 412.6C295.364 412.6 296.017 412.333 296.524 411.8C297.044 411.253 297.304 410.527 297.304 409.62C297.304 408.713 297.044 407.993 296.524 407.46C296.017 406.913 295.364 406.64 294.564 406.64C293.764 406.64 293.104 406.913 292.584 407.46C292.064 407.993 291.804 408.713 291.804 409.62C291.804 410.527 292.064 411.253 292.584 411.8C293.104 412.333 293.764 412.6 294.564 412.6ZM316.329 404.08C317.676 404.08 318.743 404.48 319.529 405.28C320.329 406.067 320.729 407.253 320.729 408.84V415H317.609V409.32C317.609 408.467 317.429 407.833 317.069 407.42C316.723 406.993 316.223 406.78 315.569 406.78C314.836 406.78 314.256 407.02 313.829 407.5C313.403 407.967 313.189 408.667 313.189 409.6V415H310.069V409.32C310.069 407.627 309.389 406.78 308.029 406.78C307.309 406.78 306.736 407.02 306.309 407.5C305.883 407.967 305.669 408.667 305.669 409.6V415H302.549V404.24H305.529V405.48C305.929 405.027 306.416 404.68 306.989 404.44C307.576 404.2 308.216 404.08 308.909 404.08C309.669 404.08 310.356 404.233 310.969 404.54C311.583 404.833 312.076 405.267 312.449 405.84C312.889 405.28 313.443 404.847 314.109 404.54C314.789 404.233 315.529 404.08 316.329 404.08ZM337.306 404.08C338.653 404.08 339.719 404.48 340.506 405.28C341.306 406.067 341.706 407.253 341.706 408.84V415H338.586V409.32C338.586 408.467 338.406 407.833 338.046 407.42C337.699 406.993 337.199 406.78 336.546 406.78C335.813 406.78 335.233 407.02 334.806 407.5C334.379 407.967 334.166 408.667 334.166 409.6V415H331.046V409.32C331.046 407.627 330.366 406.78 329.006 406.78C328.286 406.78 327.713 407.02 327.286 407.5C326.859 407.967 326.646 408.667 326.646 409.6V415H323.526V404.24H326.506V405.48C326.906 405.027 327.393 404.68 327.966 404.44C328.553 404.2 329.193 404.08 329.886 404.08C330.646 404.08 331.333 404.233 331.946 404.54C332.559 404.833 333.053 405.267 333.426 405.84C333.866 405.28 334.419 404.847 335.086 404.54C335.766 404.233 336.506 404.08 337.306 404.08ZM355.16 409.66C355.16 409.7 355.14 409.98 355.1 410.5H346.96C347.106 411.167 347.453 411.693 348 412.08C348.546 412.467 349.226 412.66 350.04 412.66C350.6 412.66 351.093 412.58 351.52 412.42C351.96 412.247 352.366 411.98 352.74 411.62L354.4 413.42C353.386 414.58 351.906 415.16 349.96 415.16C348.746 415.16 347.673 414.927 346.74 414.46C345.806 413.98 345.086 413.32 344.58 412.48C344.073 411.64 343.82 410.687 343.82 409.62C343.82 408.567 344.066 407.62 344.56 406.78C345.066 405.927 345.753 405.267 346.62 404.8C347.5 404.32 348.48 404.08 349.56 404.08C350.613 404.08 351.566 404.307 352.42 404.76C353.273 405.213 353.94 405.867 354.42 406.72C354.913 407.56 355.16 408.54 355.16 409.66ZM349.58 406.44C348.873 406.44 348.28 406.64 347.8 407.04C347.32 407.44 347.026 407.987 346.92 408.68H352.22C352.113 408 351.82 407.46 351.34 407.06C350.86 406.647 350.273 406.44 349.58 406.44ZM363.777 404.08C365.11 404.08 366.184 404.48 366.997 405.28C367.824 406.08 368.237 407.267 368.237 408.84V415H365.117V409.32C365.117 408.467 364.93 407.833 364.557 407.42C364.184 406.993 363.644 406.78 362.937 406.78C362.15 406.78 361.524 407.027 361.057 407.52C360.59 408 360.357 408.72 360.357 409.68V415H357.237V404.24H360.217V405.5C360.63 405.047 361.144 404.7 361.757 404.46C362.37 404.207 363.044 404.08 363.777 404.08ZM382.142 400.16V415H379.162V413.76C378.389 414.693 377.269 415.16 375.802 415.16C374.789 415.16 373.869 414.933 373.042 414.48C372.229 414.027 371.589 413.38 371.122 412.54C370.656 411.7 370.422 410.727 370.422 409.62C370.422 408.513 370.656 407.54 371.122 406.7C371.589 405.86 372.229 405.213 373.042 404.76C373.869 404.307 374.789 404.08 375.802 404.08C377.176 404.08 378.249 404.513 379.022 405.38V400.16H382.142ZM376.342 412.6C377.129 412.6 377.782 412.333 378.302 411.8C378.822 411.253 379.082 410.527 379.082 409.62C379.082 408.713 378.822 407.993 378.302 407.46C377.782 406.913 377.129 406.64 376.342 406.64C375.542 406.64 374.882 406.913 374.362 407.46C373.842 407.993 373.582 408.713 373.582 409.62C373.582 410.527 373.842 411.253 374.362 411.8C374.882 412.333 375.542 412.6 376.342 412.6Z" fill="white"/>
<path d="M281.66 135H284.9V146.36H291.92V149H281.66V135ZM293.51 138.24H296.63V149H293.51V138.24ZM295.07 136.74C294.497 136.74 294.03 136.573 293.67 136.24C293.31 135.907 293.13 135.493 293.13 135C293.13 134.507 293.31 134.093 293.67 133.76C294.03 133.427 294.497 133.26 295.07 133.26C295.644 133.26 296.11 133.42 296.47 133.74C296.83 134.06 297.01 134.46 297.01 134.94C297.01 135.46 296.83 135.893 296.47 136.24C296.11 136.573 295.644 136.74 295.07 136.74ZM304.146 144.78L302.646 146.26V149H299.526V134.16H302.646V142.56L307.206 138.24H310.926L306.446 142.8L311.326 149H307.546L304.146 144.78ZM322.8 143.66C322.8 143.7 322.78 143.98 322.74 144.5H314.6C314.747 145.167 315.094 145.693 315.64 146.08C316.187 146.467 316.867 146.66 317.68 146.66C318.24 146.66 318.734 146.58 319.16 146.42C319.6 146.247 320.007 145.98 320.38 145.62L322.04 147.42C321.027 148.58 319.547 149.16 317.6 149.16C316.387 149.16 315.314 148.927 314.38 148.46C313.447 147.98 312.727 147.32 312.22 146.48C311.714 145.64 311.46 144.687 311.46 143.62C311.46 142.567 311.707 141.62 312.2 140.78C312.707 139.927 313.394 139.267 314.26 138.8C315.14 138.32 316.12 138.08 317.2 138.08C318.254 138.08 319.207 138.307 320.06 138.76C320.914 139.213 321.58 139.867 322.06 140.72C322.554 141.56 322.8 142.54 322.8 143.66ZM317.22 140.44C316.514 140.44 315.92 140.64 315.44 141.04C314.96 141.44 314.667 141.987 314.56 142.68H319.86C319.754 142 319.46 141.46 318.98 141.06C318.5 140.647 317.914 140.44 317.22 140.44Z" fill="white"/>
<path d="M142.143 186.029L209.776 112.718L142.143 186.029Z" fill="white"/>
<path d="M142.143 186.029L209.776 112.718" stroke="white" stroke-width="1.61765" stroke-miterlimit="10"/>
<path d="M215.535 106.473L212.025 118.638L209.776 112.718L203.694 110.954L215.535 106.473Z" fill="white" stroke="white" stroke-width="1.61765" stroke-miterlimit="10"/>
<path d="M99.4853 287.941V387.637V287.941Z" fill="white"/>
<path d="M99.4853 287.941V387.637" stroke="white" stroke-width="1.61765" stroke-miterlimit="10"/>
<path d="M99.4853 396.129L93.8235 384.806L99.4853 387.637L105.147 384.806L99.4853 396.129Z" fill="white" stroke="white" stroke-width="1.61765" stroke-miterlimit="10"/>
<path d="M99.4853 287.941C129.861 287.941 154.485 263.317 154.485 232.941C154.485 202.566 129.861 177.941 99.4853 177.941C69.1096 177.941 44.4853 202.566 44.4853 232.941C44.4853 263.317 69.1096 287.941 99.4853 287.941Z" stroke="white" stroke-width="3.23529"/>
<path d="M55.4852 265.941C58.4941 258.532 71.1764 253.097 86.2852 252.741C87.2558 252.903 88.2426 252.628 88.9867 251.997C89.7308 251.35 90.1514 250.428 90.1352 249.441C90.8955 242.421 88.2264 235.465 82.9852 230.741C81.6426 230.741 80.5588 228.04 80.5588 224.691C80.5588 221.343 81.6426 218.641 82.9852 218.641C82.3705 213.788 83.7941 208.903 86.9161 205.15C90.0544 201.397 94.5999 199.1 99.4852 198.841C104.371 199.1 108.916 201.397 112.054 205.15C115.176 208.903 116.6 213.788 115.985 218.641C117.328 218.641 118.412 221.343 118.412 224.691C118.412 228.04 117.328 230.741 115.985 230.741C110.744 235.465 108.075 242.421 108.835 249.441C108.819 250.428 109.24 251.35 109.984 251.997C110.728 252.628 111.715 252.903 112.685 252.741C127.794 253.097 140.476 258.532 143.485 265.941" stroke="white" stroke-width="3.23529" stroke-miterlimit="10"/>
<path d="M99.4853 287.941C129.861 287.941 154.485 263.317 154.485 232.941C154.485 202.566 129.861 177.941 99.4853 177.941C69.1096 177.941 44.4853 202.566 44.4853 232.941C44.4853 263.317 69.1096 287.941 99.4853 287.941Z" stroke="white" stroke-width="3.23529"/>
<path d="M55.4852 265.941C58.4941 258.532 71.1764 253.097 86.2852 252.741C87.2558 252.903 88.2426 252.628 88.9867 251.997C89.7308 251.35 90.1514 250.428 90.1352 249.441C90.8955 242.421 88.2264 235.465 82.9852 230.741C81.6426 230.741 80.5588 228.04 80.5588 224.691C80.5588 221.343 81.6426 218.641 82.9852 218.641C82.3705 213.788 83.7941 208.903 86.9161 205.15C90.0544 201.397 94.5999 199.1 99.4852 198.841C104.371 199.1 108.916 201.397 112.054 205.15C115.176 208.903 116.6 213.788 115.985 218.641C117.328 218.641 118.412 221.343 118.412 224.691C118.412 228.04 117.328 230.741 115.985 230.741C110.744 235.465 108.075 242.421 108.835 249.441C108.819 250.428 109.24 251.35 109.984 251.997C110.728 252.628 111.715 252.903 112.685 252.741C127.794 253.097 140.476 258.532 143.485 265.941" stroke="white" stroke-width="3.23529" stroke-miterlimit="10"/>
<path d="M302.743 186.029L239.671 112.944L302.743 186.029Z" fill="white"/>
<path d="M302.743 186.029L239.671 112.944" stroke="white" stroke-width="1.61765" stroke-miterlimit="10"/>
<path d="M234.122 106.522L245.801 111.391L239.671 112.944L237.228 118.784L234.122 106.522Z" fill="white" stroke="white" stroke-width="1.61765" stroke-miterlimit="10"/>
<path d="M342.132 287.941C372.508 287.941 397.132 263.317 397.132 232.941C397.132 202.566 372.508 177.941 342.132 177.941C311.757 177.941 287.132 202.566 287.132 232.941C287.132 263.317 311.757 287.941 342.132 287.941Z" stroke="white" stroke-width="3.23529"/>
<path d="M298.132 265.941C301.141 258.532 313.823 253.097 328.932 252.741C329.903 252.903 330.89 252.628 331.634 251.997C332.378 251.35 332.798 250.428 332.782 249.441C333.543 242.421 330.873 235.465 325.632 230.741C324.29 230.741 323.206 228.04 323.206 224.691C323.206 221.343 324.29 218.641 325.632 218.641C325.018 213.788 326.441 208.903 329.563 205.15C332.701 201.397 337.247 199.1 342.132 198.841C347.018 199.1 351.563 201.397 354.701 205.15C357.823 208.903 359.247 213.788 358.632 218.641C359.975 218.641 361.059 221.343 361.059 224.691C361.059 228.04 359.975 230.741 358.632 230.741C353.391 235.465 350.722 242.421 351.482 249.441C351.466 250.428 351.887 251.35 352.631 251.997C353.375 252.628 354.362 252.903 355.332 252.741C370.441 253.097 383.123 258.532 386.132 265.941" stroke="white" stroke-width="3.23529" stroke-miterlimit="10"/>
<path d="M309.779 0H139.926C131.886 0 125.368 6.51821 125.368 14.5588V82.5C125.368 90.5406 131.886 97.0588 139.926 97.0588H309.779C317.82 97.0588 324.338 90.5406 324.338 82.5V14.5588C324.338 6.51821 317.82 0 309.779 0Z" fill="#535353"/>
<path d="M309.779 0H139.926C131.886 0 125.368 6.51821 125.368 14.5588V82.5C125.368 90.5406 131.886 97.0588 139.926 97.0588H309.779C317.82 97.0588 324.338 90.5406 324.338 82.5V14.5588C324.338 6.51821 317.82 0 309.779 0Z" fill="#535353"/>
<path d="M198.971 446.47L299.524 296.498L198.971 446.47Z" fill="white"/>
<path d="M198.971 446.47L299.524 296.498" stroke="white" stroke-width="1.61765" stroke-miterlimit="10" stroke-dasharray="4.85 4.85"/>
<path d="M304.247 289.445L302.646 301.998L299.523 296.498L293.247 295.69L304.247 289.445Z" fill="white" stroke="white" stroke-width="1.61765" stroke-miterlimit="10"/>
<path d="M184.412 397.941H14.5588C6.51821 397.941 0 404.459 0 412.5V480.441C0 488.482 6.51821 495 14.5588 495H184.412C192.452 495 198.971 488.482 198.971 480.441V412.5C198.971 404.459 192.452 397.941 184.412 397.941Z" fill="#535353"/>
<path d="M188.056 53.4H180.256L178.768 57H174.784L182.272 40.2H186.112L193.624 57H189.544L188.056 53.4ZM186.832 50.448L184.168 44.016L181.504 50.448H186.832ZM195.103 39.192H198.847V57H195.103V39.192ZM209.954 43.896C211.154 43.896 212.242 44.176 213.218 44.736C214.21 45.28 214.986 46.056 215.546 47.064C216.106 48.056 216.386 49.216 216.386 50.544C216.386 51.872 216.106 53.04 215.546 54.048C214.986 55.04 214.21 55.816 213.218 56.376C212.242 56.92 211.154 57.192 209.954 57.192C208.178 57.192 206.826 56.632 205.898 55.512V57H202.322V39.192H206.066V45.456C207.01 44.416 208.306 43.896 209.954 43.896ZM209.306 54.12C210.266 54.12 211.05 53.8 211.658 53.16C212.282 52.504 212.594 51.632 212.594 50.544C212.594 49.456 212.282 48.592 211.658 47.952C211.05 47.296 210.266 46.968 209.306 46.968C208.346 46.968 207.554 47.296 206.93 47.952C206.322 48.592 206.018 49.456 206.018 50.544C206.018 51.632 206.322 52.504 206.93 53.16C207.554 53.8 208.346 54.12 209.306 54.12ZM231.9 44.088V57H228.348V55.464C227.852 56.024 227.26 56.456 226.572 56.76C225.884 57.048 225.14 57.192 224.34 57.192C222.644 57.192 221.3 56.704 220.308 55.728C219.316 54.752 218.82 53.304 218.82 51.384V44.088H222.564V50.832C222.564 52.912 223.436 53.952 225.18 53.952C226.076 53.952 226.796 53.664 227.34 53.088C227.884 52.496 228.156 51.624 228.156 50.472V44.088H231.9ZM251.905 43.896C253.521 43.896 254.801 44.376 255.745 45.336C256.705 46.28 257.185 47.704 257.185 49.608V57H253.441V50.184C253.441 49.16 253.225 48.4 252.793 47.904C252.377 47.392 251.777 47.136 250.993 47.136C250.113 47.136 249.417 47.424 248.905 48C248.393 48.56 248.137 49.4 248.137 50.52V57H244.393V50.184C244.393 48.152 243.577 47.136 241.945 47.136C241.081 47.136 240.393 47.424 239.881 48C239.369 48.56 239.113 49.4 239.113 50.52V57H235.369V44.088H238.945V45.576C239.425 45.032 240.009 44.616 240.697 44.328C241.401 44.04 242.169 43.896 243.001 43.896C243.913 43.896 244.737 44.08 245.473 44.448C246.209 44.8 246.801 45.32 247.249 46.008C247.777 45.336 248.441 44.816 249.241 44.448C250.057 44.08 250.945 43.896 251.905 43.896ZM273.025 40.2V57H269.137V43.32H265.777V40.2H273.025Z" fill="white"/>
<path d="M62.056 450.4H54.256L52.768 454H48.784L56.272 437.2H60.112L67.624 454H63.544L62.056 450.4ZM60.832 447.448L58.168 441.016L55.504 447.448H60.832ZM69.103 436.192H72.847V454H69.103V436.192ZM83.9538 440.896C85.1538 440.896 86.2418 441.176 87.2178 441.736C88.2098 442.28 88.9858 443.056 89.5458 444.064C90.1058 445.056 90.3858 446.216 90.3858 447.544C90.3858 448.872 90.1058 450.04 89.5458 451.048C88.9858 452.04 88.2098 452.816 87.2178 453.376C86.2418 453.92 85.1538 454.192 83.9538 454.192C82.1778 454.192 80.8258 453.632 79.8978 452.512V454H76.3218V436.192H80.0658V442.456C81.0098 441.416 82.3058 440.896 83.9538 440.896ZM83.3058 451.12C84.2658 451.12 85.0498 450.8 85.6578 450.16C86.2818 449.504 86.5938 448.632 86.5938 447.544C86.5938 446.456 86.2818 445.592 85.6578 444.952C85.0498 444.296 84.2658 443.968 83.3058 443.968C82.3458 443.968 81.5538 444.296 80.9297 444.952C80.3218 445.592 80.0178 446.456 80.0178 447.544C80.0178 448.632 80.3218 449.504 80.9297 450.16C81.5538 450.8 82.3458 451.12 83.3058 451.12ZM105.9 441.088V454H102.348V452.464C101.852 453.024 101.26 453.456 100.572 453.76C99.8841 454.048 99.1401 454.192 98.3401 454.192C96.6441 454.192 95.3001 453.704 94.3081 452.728C93.3161 451.752 92.8201 450.304 92.8201 448.384V441.088H96.5641V447.832C96.5641 449.912 97.4361 450.952 99.1801 450.952C100.076 450.952 100.796 450.664 101.34 450.088C101.884 449.496 102.156 448.624 102.156 447.472V441.088H105.9ZM125.905 440.896C127.521 440.896 128.801 441.376 129.745 442.336C130.705 443.28 131.185 444.704 131.185 446.608V454H127.441V447.184C127.441 446.16 127.225 445.4 126.793 444.904C126.377 444.392 125.777 444.136 124.993 444.136C124.113 444.136 123.417 444.424 122.905 445C122.393 445.56 122.137 446.4 122.137 447.52V454H118.393V447.184C118.393 445.152 117.577 444.136 115.945 444.136C115.081 444.136 114.393 444.424 113.881 445C113.369 445.56 113.113 446.4 113.113 447.52V454H109.369V441.088H112.945V442.576C113.425 442.032 114.009 441.616 114.697 441.328C115.401 441.04 116.169 440.896 117.001 440.896C117.913 440.896 118.737 441.08 119.473 441.448C120.209 441.8 120.801 442.32 121.249 443.008C121.777 442.336 122.441 441.816 123.241 441.448C124.057 441.08 124.945 440.896 125.905 440.896ZM153.097 450.832V454H140.401V451.48L146.881 445.36C147.569 444.704 148.033 444.144 148.273 443.68C148.513 443.2 148.633 442.728 148.633 442.264C148.633 441.592 148.401 441.08 147.937 440.728C147.489 440.36 146.825 440.176 145.945 440.176C145.209 440.176 144.545 440.32 143.953 440.608C143.361 440.88 142.865 441.296 142.465 441.856L139.633 440.032C140.289 439.056 141.193 438.296 142.345 437.752C143.497 437.192 144.817 436.912 146.305 436.912C147.553 436.912 148.641 437.12 149.569 437.536C150.513 437.936 151.241 438.512 151.753 439.264C152.281 440 152.545 440.872 152.545 441.88C152.545 442.792 152.353 443.648 151.969 444.448C151.585 445.248 150.841 446.16 149.737 447.184L145.873 450.832H153.097Z" fill="white"/>
</svg>
