<svg width="352" height="50" viewBox="0 0 352 50" fill="none" xmlns="http://www.w3.org/2000/svg">
<path d="M82.032 33.288C80.32 33.288 78.768 32.92 77.376 32.184C76 31.432 74.912 30.4 74.112 29.088C73.328 27.76 72.936 26.264 72.936 24.6C72.936 22.936 73.328 21.448 74.112 20.136C74.912 18.808 76 17.776 77.376 17.04C78.768 16.288 80.328 15.912 82.056 15.912C83.512 15.912 84.824 16.168 85.992 16.68C87.176 17.192 88.168 17.928 88.968 18.888L86.472 21.192C85.336 19.88 83.928 19.224 82.248 19.224C81.208 19.224 80.28 19.456 79.464 19.92C78.648 20.368 78.008 21 77.544 21.816C77.096 22.632 76.872 23.56 76.872 24.6C76.872 25.64 77.096 26.568 77.544 27.384C78.008 28.2 78.648 28.84 79.464 29.304C80.28 29.752 81.208 29.976 82.248 29.976C83.928 29.976 85.336 29.312 86.472 27.984L88.968 30.288C88.168 31.264 87.176 32.008 85.992 32.52C84.808 33.032 83.488 33.288 82.032 33.288ZM97.0283 33.192C95.6683 33.192 94.4443 32.912 93.3563 32.352C92.2843 31.776 91.4443 30.984 90.8363 29.976C90.2283 28.968 89.9243 27.824 89.9243 26.544C89.9243 25.264 90.2283 24.12 90.8363 23.112C91.4443 22.104 92.2843 21.32 93.3563 20.76C94.4443 20.184 95.6683 19.896 97.0283 19.896C98.3883 19.896 99.6043 20.184 100.676 20.76C101.748 21.32 102.588 22.104 103.196 23.112C103.804 24.12 104.108 25.264 104.108 26.544C104.108 27.824 103.804 28.968 103.196 29.976C102.588 30.984 101.748 31.776 100.676 32.352C99.6043 32.912 98.3883 33.192 97.0283 33.192ZM97.0283 30.12C97.9883 30.12 98.7723 29.8 99.3803 29.16C100.004 28.504 100.316 27.632 100.316 26.544C100.316 25.456 100.004 24.592 99.3803 23.952C98.7723 23.296 97.9883 22.968 97.0283 22.968C96.0683 22.968 95.2763 23.296 94.6523 23.952C94.0283 24.592 93.7163 25.456 93.7163 26.544C93.7163 27.632 94.0283 28.504 94.6523 29.16C95.2763 29.8 96.0683 30.12 97.0283 30.12ZM106.611 15.192H110.355V33H106.611V15.192ZM113.83 15.192H117.574V33H113.83V15.192ZM126.256 19.896C128.256 19.896 129.792 20.376 130.864 21.336C131.936 22.28 132.472 23.712 132.472 25.632V33H128.968V31.392C128.264 32.592 126.952 33.192 125.032 33.192C124.04 33.192 123.176 33.024 122.44 32.688C121.72 32.352 121.168 31.888 120.784 31.296C120.4 30.704 120.208 30.032 120.208 29.28C120.208 28.08 120.656 27.136 121.552 26.448C122.464 25.76 123.864 25.416 125.752 25.416H128.728C128.728 24.6 128.48 23.976 127.984 23.544C127.488 23.096 126.744 22.872 125.752 22.872C125.064 22.872 124.384 22.984 123.712 23.208C123.056 23.416 122.496 23.704 122.032 24.072L120.688 21.456C121.392 20.96 122.232 20.576 123.208 20.304C124.2 20.032 125.216 19.896 126.256 19.896ZM125.968 30.672C126.608 30.672 127.176 30.528 127.672 30.24C128.168 29.936 128.52 29.496 128.728 28.92V27.6H126.16C124.624 27.6 123.856 28.104 123.856 29.112C123.856 29.592 124.04 29.976 124.408 30.264C124.792 30.536 125.312 30.672 125.968 30.672ZM143.493 19.896C144.693 19.896 145.781 20.176 146.757 20.736C147.749 21.28 148.525 22.056 149.085 23.064C149.645 24.056 149.925 25.216 149.925 26.544C149.925 27.872 149.645 29.04 149.085 30.048C148.525 31.04 147.749 31.816 146.757 32.376C145.781 32.92 144.693 33.192 143.493 33.192C141.717 33.192 140.365 32.632 139.437 31.512V33H135.861V15.192H139.605V21.456C140.549 20.416 141.845 19.896 143.493 19.896ZM142.845 30.12C143.805 30.12 144.589 29.8 145.197 29.16C145.821 28.504 146.133 27.632 146.133 26.544C146.133 25.456 145.821 24.592 145.197 23.952C144.589 23.296 143.805 22.968 142.845 22.968C141.885 22.968 141.093 23.296 140.469 23.952C139.861 24.592 139.557 25.456 139.557 26.544C139.557 27.632 139.861 28.504 140.469 29.16C141.093 29.8 141.885 30.12 142.845 30.12ZM158.575 33.192C157.215 33.192 155.991 32.912 154.903 32.352C153.831 31.776 152.991 30.984 152.383 29.976C151.775 28.968 151.471 27.824 151.471 26.544C151.471 25.264 151.775 24.12 152.383 23.112C152.991 22.104 153.831 21.32 154.903 20.76C155.991 20.184 157.215 19.896 158.575 19.896C159.935 19.896 161.151 20.184 162.223 20.76C163.295 21.32 164.135 22.104 164.743 23.112C165.351 24.12 165.655 25.264 165.655 26.544C165.655 27.824 165.351 28.968 164.743 29.976C164.135 30.984 163.295 31.776 162.223 32.352C161.151 32.912 159.935 33.192 158.575 33.192ZM158.575 30.12C159.535 30.12 160.319 29.8 160.927 29.16C161.551 28.504 161.863 27.632 161.863 26.544C161.863 25.456 161.551 24.592 160.927 23.952C160.319 23.296 159.535 22.968 158.575 22.968C157.615 22.968 156.823 23.296 156.199 23.952C155.575 24.592 155.263 25.456 155.263 26.544C155.263 27.632 155.575 28.504 156.199 29.16C156.823 29.8 157.615 30.12 158.575 30.12ZM171.734 21.792C172.182 21.168 172.782 20.696 173.534 20.376C174.302 20.056 175.182 19.896 176.174 19.896V23.352C175.758 23.32 175.478 23.304 175.334 23.304C174.262 23.304 173.422 23.608 172.814 24.216C172.206 24.808 171.902 25.704 171.902 26.904V33H168.158V20.088H171.734V21.792ZM183.538 19.896C185.538 19.896 187.074 20.376 188.146 21.336C189.218 22.28 189.754 23.712 189.754 25.632V33H186.25V31.392C185.546 32.592 184.234 33.192 182.314 33.192C181.322 33.192 180.458 33.024 179.722 32.688C179.002 32.352 178.45 31.888 178.066 31.296C177.682 30.704 177.49 30.032 177.49 29.28C177.49 28.08 177.938 27.136 178.834 26.448C179.746 25.76 181.146 25.416 183.034 25.416H186.01C186.01 24.6 185.762 23.976 185.266 23.544C184.77 23.096 184.026 22.872 183.034 22.872C182.346 22.872 181.666 22.984 180.994 23.208C180.338 23.416 179.778 23.704 179.314 24.072L177.97 21.456C178.674 20.96 179.514 20.576 180.49 20.304C181.482 20.032 182.498 19.896 183.538 19.896ZM183.25 30.672C183.89 30.672 184.458 30.528 184.954 30.24C185.45 29.936 185.802 29.496 186.01 28.92V27.6H183.442C181.906 27.6 181.138 28.104 181.138 29.112C181.138 29.592 181.322 29.976 181.69 30.264C182.074 30.536 182.594 30.672 183.25 30.672ZM201.47 32.376C201.102 32.648 200.646 32.856 200.102 33C199.574 33.128 199.014 33.192 198.422 33.192C196.886 33.192 195.694 32.8 194.846 32.016C194.014 31.232 193.598 30.08 193.598 28.56V23.256H191.606V20.376H193.598V17.232H197.342V20.376H200.558V23.256H197.342V28.512C197.342 29.056 197.478 29.48 197.75 29.784C198.038 30.072 198.438 30.216 198.95 30.216C199.542 30.216 200.046 30.056 200.462 29.736L201.47 32.376ZM203.572 20.088H207.316V33H203.572V20.088ZM205.444 18.288C204.756 18.288 204.196 18.088 203.764 17.688C203.332 17.288 203.116 16.792 203.116 16.2C203.116 15.608 203.332 15.112 203.764 14.712C204.196 14.312 204.756 14.112 205.444 14.112C206.132 14.112 206.692 14.304 207.124 14.688C207.556 15.072 207.772 15.552 207.772 16.128C207.772 16.752 207.556 17.272 207.124 17.688C206.692 18.088 206.132 18.288 205.444 18.288ZM223.607 20.088L218.159 33H214.295L208.87 20.088H212.735L216.311 28.872L220.007 20.088H223.607ZM237.431 26.592C237.431 26.64 237.407 26.976 237.359 27.6H227.591C227.767 28.4 228.183 29.032 228.839 29.496C229.495 29.96 230.311 30.192 231.287 30.192C231.959 30.192 232.551 30.096 233.063 29.904C233.591 29.696 234.079 29.376 234.527 28.944L236.519 31.104C235.303 32.496 233.527 33.192 231.191 33.192C229.735 33.192 228.447 32.912 227.327 32.352C226.207 31.776 225.343 30.984 224.735 29.976C224.127 28.968 223.823 27.824 223.823 26.544C223.823 25.28 224.119 24.144 224.711 23.136C225.319 22.112 226.143 21.32 227.183 20.76C228.239 20.184 229.415 19.896 230.711 19.896C231.975 19.896 233.119 20.168 234.143 20.712C235.167 21.256 235.967 22.04 236.543 23.064C237.135 24.072 237.431 25.248 237.431 26.592ZM230.735 22.728C229.887 22.728 229.175 22.968 228.599 23.448C228.023 23.928 227.671 24.584 227.543 25.416H233.903C233.775 24.6 233.423 23.952 232.847 23.472C232.271 22.976 231.567 22.728 230.735 22.728ZM250.872 19.32V23.76H258.648V26.88H250.872V33H246.984V16.2H259.68V19.32H250.872ZM261.814 20.088H265.558V33H261.814V20.088ZM263.686 18.288C262.998 18.288 262.438 18.088 262.006 17.688C261.574 17.288 261.358 16.792 261.358 16.2C261.358 15.608 261.574 15.112 262.006 14.712C262.438 14.312 262.998 14.112 263.686 14.112C264.374 14.112 264.934 14.304 265.366 14.688C265.798 15.072 266.014 15.552 266.014 16.128C266.014 16.752 265.798 17.272 265.366 17.688C264.934 18.088 264.374 18.288 263.686 18.288ZM269.033 15.192H272.777V33H269.033V15.192ZM285.517 32.376C285.149 32.648 284.693 32.856 284.149 33C283.621 33.128 283.061 33.192 282.469 33.192C280.933 33.192 279.741 32.8 278.893 32.016C278.061 31.232 277.645 30.08 277.645 28.56V23.256H275.653V20.376H277.645V17.232H281.389V20.376H284.605V23.256H281.389V28.512C281.389 29.056 281.525 29.48 281.797 29.784C282.085 30.072 282.485 30.216 282.997 30.216C283.589 30.216 284.093 30.056 284.509 29.736L285.517 32.376ZM299.868 26.592C299.868 26.64 299.844 26.976 299.796 27.6H290.028C290.204 28.4 290.62 29.032 291.276 29.496C291.932 29.96 292.748 30.192 293.724 30.192C294.396 30.192 294.988 30.096 295.5 29.904C296.028 29.696 296.516 29.376 296.964 28.944L298.956 31.104C297.74 32.496 295.964 33.192 293.628 33.192C292.172 33.192 290.884 32.912 289.764 32.352C288.644 31.776 287.78 30.984 287.172 29.976C286.564 28.968 286.26 27.824 286.26 26.544C286.26 25.28 286.556 24.144 287.148 23.136C287.756 22.112 288.58 21.32 289.62 20.76C290.676 20.184 291.852 19.896 293.148 19.896C294.412 19.896 295.556 20.168 296.58 20.712C297.604 21.256 298.404 22.04 298.98 23.064C299.572 24.072 299.868 25.248 299.868 26.592ZM293.172 22.728C292.324 22.728 291.612 22.968 291.036 23.448C290.46 23.928 290.108 24.584 289.98 25.416H296.34C296.212 24.6 295.86 23.952 295.284 23.472C294.708 22.976 294.004 22.728 293.172 22.728ZM305.937 21.792C306.385 21.168 306.985 20.696 307.737 20.376C308.505 20.056 309.385 19.896 310.377 19.896V23.352C309.961 23.32 309.681 23.304 309.537 23.304C308.465 23.304 307.625 23.608 307.017 24.216C306.409 24.808 306.105 25.704 306.105 26.904V33H302.361V20.088H305.937V21.792ZM312.603 20.088H316.347V33H312.603V20.088ZM314.475 18.288C313.787 18.288 313.227 18.088 312.795 17.688C312.363 17.288 312.147 16.792 312.147 16.2C312.147 15.608 312.363 15.112 312.795 14.712C313.227 14.312 313.787 14.112 314.475 14.112C315.163 14.112 315.723 14.304 316.155 14.688C316.587 15.072 316.803 15.552 316.803 16.128C316.803 16.752 316.587 17.272 316.155 17.688C315.723 18.088 315.163 18.288 314.475 18.288ZM327.67 19.896C329.27 19.896 330.558 20.376 331.534 21.336C332.526 22.296 333.022 23.72 333.022 25.608V33H329.278V26.184C329.278 25.16 329.054 24.4 328.606 23.904C328.158 23.392 327.51 23.136 326.662 23.136C325.718 23.136 324.966 23.432 324.406 24.024C323.846 24.6 323.566 25.464 323.566 26.616V33H319.822V20.088H323.398V21.6C323.894 21.056 324.51 20.64 325.246 20.352C325.982 20.048 326.79 19.896 327.67 19.896ZM349.876 20.088V30.84C349.876 33.208 349.26 34.968 348.028 36.12C346.796 37.272 344.996 37.848 342.628 37.848C341.38 37.848 340.196 37.696 339.076 37.392C337.956 37.088 337.028 36.648 336.292 36.072L337.78 33.384C338.324 33.832 339.012 34.184 339.844 34.44C340.676 34.712 341.508 34.848 342.34 34.848C343.636 34.848 344.588 34.552 345.196 33.96C345.82 33.384 346.132 32.504 346.132 31.32V30.768C345.156 31.84 343.796 32.376 342.052 32.376C340.868 32.376 339.78 32.12 338.788 31.608C337.812 31.08 337.036 30.344 336.46 29.4C335.884 28.456 335.596 27.368 335.596 26.136C335.596 24.904 335.884 23.816 336.46 22.872C337.036 21.928 337.812 21.2 338.788 20.688C339.78 20.16 340.868 19.896 342.052 19.896C343.924 19.896 345.348 20.512 346.324 21.744V20.088H349.876ZM342.796 29.304C343.788 29.304 344.596 29.016 345.22 28.44C345.86 27.848 346.18 27.08 346.18 26.136C346.18 25.192 345.86 24.432 345.22 23.856C344.596 23.264 343.788 22.968 342.796 22.968C341.804 22.968 340.988 23.264 340.348 23.856C339.708 24.432 339.388 25.192 339.388 26.136C339.388 27.08 339.708 27.848 340.348 28.44C340.988 29.016 341.804 29.304 342.796 29.304Z" fill="white"/>
<path d="M5.26316 28.9474C5.26316 31.2281 5.72368 33.3882 6.64474 35.4276C7.56579 37.4671 8.88158 39.2544 10.5921 40.7895C10.5482 40.5702 10.5263 40.3728 10.5263 40.1974V39.6053C10.5263 38.2018 10.7895 36.886 11.3158 35.6579C11.8421 34.4298 12.6096 33.3114 13.6184 32.3026L21.0526 25L28.4868 32.3026C29.4956 33.3114 30.2632 34.4298 30.7895 35.6579C31.3158 36.886 31.5789 38.2018 31.5789 39.6053V40.1974C31.5789 40.3728 31.557 40.5702 31.5132 40.7895C33.2237 39.2544 34.5395 37.4671 35.4605 35.4276C36.3816 33.3882 36.8421 31.2281 36.8421 28.9474C36.8421 26.7544 36.4364 24.682 35.625 22.7303C34.8136 20.7785 33.6404 19.0351 32.1053 17.5C31.2281 18.0702 30.307 18.4978 29.3421 18.7829C28.3772 19.068 27.3904 19.2105 26.3816 19.2105C23.6623 19.2105 21.3048 18.3114 19.3092 16.5132C17.3136 14.7149 16.1623 12.5 15.8553 9.86842C14.1447 11.3158 12.6316 12.818 11.3158 14.375C10 15.932 8.89254 17.511 7.99342 19.1118C7.0943 20.7127 6.41447 22.3465 5.95395 24.0132C5.49342 25.6798 5.26316 27.3246 5.26316 28.9474ZM21.0526 32.3684L17.3026 36.0526C16.8202 36.5351 16.4474 37.0833 16.1842 37.6974C15.9211 38.3114 15.7895 38.9474 15.7895 39.6053C15.7895 41.0088 16.3048 42.2149 17.3355 43.2237C18.3662 44.2325 19.6053 44.7368 21.0526 44.7368C22.5 44.7368 23.739 44.2325 24.7697 43.2237C25.8004 42.2149 26.3158 41.0088 26.3158 39.6053C26.3158 38.9035 26.1842 38.2566 25.9211 37.6645C25.6579 37.0724 25.2851 36.5351 24.8026 36.0526L21.0526 32.3684ZM21.0526 0V8.68421C21.0526 10.1754 21.568 11.4254 22.5987 12.4342C23.6294 13.443 24.8904 13.9474 26.3816 13.9474C27.1711 13.9474 27.9057 13.7829 28.5855 13.4539C29.2654 13.125 29.8684 12.6316 30.3947 11.9737L31.5789 10.5263C34.8246 12.3684 37.3904 14.9342 39.2763 18.2237C41.1623 21.5132 42.1053 25.0877 42.1053 28.9474C42.1053 34.8246 40.0658 39.8026 35.9868 43.8816C31.9079 47.9605 26.9298 50 21.0526 50C15.1754 50 10.1974 47.9605 6.11842 43.8816C2.03947 39.8026 0 34.8246 0 28.9474C0 23.2895 1.89693 17.9167 5.69079 12.8289C9.48465 7.74123 14.6053 3.46491 21.0526 0Z" fill="white"/>
</svg>
