<svg width="401" height="314" viewBox="0 0 401 314" fill="none" xmlns="http://www.w3.org/2000/svg">
<path d="M385.412 7H215.559C207.518 7 201 13.5182 201 21.5588V89.5C201 97.5406 207.518 104.059 215.559 104.059H385.412C393.452 104.059 399.971 97.5406 399.971 89.5V21.5588C399.971 13.5182 393.452 7 385.412 7Z" fill="#535353"/>
<path d="M57 112C87.3757 112 112 87.3757 112 57C112 26.6243 87.3757 2 57 2C26.6243 2 2 26.6243 2 57C2 87.3757 26.6243 112 57 112Z" stroke="white" stroke-width="3.23529"/>
<path d="M13 90.0001C16.0088 82.5913 28.6911 77.156 43.8 76.8002C44.7705 76.9619 45.7573 76.6869 46.5014 76.056C47.2455 75.409 47.6661 74.4869 47.65 73.5001C48.4103 66.4796 45.7411 59.5237 40.5 54.8001C39.1573 54.8001 38.0735 52.0987 38.0735 48.7501C38.0735 45.4016 39.1573 42.7002 40.5 42.7002C39.8853 37.8472 41.3088 32.9619 44.4308 29.209C47.5691 25.456 52.1147 23.159 57 22.9001C61.8853 23.159 66.4308 25.456 69.5691 29.209C72.6911 32.9619 74.1147 37.8472 73.5 42.7002C74.8426 42.7002 75.9264 45.4016 75.9264 48.7501C75.9264 52.0987 74.8426 54.8001 73.5 54.8001C68.2588 59.5237 65.5897 66.4796 66.35 73.5001C66.3338 74.4869 66.7544 75.409 67.4985 76.056C68.2426 76.6869 69.2294 76.9619 70.2 76.8002C85.3088 77.156 97.9911 82.5913 101 90.0001" stroke="white" stroke-width="3.23529" stroke-miterlimit="10"/>
<path d="M299.662 104V203.696V104Z" fill="white"/>
<path d="M299.662 104V203.696" stroke="white" stroke-width="1.61765" stroke-miterlimit="10"/>
<path d="M299.662 212.188L294 200.865L299.662 203.696L305.324 200.865L299.662 212.188Z" fill="white" stroke="white" stroke-width="1.61765" stroke-miterlimit="10"/>
<path d="M386.412 216H216.559C208.518 216 202 222.518 202 230.559V298.5C202 306.541 208.518 313.059 216.559 313.059H386.412C394.452 313.059 400.971 306.541 400.971 298.5V230.559C400.971 222.518 394.452 216 386.412 216Z" fill="#535353"/>
<path d="M263.688 60.4H255.888L254.4 64H250.416L257.904 47.2H261.744L269.256 64H265.176L263.688 60.4ZM262.464 57.448L259.8 51.016L257.136 57.448H262.464ZM270.735 46.192H274.479V64H270.735V46.192ZM285.586 50.896C286.786 50.896 287.874 51.176 288.85 51.736C289.842 52.28 290.618 53.056 291.178 54.064C291.738 55.056 292.018 56.216 292.018 57.544C292.018 58.872 291.738 60.04 291.178 61.048C290.618 62.04 289.842 62.816 288.85 63.376C287.874 63.92 286.786 64.192 285.586 64.192C283.81 64.192 282.458 63.632 281.53 62.512V64H277.954V46.192H281.698V52.456C282.642 51.416 283.938 50.896 285.586 50.896ZM284.938 61.12C285.898 61.12 286.682 60.8 287.29 60.16C287.914 59.504 288.226 58.632 288.226 57.544C288.226 56.456 287.914 55.592 287.29 54.952C286.682 54.296 285.898 53.968 284.938 53.968C283.978 53.968 283.186 54.296 282.562 54.952C281.954 55.592 281.65 56.456 281.65 57.544C281.65 58.632 281.954 59.504 282.562 60.16C283.186 60.8 283.978 61.12 284.938 61.12ZM307.532 51.088V64H303.98V62.464C303.484 63.024 302.892 63.456 302.204 63.76C301.516 64.048 300.772 64.192 299.972 64.192C298.276 64.192 296.932 63.704 295.94 62.728C294.948 61.752 294.452 60.304 294.452 58.384V51.088H298.196V57.832C298.196 59.912 299.068 60.952 300.812 60.952C301.708 60.952 302.428 60.664 302.972 60.088C303.516 59.496 303.788 58.624 303.788 57.472V51.088H307.532ZM327.537 50.896C329.153 50.896 330.433 51.376 331.377 52.336C332.337 53.28 332.817 54.704 332.817 56.608V64H329.073V57.184C329.073 56.16 328.857 55.4 328.425 54.904C328.009 54.392 327.409 54.136 326.625 54.136C325.745 54.136 325.049 54.424 324.537 55C324.025 55.56 323.769 56.4 323.769 57.52V64H320.025V57.184C320.025 55.152 319.209 54.136 317.577 54.136C316.713 54.136 316.025 54.424 315.513 55C315.001 55.56 314.745 56.4 314.745 57.52V64H311.001V51.088H314.577V52.576C315.057 52.032 315.641 51.616 316.329 51.328C317.033 51.04 317.801 50.896 318.633 50.896C319.545 50.896 320.369 51.08 321.105 51.448C321.841 51.8 322.433 52.32 322.881 53.008C323.409 52.336 324.073 51.816 324.873 51.448C325.689 51.08 326.577 50.896 327.537 50.896ZM348.658 47.2V64H344.77V50.32H341.41V47.2H348.658Z" fill="white"/>
<path d="M32.58 207L29.88 203.1H29.72H26.9V207H23.66V193H29.72C30.96 193 32.0333 193.207 32.94 193.62C33.86 194.033 34.5667 194.62 35.06 195.38C35.5533 196.14 35.8 197.04 35.8 198.08C35.8 199.12 35.5467 200.02 35.04 200.78C34.5467 201.527 33.84 202.1 32.92 202.5L36.06 207H32.58ZM32.52 198.08C32.52 197.293 32.2667 196.693 31.76 196.28C31.2533 195.853 30.5133 195.64 29.54 195.64H26.9V200.52H29.54C30.5133 200.52 31.2533 200.307 31.76 199.88C32.2667 199.453 32.52 198.853 32.52 198.08ZM48.687 201.66C48.687 201.7 48.667 201.98 48.627 202.5H40.487C40.6337 203.167 40.9804 203.693 41.527 204.08C42.0737 204.467 42.7537 204.66 43.567 204.66C44.127 204.66 44.6204 204.58 45.047 204.42C45.487 204.247 45.8937 203.98 46.267 203.62L47.927 205.42C46.9137 206.58 45.4337 207.16 43.487 207.16C42.2737 207.16 41.2004 206.927 40.267 206.46C39.3337 205.98 38.6137 205.32 38.107 204.48C37.6004 203.64 37.347 202.687 37.347 201.62C37.347 200.567 37.5937 199.62 38.087 198.78C38.5937 197.927 39.2804 197.267 40.147 196.8C41.027 196.32 42.007 196.08 43.087 196.08C44.1404 196.08 45.0937 196.307 45.947 196.76C46.8004 197.213 47.467 197.867 47.947 198.72C48.4404 199.56 48.687 200.54 48.687 201.66ZM43.107 198.44C42.4004 198.44 41.807 198.64 41.327 199.04C40.847 199.44 40.5537 199.987 40.447 200.68H45.747C45.6404 200 45.347 199.46 44.867 199.06C44.387 198.647 43.8004 198.44 43.107 198.44ZM55.9642 207.16C54.8176 207.16 53.7842 206.927 52.8642 206.46C51.9576 205.98 51.2442 205.32 50.7242 204.48C50.2176 203.64 49.9642 202.687 49.9642 201.62C49.9642 200.553 50.2176 199.6 50.7242 198.76C51.2442 197.92 51.9576 197.267 52.8642 196.8C53.7842 196.32 54.8176 196.08 55.9642 196.08C57.0976 196.08 58.0842 196.32 58.9242 196.8C59.7776 197.267 60.3976 197.94 60.7842 198.82L58.3642 200.12C57.8042 199.133 56.9976 198.64 55.9442 198.64C55.1309 198.64 54.4576 198.907 53.9242 199.44C53.3909 199.973 53.1242 200.7 53.1242 201.62C53.1242 202.54 53.3909 203.267 53.9242 203.8C54.4576 204.333 55.1309 204.6 55.9442 204.6C57.0109 204.6 57.8176 204.107 58.3642 203.12L60.7842 204.44C60.3976 205.293 59.7776 205.96 58.9242 206.44C58.0842 206.92 57.0976 207.16 55.9642 207.16ZM67.5639 207.16C66.4306 207.16 65.4106 206.927 64.5039 206.46C63.6106 205.98 62.9106 205.32 62.4039 204.48C61.8972 203.64 61.6439 202.687 61.6439 201.62C61.6439 200.553 61.8972 199.6 62.4039 198.76C62.9106 197.92 63.6106 197.267 64.5039 196.8C65.4106 196.32 66.4306 196.08 67.5639 196.08C68.6972 196.08 69.7106 196.32 70.6039 196.8C71.4972 197.267 72.1972 197.92 72.7039 198.76C73.2106 199.6 73.4639 200.553 73.4639 201.62C73.4639 202.687 73.2106 203.64 72.7039 204.48C72.1972 205.32 71.4972 205.98 70.6039 206.46C69.7106 206.927 68.6972 207.16 67.5639 207.16ZM67.5639 204.6C68.3639 204.6 69.0172 204.333 69.5239 203.8C70.0439 203.253 70.3039 202.527 70.3039 201.62C70.3039 200.713 70.0439 199.993 69.5239 199.46C69.0172 198.913 68.3639 198.64 67.5639 198.64C66.7639 198.64 66.1039 198.913 65.5839 199.46C65.0639 199.993 64.8039 200.713 64.8039 201.62C64.8039 202.527 65.0639 203.253 65.5839 203.8C66.1039 204.333 66.7639 204.6 67.5639 204.6ZM89.3294 196.08C90.676 196.08 91.7427 196.48 92.5294 197.28C93.3294 198.067 93.7294 199.253 93.7294 200.84V207H90.6094V201.32C90.6094 200.467 90.4294 199.833 90.0694 199.42C89.7227 198.993 89.2227 198.78 88.5694 198.78C87.836 198.78 87.256 199.02 86.8294 199.5C86.4027 199.967 86.1894 200.667 86.1894 201.6V207H83.0694V201.32C83.0694 199.627 82.3894 198.78 81.0294 198.78C80.3094 198.78 79.736 199.02 79.3094 199.5C78.8827 199.967 78.6694 200.667 78.6694 201.6V207H75.5494V196.24H78.5294V197.48C78.9294 197.027 79.416 196.68 79.9894 196.44C80.576 196.2 81.216 196.08 81.9094 196.08C82.6694 196.08 83.356 196.233 83.9694 196.54C84.5827 196.833 85.076 197.267 85.4494 197.84C85.8894 197.28 86.4427 196.847 87.1094 196.54C87.7894 196.233 88.5294 196.08 89.3294 196.08ZM110.306 196.08C111.653 196.08 112.719 196.48 113.506 197.28C114.306 198.067 114.706 199.253 114.706 200.84V207H111.586V201.32C111.586 200.467 111.406 199.833 111.046 199.42C110.699 198.993 110.199 198.78 109.546 198.78C108.813 198.78 108.233 199.02 107.806 199.5C107.379 199.967 107.166 200.667 107.166 201.6V207H104.046V201.32C104.046 199.627 103.366 198.78 102.006 198.78C101.286 198.78 100.713 199.02 100.286 199.5C99.8593 199.967 99.6459 200.667 99.6459 201.6V207H96.5259V196.24H99.5059V197.48C99.9059 197.027 100.393 196.68 100.966 196.44C101.553 196.2 102.193 196.08 102.886 196.08C103.646 196.08 104.333 196.233 104.946 196.54C105.559 196.833 106.053 197.267 106.426 197.84C106.866 197.28 107.419 196.847 108.086 196.54C108.766 196.233 109.506 196.08 110.306 196.08ZM128.16 201.66C128.16 201.7 128.14 201.98 128.1 202.5H119.96C120.106 203.167 120.453 203.693 121 204.08C121.546 204.467 122.226 204.66 123.04 204.66C123.6 204.66 124.093 204.58 124.52 204.42C124.96 204.247 125.366 203.98 125.74 203.62L127.4 205.42C126.386 206.58 124.906 207.16 122.96 207.16C121.746 207.16 120.673 206.927 119.74 206.46C118.806 205.98 118.086 205.32 117.58 204.48C117.073 203.64 116.82 202.687 116.82 201.62C116.82 200.567 117.066 199.62 117.56 198.78C118.066 197.927 118.753 197.267 119.62 196.8C120.5 196.32 121.48 196.08 122.56 196.08C123.613 196.08 124.566 196.307 125.42 196.76C126.273 197.213 126.94 197.867 127.42 198.72C127.913 199.56 128.16 200.54 128.16 201.66ZM122.58 198.44C121.873 198.44 121.28 198.64 120.8 199.04C120.32 199.44 120.026 199.987 119.92 200.68H125.22C125.113 200 124.82 199.46 124.34 199.06C123.86 198.647 123.273 198.44 122.58 198.44ZM136.777 196.08C138.11 196.08 139.184 196.48 139.997 197.28C140.824 198.08 141.237 199.267 141.237 200.84V207H138.117V201.32C138.117 200.467 137.93 199.833 137.557 199.42C137.184 198.993 136.644 198.78 135.937 198.78C135.15 198.78 134.524 199.027 134.057 199.52C133.59 200 133.357 200.72 133.357 201.68V207H130.237V196.24H133.217V197.5C133.63 197.047 134.144 196.7 134.757 196.46C135.37 196.207 136.044 196.08 136.777 196.08ZM155.142 192.16V207H152.162V205.76C151.389 206.693 150.269 207.16 148.802 207.16C147.789 207.16 146.869 206.933 146.042 206.48C145.229 206.027 144.589 205.38 144.122 204.54C143.656 203.7 143.422 202.727 143.422 201.62C143.422 200.513 143.656 199.54 144.122 198.7C144.589 197.86 145.229 197.213 146.042 196.76C146.869 196.307 147.789 196.08 148.802 196.08C150.176 196.08 151.249 196.513 152.022 197.38V192.16H155.142ZM149.342 204.6C150.129 204.6 150.782 204.333 151.302 203.8C151.822 203.253 152.082 202.527 152.082 201.62C152.082 200.713 151.822 199.993 151.302 199.46C150.782 198.913 150.129 198.64 149.342 198.64C148.542 198.64 147.882 198.913 147.362 199.46C146.842 199.993 146.582 200.713 146.582 201.62C146.582 202.527 146.842 203.253 147.362 203.8C147.882 204.333 148.542 204.6 149.342 204.6Z" fill="white"/>
<path d="M132.66 34H135.9V45.36H142.92V48H132.66V34ZM144.51 37.24H147.63V48H144.51V37.24ZM146.07 35.74C145.497 35.74 145.03 35.5733 144.67 35.24C144.31 34.9067 144.13 34.4933 144.13 34C144.13 33.5067 144.31 33.0933 144.67 32.76C145.03 32.4267 145.497 32.26 146.07 32.26C146.644 32.26 147.11 32.42 147.47 32.74C147.83 33.06 148.01 33.46 148.01 33.94C148.01 34.46 147.83 34.8933 147.47 35.24C147.11 35.5733 146.644 35.74 146.07 35.74ZM155.146 43.78L153.646 45.26V48H150.526V33.16H153.646V41.56L158.206 37.24H161.926L157.446 41.8L162.326 48H158.546L155.146 43.78ZM173.8 42.66C173.8 42.7 173.78 42.98 173.74 43.5H165.6C165.747 44.1667 166.094 44.6933 166.64 45.08C167.187 45.4667 167.867 45.66 168.68 45.66C169.24 45.66 169.734 45.58 170.16 45.42C170.6 45.2467 171.007 44.98 171.38 44.62L173.04 46.42C172.027 47.58 170.547 48.16 168.6 48.16C167.387 48.16 166.314 47.9267 165.38 47.46C164.447 46.98 163.727 46.32 163.22 45.48C162.714 44.64 162.46 43.6867 162.46 42.62C162.46 41.5667 162.707 40.62 163.2 39.78C163.707 38.9267 164.394 38.2667 165.26 37.8C166.14 37.32 167.12 37.08 168.2 37.08C169.254 37.08 170.207 37.3067 171.06 37.76C171.914 38.2133 172.58 38.8667 173.06 39.72C173.554 40.56 173.8 41.54 173.8 42.66ZM168.22 39.44C167.514 39.44 166.92 39.64 166.44 40.04C165.96 40.44 165.667 40.9867 165.56 41.68H170.86C170.754 41 170.46 40.46 169.98 40.06C169.5 39.6467 168.914 39.44 168.22 39.44Z" fill="white"/>
<path d="M327.26 161.24C326.153 161.24 325.08 161.093 324.04 160.8C323.013 160.493 322.187 160.1 321.56 159.62L322.66 157.18C323.26 157.62 323.973 157.973 324.8 158.24C325.627 158.507 326.453 158.64 327.28 158.64C328.2 158.64 328.88 158.507 329.32 158.24C329.76 157.96 329.98 157.593 329.98 157.14C329.98 156.807 329.847 156.533 329.58 156.32C329.327 156.093 328.993 155.913 328.58 155.78C328.18 155.647 327.633 155.5 326.94 155.34C325.873 155.087 325 154.833 324.32 154.58C323.64 154.327 323.053 153.92 322.56 153.36C322.08 152.8 321.84 152.053 321.84 151.12C321.84 150.307 322.06 149.573 322.5 148.92C322.94 148.253 323.6 147.727 324.48 147.34C325.373 146.953 326.46 146.76 327.74 146.76C328.633 146.76 329.507 146.867 330.36 147.08C331.213 147.293 331.96 147.6 332.6 148L331.6 150.46C330.307 149.727 329.013 149.36 327.72 149.36C326.813 149.36 326.14 149.507 325.7 149.8C325.273 150.093 325.06 150.48 325.06 150.96C325.06 151.44 325.307 151.8 325.8 152.04C326.307 152.267 327.073 152.493 328.1 152.72C329.167 152.973 330.04 153.227 330.72 153.48C331.4 153.733 331.98 154.133 332.46 154.68C332.953 155.227 333.2 155.967 333.2 156.9C333.2 157.7 332.973 158.433 332.52 159.1C332.08 159.753 331.413 160.273 330.52 160.66C329.627 161.047 328.54 161.24 327.26 161.24ZM335.194 150.24H338.314V161H335.194V150.24ZM336.754 148.74C336.181 148.74 335.714 148.573 335.354 148.24C334.994 147.907 334.814 147.493 334.814 147C334.814 146.507 334.994 146.093 335.354 145.76C335.714 145.427 336.181 145.26 336.754 145.26C337.327 145.26 337.794 145.42 338.154 145.74C338.514 146.06 338.694 146.46 338.694 146.94C338.694 147.46 338.514 147.893 338.154 148.24C337.794 148.573 337.327 148.74 336.754 148.74ZM354.99 150.08C356.336 150.08 357.403 150.48 358.19 151.28C358.99 152.067 359.39 153.253 359.39 154.84V161H356.27V155.32C356.27 154.467 356.09 153.833 355.73 153.42C355.383 152.993 354.883 152.78 354.23 152.78C353.496 152.78 352.916 153.02 352.49 153.5C352.063 153.967 351.85 154.667 351.85 155.6V161H348.73V155.32C348.73 153.627 348.05 152.78 346.69 152.78C345.97 152.78 345.396 153.02 344.97 153.5C344.543 153.967 344.33 154.667 344.33 155.6V161H341.21V150.24H344.19V151.48C344.59 151.027 345.076 150.68 345.65 150.44C346.236 150.2 346.876 150.08 347.57 150.08C348.33 150.08 349.016 150.233 349.63 150.54C350.243 150.833 350.736 151.267 351.11 151.84C351.55 151.28 352.103 150.847 352.77 150.54C353.45 150.233 354.19 150.08 354.99 150.08ZM362.186 150.24H365.306V161H362.186V150.24ZM363.746 148.74C363.173 148.74 362.706 148.573 362.346 148.24C361.986 147.907 361.806 147.493 361.806 147C361.806 146.507 361.986 146.093 362.346 145.76C362.706 145.427 363.173 145.26 363.746 145.26C364.319 145.26 364.786 145.42 365.146 145.74C365.506 146.06 365.686 146.46 365.686 146.94C365.686 147.46 365.506 147.893 365.146 148.24C364.786 148.573 364.319 148.74 363.746 148.74ZM368.202 146.16H371.322V161H368.202V146.16ZM378.557 150.08C380.224 150.08 381.504 150.48 382.397 151.28C383.291 152.067 383.737 153.26 383.737 154.86V161H380.817V159.66C380.231 160.66 379.137 161.16 377.537 161.16C376.711 161.16 375.991 161.02 375.377 160.74C374.777 160.46 374.317 160.073 373.997 159.58C373.677 159.087 373.517 158.527 373.517 157.9C373.517 156.9 373.891 156.113 374.637 155.54C375.397 154.967 376.564 154.68 378.137 154.68H380.617C380.617 154 380.411 153.48 379.997 153.12C379.584 152.747 378.964 152.56 378.137 152.56C377.564 152.56 376.997 152.653 376.437 152.84C375.891 153.013 375.424 153.253 375.037 153.56L373.917 151.38C374.504 150.967 375.204 150.647 376.017 150.42C376.844 150.193 377.691 150.08 378.557 150.08ZM378.317 159.06C378.851 159.06 379.324 158.94 379.737 158.7C380.151 158.447 380.444 158.08 380.617 157.6V156.5H378.477C377.197 156.5 376.557 156.92 376.557 157.76C376.557 158.16 376.711 158.48 377.017 158.72C377.337 158.947 377.771 159.06 378.317 159.06ZM389.541 151.66C389.914 151.14 390.414 150.747 391.041 150.48C391.681 150.213 392.414 150.08 393.241 150.08V152.96C392.894 152.933 392.661 152.92 392.541 152.92C391.648 152.92 390.948 153.173 390.441 153.68C389.934 154.173 389.681 154.92 389.681 155.92V161H386.561V150.24H389.541V151.66Z" fill="white"/>
<path d="M264.688 269.4H256.888L255.4 273H251.416L258.904 256.2H262.744L270.256 273H266.176L264.688 269.4ZM263.464 266.448L260.8 260.016L258.136 266.448H263.464ZM271.735 255.192H275.479V273H271.735V255.192ZM286.586 259.896C287.786 259.896 288.874 260.176 289.85 260.736C290.842 261.28 291.618 262.056 292.178 263.064C292.738 264.056 293.018 265.216 293.018 266.544C293.018 267.872 292.738 269.04 292.178 270.048C291.618 271.04 290.842 271.816 289.85 272.376C288.874 272.92 287.786 273.192 286.586 273.192C284.81 273.192 283.458 272.632 282.53 271.512V273H278.954V255.192H282.698V261.456C283.642 260.416 284.938 259.896 286.586 259.896ZM285.938 270.12C286.898 270.12 287.682 269.8 288.29 269.16C288.914 268.504 289.226 267.632 289.226 266.544C289.226 265.456 288.914 264.592 288.29 263.952C287.682 263.296 286.898 262.968 285.938 262.968C284.978 262.968 284.186 263.296 283.562 263.952C282.954 264.592 282.65 265.456 282.65 266.544C282.65 267.632 282.954 268.504 283.562 269.16C284.186 269.8 284.978 270.12 285.938 270.12ZM308.532 260.088V273H304.98V271.464C304.484 272.024 303.892 272.456 303.204 272.76C302.516 273.048 301.772 273.192 300.972 273.192C299.276 273.192 297.932 272.704 296.94 271.728C295.948 270.752 295.452 269.304 295.452 267.384V260.088H299.196V266.832C299.196 268.912 300.068 269.952 301.812 269.952C302.708 269.952 303.428 269.664 303.972 269.088C304.516 268.496 304.788 267.624 304.788 266.472V260.088H308.532ZM328.537 259.896C330.153 259.896 331.433 260.376 332.377 261.336C333.337 262.28 333.817 263.704 333.817 265.608V273H330.073V266.184C330.073 265.16 329.857 264.4 329.425 263.904C329.009 263.392 328.409 263.136 327.625 263.136C326.745 263.136 326.049 263.424 325.537 264C325.025 264.56 324.769 265.4 324.769 266.52V273H321.025V266.184C321.025 264.152 320.209 263.136 318.577 263.136C317.713 263.136 317.025 263.424 316.513 264C316.001 264.56 315.745 265.4 315.745 266.52V273H312.001V260.088H315.577V261.576C316.057 261.032 316.641 260.616 317.329 260.328C318.033 260.04 318.801 259.896 319.633 259.896C320.545 259.896 321.369 260.08 322.105 260.448C322.841 260.8 323.433 261.32 323.881 262.008C324.409 261.336 325.073 260.816 325.873 260.448C326.689 260.08 327.577 259.896 328.537 259.896ZM355.73 269.832V273H343.034V270.48L349.514 264.36C350.202 263.704 350.666 263.144 350.906 262.68C351.146 262.2 351.266 261.728 351.266 261.264C351.266 260.592 351.034 260.08 350.57 259.728C350.122 259.36 349.458 259.176 348.578 259.176C347.842 259.176 347.178 259.32 346.586 259.608C345.994 259.88 345.498 260.296 345.098 260.856L342.266 259.032C342.922 258.056 343.826 257.296 344.978 256.752C346.13 256.192 347.45 255.912 348.938 255.912C350.186 255.912 351.274 256.12 352.202 256.536C353.146 256.936 353.874 257.512 354.386 258.264C354.914 259 355.178 259.872 355.178 260.88C355.178 261.792 354.986 262.648 354.602 263.448C354.218 264.248 353.474 265.16 352.37 266.184L348.506 269.832H355.73Z" fill="white"/>
<path d="M119 58.0001L187.743 57.7506L119 58.0001Z" fill="white"/>
<path d="M119 58.0001L187.743 57.7506" stroke="white" stroke-width="1.61765" stroke-miterlimit="10"/>
<path d="M196.238 57.7094L184.943 63.4309L187.743 57.7505L184.888 52.0977L196.238 57.7094Z" fill="white" stroke="white" stroke-width="1.61765" stroke-miterlimit="10"/>
<path d="M202 216L98.3452 119.848L202 216Z" fill="white"/>
<path d="M202 216L98.3452 119.848" stroke="white" stroke-width="1.61765" stroke-miterlimit="10" stroke-dasharray="4.85 4.85"/>
<path d="M92.2509 113L104.976 118.178L98.3453 119.848L95.7643 126.087L92.2509 113Z" fill="white" stroke="white" stroke-width="1.61765" stroke-miterlimit="10"/>
</svg>
