<svg width="374" height="50" viewBox="0 0 374 50" fill="none" xmlns="http://www.w3.org/2000/svg">
<path d="M82.032 33.288C80.32 33.288 78.768 32.92 77.376 32.184C76 31.432 74.912 30.4 74.112 29.088C73.328 27.76 72.936 26.264 72.936 24.6C72.936 22.936 73.328 21.448 74.112 20.136C74.912 18.808 76 17.776 77.376 17.04C78.768 16.288 80.328 15.912 82.056 15.912C83.512 15.912 84.824 16.168 85.992 16.68C87.176 17.192 88.168 17.928 88.968 18.888L86.472 21.192C85.336 19.88 83.928 19.224 82.248 19.224C81.208 19.224 80.28 19.456 79.464 19.92C78.648 20.368 78.008 21 77.544 21.816C77.096 22.632 76.872 23.56 76.872 24.6C76.872 25.64 77.096 26.568 77.544 27.384C78.008 28.2 78.648 28.84 79.464 29.304C80.28 29.752 81.208 29.976 82.248 29.976C83.928 29.976 85.336 29.312 86.472 27.984L88.968 30.288C88.168 31.264 87.176 32.008 85.992 32.52C84.808 33.032 83.488 33.288 82.032 33.288ZM97.0283 33.192C95.6683 33.192 94.4443 32.912 93.3563 32.352C92.2843 31.776 91.4443 30.984 90.8363 29.976C90.2283 28.968 89.9243 27.824 89.9243 26.544C89.9243 25.264 90.2283 24.12 90.8363 23.112C91.4443 22.104 92.2843 21.32 93.3563 20.76C94.4443 20.184 95.6683 19.896 97.0283 19.896C98.3883 19.896 99.6043 20.184 100.676 20.76C101.748 21.32 102.588 22.104 103.196 23.112C103.804 24.12 104.108 25.264 104.108 26.544C104.108 27.824 103.804 28.968 103.196 29.976C102.588 30.984 101.748 31.776 100.676 32.352C99.6043 32.912 98.3883 33.192 97.0283 33.192ZM97.0283 30.12C97.9883 30.12 98.7723 29.8 99.3803 29.16C100.004 28.504 100.316 27.632 100.316 26.544C100.316 25.456 100.004 24.592 99.3803 23.952C98.7723 23.296 97.9883 22.968 97.0283 22.968C96.0683 22.968 95.2763 23.296 94.6523 23.952C94.0283 24.592 93.7163 25.456 93.7163 26.544C93.7163 27.632 94.0283 28.504 94.6523 29.16C95.2763 29.8 96.0683 30.12 97.0283 30.12ZM114.459 19.896C116.059 19.896 117.347 20.376 118.323 21.336C119.315 22.296 119.811 23.72 119.811 25.608V33H116.067V26.184C116.067 25.16 115.843 24.4 115.395 23.904C114.947 23.392 114.299 23.136 113.451 23.136C112.507 23.136 111.755 23.432 111.195 24.024C110.635 24.6 110.355 25.464 110.355 26.616V33H106.611V20.088H110.187V21.6C110.683 21.056 111.299 20.64 112.035 20.352C112.771 20.048 113.579 19.896 114.459 19.896ZM131.533 32.376C131.165 32.648 130.709 32.856 130.165 33C129.637 33.128 129.077 33.192 128.485 33.192C126.949 33.192 125.757 32.8 124.909 32.016C124.077 31.232 123.661 30.08 123.661 28.56V23.256H121.669V20.376H123.661V17.232H127.405V20.376H130.621V23.256H127.405V28.512C127.405 29.056 127.541 29.48 127.813 29.784C128.101 30.072 128.501 30.216 129.013 30.216C129.605 30.216 130.109 30.056 130.525 29.736L131.533 32.376ZM145.884 26.592C145.884 26.64 145.86 26.976 145.812 27.6H136.044C136.22 28.4 136.636 29.032 137.292 29.496C137.948 29.96 138.764 30.192 139.74 30.192C140.412 30.192 141.004 30.096 141.516 29.904C142.044 29.696 142.532 29.376 142.98 28.944L144.972 31.104C143.756 32.496 141.98 33.192 139.644 33.192C138.188 33.192 136.9 32.912 135.78 32.352C134.66 31.776 133.796 30.984 133.188 29.976C132.58 28.968 132.276 27.824 132.276 26.544C132.276 25.28 132.572 24.144 133.164 23.136C133.772 22.112 134.596 21.32 135.636 20.76C136.692 20.184 137.868 19.896 139.164 19.896C140.428 19.896 141.572 20.168 142.596 20.712C143.62 21.256 144.42 22.04 144.996 23.064C145.588 24.072 145.884 25.248 145.884 26.592ZM139.188 22.728C138.34 22.728 137.628 22.968 137.052 23.448C136.476 23.928 136.124 24.584 135.996 25.416H142.356C142.228 24.6 141.876 23.952 141.3 23.472C140.724 22.976 140.02 22.728 139.188 22.728ZM156.224 19.896C157.824 19.896 159.112 20.376 160.088 21.336C161.08 22.296 161.576 23.72 161.576 25.608V33H157.832V26.184C157.832 25.16 157.608 24.4 157.16 23.904C156.712 23.392 156.064 23.136 155.216 23.136C154.272 23.136 153.52 23.432 152.96 24.024C152.4 24.6 152.12 25.464 152.12 26.616V33H148.376V20.088H151.952V21.6C152.448 21.056 153.064 20.64 153.8 20.352C154.536 20.048 155.344 19.896 156.224 19.896ZM173.298 32.376C172.93 32.648 172.474 32.856 171.93 33C171.402 33.128 170.842 33.192 170.25 33.192C168.714 33.192 167.522 32.8 166.674 32.016C165.842 31.232 165.426 30.08 165.426 28.56V23.256H163.434V20.376H165.426V17.232H169.17V20.376H172.386V23.256H169.17V28.512C169.17 29.056 169.306 29.48 169.578 29.784C169.866 30.072 170.266 30.216 170.778 30.216C171.37 30.216 171.874 30.056 172.29 29.736L173.298 32.376ZM174.686 24.744H181.478V27.744H174.686V24.744ZM197.023 24.264C197.983 24.568 198.735 25.08 199.279 25.8C199.823 26.504 200.095 27.376 200.095 28.416C200.095 29.888 199.519 31.024 198.367 31.824C197.231 32.608 195.567 33 193.375 33H184.687V16.2H192.895C194.943 16.2 196.511 16.592 197.599 17.376C198.703 18.16 199.255 19.224 199.255 20.568C199.255 21.384 199.055 22.112 198.655 22.752C198.271 23.392 197.727 23.896 197.023 24.264ZM188.551 19.128V23.088H192.415C193.375 23.088 194.103 22.92 194.599 22.584C195.095 22.248 195.343 21.752 195.343 21.096C195.343 20.44 195.095 19.952 194.599 19.632C194.103 19.296 193.375 19.128 192.415 19.128H188.551ZM193.087 30.072C194.111 30.072 194.879 29.904 195.391 29.568C195.919 29.232 196.183 28.712 196.183 28.008C196.183 26.616 195.151 25.92 193.087 25.92H188.551V30.072H193.087ZM207.983 19.896C209.983 19.896 211.519 20.376 212.591 21.336C213.663 22.28 214.199 23.712 214.199 25.632V33H210.695V31.392C209.991 32.592 208.679 33.192 206.759 33.192C205.767 33.192 204.903 33.024 204.167 32.688C203.447 32.352 202.895 31.888 202.511 31.296C202.127 30.704 201.935 30.032 201.935 29.28C201.935 28.08 202.383 27.136 203.279 26.448C204.191 25.76 205.591 25.416 207.479 25.416H210.455C210.455 24.6 210.207 23.976 209.711 23.544C209.215 23.096 208.471 22.872 207.479 22.872C206.791 22.872 206.111 22.984 205.439 23.208C204.783 23.416 204.223 23.704 203.759 24.072L202.415 21.456C203.119 20.96 203.959 20.576 204.935 20.304C205.927 20.032 206.943 19.896 207.983 19.896ZM207.695 30.672C208.335 30.672 208.903 30.528 209.399 30.24C209.895 29.936 210.247 29.496 210.455 28.92V27.6H207.887C206.351 27.6 205.583 28.104 205.583 29.112C205.583 29.592 205.767 29.976 206.135 30.264C206.519 30.536 207.039 30.672 207.695 30.672ZM221.931 33.192C220.859 33.192 219.811 33.064 218.787 32.808C217.763 32.536 216.947 32.2 216.339 31.8L217.587 29.112C218.163 29.48 218.859 29.784 219.675 30.024C220.491 30.248 221.291 30.36 222.075 30.36C223.659 30.36 224.451 29.968 224.451 29.184C224.451 28.816 224.235 28.552 223.803 28.392C223.371 28.232 222.707 28.096 221.811 27.984C220.755 27.824 219.883 27.64 219.195 27.432C218.507 27.224 217.907 26.856 217.395 26.328C216.899 25.8 216.651 25.048 216.651 24.072C216.651 23.256 216.883 22.536 217.347 21.912C217.827 21.272 218.515 20.776 219.411 20.424C220.323 20.072 221.395 19.896 222.627 19.896C223.539 19.896 224.443 20 225.339 20.208C226.251 20.4 227.003 20.672 227.595 21.024L226.347 23.688C225.211 23.048 223.971 22.728 222.627 22.728C221.827 22.728 221.227 22.84 220.827 23.064C220.427 23.288 220.227 23.576 220.227 23.928C220.227 24.328 220.443 24.608 220.875 24.768C221.307 24.928 221.995 25.08 222.939 25.224C223.995 25.4 224.859 25.592 225.531 25.8C226.203 25.992 226.787 26.352 227.283 26.88C227.779 27.408 228.027 28.144 228.027 29.088C228.027 29.888 227.787 30.6 227.307 31.224C226.827 31.848 226.123 32.336 225.195 32.688C224.283 33.024 223.195 33.192 221.931 33.192ZM242.985 26.592C242.985 26.64 242.961 26.976 242.913 27.6H233.145C233.321 28.4 233.737 29.032 234.393 29.496C235.049 29.96 235.865 30.192 236.841 30.192C237.513 30.192 238.105 30.096 238.617 29.904C239.145 29.696 239.633 29.376 240.081 28.944L242.073 31.104C240.857 32.496 239.081 33.192 236.745 33.192C235.289 33.192 234.001 32.912 232.881 32.352C231.761 31.776 230.897 30.984 230.289 29.976C229.681 28.968 229.377 27.824 229.377 26.544C229.377 25.28 229.673 24.144 230.265 23.136C230.873 22.112 231.697 21.32 232.737 20.76C233.793 20.184 234.969 19.896 236.265 19.896C237.529 19.896 238.673 20.168 239.697 20.712C240.721 21.256 241.521 22.04 242.097 23.064C242.689 24.072 242.985 25.248 242.985 26.592ZM236.289 22.728C235.441 22.728 234.729 22.968 234.153 23.448C233.577 23.928 233.225 24.584 233.097 25.416H239.457C239.329 24.6 238.977 23.952 238.401 23.472C237.825 22.976 237.121 22.728 236.289 22.728ZM258.63 15.192V33H255.054V31.512C254.126 32.632 252.782 33.192 251.022 33.192C249.806 33.192 248.702 32.92 247.71 32.376C246.734 31.832 245.966 31.056 245.406 30.048C244.846 29.04 244.566 27.872 244.566 26.544C244.566 25.216 244.846 24.048 245.406 23.04C245.966 22.032 246.734 21.256 247.71 20.712C248.702 20.168 249.806 19.896 251.022 19.896C252.67 19.896 253.958 20.416 254.886 21.456V15.192H258.63ZM251.67 30.12C252.614 30.12 253.398 29.8 254.022 29.16C254.646 28.504 254.958 27.632 254.958 26.544C254.958 25.456 254.646 24.592 254.022 23.952C253.398 23.296 252.614 22.968 251.67 22.968C250.71 22.968 249.918 23.296 249.294 23.952C248.67 24.592 248.358 25.456 248.358 26.544C248.358 27.632 248.67 28.504 249.294 29.16C249.918 29.8 250.71 30.12 251.67 30.12ZM273.044 19.32V23.76H280.82V26.88H273.044V33H269.156V16.2H281.852V19.32H273.044ZM283.986 20.088H287.73V33H283.986V20.088ZM285.858 18.288C285.17 18.288 284.61 18.088 284.178 17.688C283.746 17.288 283.53 16.792 283.53 16.2C283.53 15.608 283.746 15.112 284.178 14.712C284.61 14.312 285.17 14.112 285.858 14.112C286.546 14.112 287.106 14.304 287.538 14.688C287.97 15.072 288.186 15.552 288.186 16.128C288.186 16.752 287.97 17.272 287.538 17.688C287.106 18.088 286.546 18.288 285.858 18.288ZM291.205 15.192H294.949V33H291.205V15.192ZM307.689 32.376C307.321 32.648 306.865 32.856 306.321 33C305.793 33.128 305.233 33.192 304.641 33.192C303.105 33.192 301.913 32.8 301.065 32.016C300.233 31.232 299.817 30.08 299.817 28.56V23.256H297.825V20.376H299.817V17.232H303.561V20.376H306.777V23.256H303.561V28.512C303.561 29.056 303.697 29.48 303.969 29.784C304.257 30.072 304.657 30.216 305.169 30.216C305.761 30.216 306.265 30.056 306.681 29.736L307.689 32.376ZM322.04 26.592C322.04 26.64 322.016 26.976 321.968 27.6H312.2C312.376 28.4 312.792 29.032 313.448 29.496C314.104 29.96 314.92 30.192 315.896 30.192C316.568 30.192 317.16 30.096 317.672 29.904C318.2 29.696 318.688 29.376 319.136 28.944L321.128 31.104C319.912 32.496 318.136 33.192 315.8 33.192C314.344 33.192 313.056 32.912 311.936 32.352C310.816 31.776 309.952 30.984 309.344 29.976C308.736 28.968 308.432 27.824 308.432 26.544C308.432 25.28 308.728 24.144 309.32 23.136C309.928 22.112 310.752 21.32 311.792 20.76C312.848 20.184 314.024 19.896 315.32 19.896C316.584 19.896 317.728 20.168 318.752 20.712C319.776 21.256 320.576 22.04 321.152 23.064C321.744 24.072 322.04 25.248 322.04 26.592ZM315.344 22.728C314.496 22.728 313.784 22.968 313.208 23.448C312.632 23.928 312.28 24.584 312.152 25.416H318.512C318.384 24.6 318.032 23.952 317.456 23.472C316.88 22.976 316.176 22.728 315.344 22.728ZM328.109 21.792C328.557 21.168 329.157 20.696 329.909 20.376C330.677 20.056 331.557 19.896 332.549 19.896V23.352C332.133 23.32 331.853 23.304 331.709 23.304C330.637 23.304 329.797 23.608 329.189 24.216C328.581 24.808 328.277 25.704 328.277 26.904V33H324.533V20.088H328.109V21.792ZM334.775 20.088H338.519V33H334.775V20.088ZM336.647 18.288C335.959 18.288 335.399 18.088 334.967 17.688C334.535 17.288 334.319 16.792 334.319 16.2C334.319 15.608 334.535 15.112 334.967 14.712C335.399 14.312 335.959 14.112 336.647 14.112C337.335 14.112 337.895 14.304 338.327 14.688C338.759 15.072 338.975 15.552 338.975 16.128C338.975 16.752 338.759 17.272 338.327 17.688C337.895 18.088 337.335 18.288 336.647 18.288ZM349.842 19.896C351.442 19.896 352.73 20.376 353.706 21.336C354.698 22.296 355.194 23.72 355.194 25.608V33H351.45V26.184C351.45 25.16 351.226 24.4 350.778 23.904C350.33 23.392 349.682 23.136 348.834 23.136C347.89 23.136 347.138 23.432 346.578 24.024C346.018 24.6 345.738 25.464 345.738 26.616V33H341.994V20.088H345.57V21.6C346.066 21.056 346.682 20.64 347.418 20.352C348.154 20.048 348.962 19.896 349.842 19.896ZM372.048 20.088V30.84C372.048 33.208 371.432 34.968 370.2 36.12C368.968 37.272 367.168 37.848 364.8 37.848C363.552 37.848 362.368 37.696 361.248 37.392C360.128 37.088 359.2 36.648 358.464 36.072L359.952 33.384C360.496 33.832 361.184 34.184 362.016 34.44C362.848 34.712 363.68 34.848 364.512 34.848C365.808 34.848 366.76 34.552 367.368 33.96C367.992 33.384 368.304 32.504 368.304 31.32V30.768C367.328 31.84 365.968 32.376 364.224 32.376C363.04 32.376 361.952 32.12 360.96 31.608C359.984 31.08 359.208 30.344 358.632 29.4C358.056 28.456 357.768 27.368 357.768 26.136C357.768 24.904 358.056 23.816 358.632 22.872C359.208 21.928 359.984 21.2 360.96 20.688C361.952 20.16 363.04 19.896 364.224 19.896C366.096 19.896 367.52 20.512 368.496 21.744V20.088H372.048ZM364.968 29.304C365.96 29.304 366.768 29.016 367.392 28.44C368.032 27.848 368.352 27.08 368.352 26.136C368.352 25.192 368.032 24.432 367.392 23.856C366.768 23.264 365.96 22.968 364.968 22.968C363.976 22.968 363.16 23.264 362.52 23.856C361.88 24.432 361.56 25.192 361.56 26.136C361.56 27.08 361.88 27.848 362.52 28.44C363.16 29.016 363.976 29.304 364.968 29.304Z" fill="white"/>
<path d="M5.26316 28.9474C5.26316 31.2281 5.72368 33.3882 6.64474 35.4276C7.56579 37.4671 8.88158 39.2544 10.5921 40.7895C10.5482 40.5702 10.5263 40.3728 10.5263 40.1974V39.6053C10.5263 38.2018 10.7895 36.886 11.3158 35.6579C11.8421 34.4298 12.6096 33.3114 13.6184 32.3026L21.0526 25L28.4868 32.3026C29.4956 33.3114 30.2632 34.4298 30.7895 35.6579C31.3158 36.886 31.5789 38.2018 31.5789 39.6053V40.1974C31.5789 40.3728 31.557 40.5702 31.5132 40.7895C33.2237 39.2544 34.5395 37.4671 35.4605 35.4276C36.3816 33.3882 36.8421 31.2281 36.8421 28.9474C36.8421 26.7544 36.4364 24.682 35.625 22.7303C34.8136 20.7785 33.6404 19.0351 32.1053 17.5C31.2281 18.0702 30.307 18.4978 29.3421 18.7829C28.3772 19.068 27.3904 19.2105 26.3816 19.2105C23.6623 19.2105 21.3048 18.3114 19.3092 16.5132C17.3136 14.7149 16.1623 12.5 15.8553 9.86842C14.1447 11.3158 12.6316 12.818 11.3158 14.375C10 15.932 8.89254 17.511 7.99342 19.1118C7.0943 20.7127 6.41447 22.3465 5.95395 24.0132C5.49342 25.6798 5.26316 27.3246 5.26316 28.9474ZM21.0526 32.3684L17.3026 36.0526C16.8202 36.5351 16.4474 37.0833 16.1842 37.6974C15.9211 38.3114 15.7895 38.9474 15.7895 39.6053C15.7895 41.0088 16.3048 42.2149 17.3355 43.2237C18.3662 44.2325 19.6053 44.7368 21.0526 44.7368C22.5 44.7368 23.739 44.2325 24.7697 43.2237C25.8004 42.2149 26.3158 41.0088 26.3158 39.6053C26.3158 38.9035 26.1842 38.2566 25.9211 37.6645C25.6579 37.0724 25.2851 36.5351 24.8026 36.0526L21.0526 32.3684ZM21.0526 0V8.68421C21.0526 10.1754 21.568 11.4254 22.5987 12.4342C23.6294 13.443 24.8904 13.9474 26.3816 13.9474C27.1711 13.9474 27.9057 13.7829 28.5855 13.4539C29.2654 13.125 29.8684 12.6316 30.3947 11.9737L31.5789 10.5263C34.8246 12.3684 37.3904 14.9342 39.2763 18.2237C41.1623 21.5132 42.1053 25.0877 42.1053 28.9474C42.1053 34.8246 40.0658 39.8026 35.9868 43.8816C31.9079 47.9605 26.9298 50 21.0526 50C15.1754 50 10.1974 47.9605 6.11842 43.8816C2.03947 39.8026 0 34.8246 0 28.9474C0 23.2895 1.89693 17.9167 5.69079 12.8289C9.48465 7.74123 14.6053 3.46491 21.0526 0Z" fill="white"/>
</svg>
