<svg width="212" height="50" viewBox="0 0 212 50" fill="none" xmlns="http://www.w3.org/2000/svg">
<path d="M40.8333 43.75L27.7083 30.625C26.6667 31.4583 25.4688 32.1181 24.1146 32.6042C22.7604 33.0903 21.3194 33.3333 19.7917 33.3333C16.0069 33.3333 12.8038 32.0226 10.1823 29.401C7.56076 26.7795 6.25 23.5764 6.25 19.7917C6.25 16.0069 7.56076 12.8038 10.1823 10.1823C12.8038 7.56076 16.0069 6.25 19.7917 6.25C23.5764 6.25 26.7795 7.56076 29.401 10.1823C32.0226 12.8038 33.3333 16.0069 33.3333 19.7917C33.3333 21.3194 33.0903 22.7604 32.6042 24.1146C32.1181 25.4688 31.4583 26.6667 30.625 27.7083L43.75 40.8333L40.8333 43.75ZM19.7917 29.1667C22.3958 29.1667 24.6094 28.2552 26.4323 26.4323C28.2552 24.6094 29.1667 22.3958 29.1667 19.7917C29.1667 17.1875 28.2552 14.974 26.4323 13.151C24.6094 11.3281 22.3958 10.4167 19.7917 10.4167C17.1875 10.4167 14.974 11.3281 13.151 13.151C11.3281 14.974 10.4167 17.1875 10.4167 19.7917C10.4167 22.3958 11.3281 24.6094 13.151 26.4323C14.974 28.2552 17.1875 29.1667 19.7917 29.1667Z" fill="white"/>
<path d="M98 29.88V33H84.992V16.2H97.688V19.32H88.856V22.968H96.656V25.992H88.856V29.88H98ZM106.374 27.936L104.574 29.712V33H100.83V15.192H104.574V25.272L110.046 20.088H114.51L109.134 25.56L114.99 33H110.454L106.374 27.936ZM120.595 33.192C119.523 33.192 118.475 33.064 117.451 32.808C116.427 32.536 115.611 32.2 115.003 31.8L116.251 29.112C116.827 29.48 117.523 29.784 118.339 30.024C119.155 30.248 119.955 30.36 120.739 30.36C122.323 30.36 123.115 29.968 123.115 29.184C123.115 28.816 122.899 28.552 122.467 28.392C122.035 28.232 121.371 28.096 120.475 27.984C119.419 27.824 118.547 27.64 117.859 27.432C117.171 27.224 116.571 26.856 116.059 26.328C115.563 25.8 115.315 25.048 115.315 24.072C115.315 23.256 115.547 22.536 116.011 21.912C116.491 21.272 117.179 20.776 118.075 20.424C118.987 20.072 120.059 19.896 121.291 19.896C122.203 19.896 123.107 20 124.003 20.208C124.915 20.4 125.667 20.672 126.259 21.024L125.011 23.688C123.875 23.048 122.635 22.728 121.291 22.728C120.491 22.728 119.891 22.84 119.491 23.064C119.091 23.288 118.891 23.576 118.891 23.928C118.891 24.328 119.107 24.608 119.539 24.768C119.971 24.928 120.659 25.08 121.603 25.224C122.659 25.4 123.523 25.592 124.195 25.8C124.867 25.992 125.451 26.352 125.947 26.88C126.443 27.408 126.691 28.144 126.691 29.088C126.691 29.888 126.451 30.6 125.971 31.224C125.491 31.848 124.787 32.336 123.859 32.688C122.947 33.024 121.859 33.192 120.595 33.192ZM136.633 19.896C137.833 19.896 138.921 20.176 139.897 20.736C140.889 21.28 141.665 22.056 142.225 23.064C142.785 24.056 143.065 25.216 143.065 26.544C143.065 27.872 142.785 29.04 142.225 30.048C141.665 31.04 140.889 31.816 139.897 32.376C138.921 32.92 137.833 33.192 136.633 33.192C134.985 33.192 133.689 32.672 132.745 31.632V37.656H129.001V20.088H132.577V21.576C133.505 20.456 134.857 19.896 136.633 19.896ZM135.985 30.12C136.945 30.12 137.729 29.8 138.337 29.16C138.961 28.504 139.273 27.632 139.273 26.544C139.273 25.456 138.961 24.592 138.337 23.952C137.729 23.296 136.945 22.968 135.985 22.968C135.025 22.968 134.233 23.296 133.609 23.952C133.001 24.592 132.697 25.456 132.697 26.544C132.697 27.632 133.001 28.504 133.609 29.16C134.233 29.8 135.025 30.12 135.985 30.12ZM145.572 15.192H149.316V33H145.572V15.192ZM158.935 33.192C157.575 33.192 156.351 32.912 155.263 32.352C154.191 31.776 153.351 30.984 152.743 29.976C152.135 28.968 151.831 27.824 151.831 26.544C151.831 25.264 152.135 24.12 152.743 23.112C153.351 22.104 154.191 21.32 155.263 20.76C156.351 20.184 157.575 19.896 158.935 19.896C160.295 19.896 161.511 20.184 162.583 20.76C163.655 21.32 164.495 22.104 165.103 23.112C165.711 24.12 166.015 25.264 166.015 26.544C166.015 27.824 165.711 28.968 165.103 29.976C164.495 30.984 163.655 31.776 162.583 32.352C161.511 32.912 160.295 33.192 158.935 33.192ZM158.935 30.12C159.895 30.12 160.679 29.8 161.287 29.16C161.911 28.504 162.223 27.632 162.223 26.544C162.223 25.456 161.911 24.592 161.287 23.952C160.679 23.296 159.895 22.968 158.935 22.968C157.975 22.968 157.183 23.296 156.559 23.952C155.935 24.592 155.623 25.456 155.623 26.544C155.623 27.632 155.935 28.504 156.559 29.16C157.183 29.8 157.975 30.12 158.935 30.12ZM172.093 21.792C172.541 21.168 173.141 20.696 173.893 20.376C174.661 20.056 175.541 19.896 176.533 19.896V23.352C176.117 23.32 175.837 23.304 175.693 23.304C174.621 23.304 173.781 23.608 173.173 24.216C172.565 24.808 172.261 25.704 172.261 26.904V33H168.517V20.088H172.093V21.792ZM183.897 19.896C185.897 19.896 187.433 20.376 188.505 21.336C189.577 22.28 190.113 23.712 190.113 25.632V33H186.609V31.392C185.905 32.592 184.593 33.192 182.673 33.192C181.681 33.192 180.817 33.024 180.081 32.688C179.361 32.352 178.809 31.888 178.425 31.296C178.041 30.704 177.849 30.032 177.849 29.28C177.849 28.08 178.297 27.136 179.193 26.448C180.105 25.76 181.505 25.416 183.393 25.416H186.369C186.369 24.6 186.121 23.976 185.625 23.544C185.129 23.096 184.385 22.872 183.393 22.872C182.705 22.872 182.025 22.984 181.353 23.208C180.697 23.416 180.137 23.704 179.673 24.072L178.329 21.456C179.033 20.96 179.873 20.576 180.849 20.304C181.841 20.032 182.857 19.896 183.897 19.896ZM183.609 30.672C184.249 30.672 184.817 30.528 185.313 30.24C185.809 29.936 186.161 29.496 186.369 28.92V27.6H183.801C182.265 27.6 181.497 28.104 181.497 29.112C181.497 29.592 181.681 29.976 182.049 30.264C182.433 30.536 182.953 30.672 183.609 30.672ZM197.845 33.192C196.773 33.192 195.725 33.064 194.701 32.808C193.677 32.536 192.861 32.2 192.253 31.8L193.501 29.112C194.077 29.48 194.773 29.784 195.589 30.024C196.405 30.248 197.205 30.36 197.989 30.36C199.573 30.36 200.365 29.968 200.365 29.184C200.365 28.816 200.149 28.552 199.717 28.392C199.285 28.232 198.621 28.096 197.725 27.984C196.669 27.824 195.797 27.64 195.109 27.432C194.421 27.224 193.821 26.856 193.309 26.328C192.813 25.8 192.565 25.048 192.565 24.072C192.565 23.256 192.797 22.536 193.261 21.912C193.741 21.272 194.429 20.776 195.325 20.424C196.237 20.072 197.309 19.896 198.541 19.896C199.453 19.896 200.357 20 201.253 20.208C202.165 20.4 202.917 20.672 203.509 21.024L202.261 23.688C201.125 23.048 199.885 22.728 198.541 22.728C197.741 22.728 197.141 22.84 196.741 23.064C196.341 23.288 196.141 23.576 196.141 23.928C196.141 24.328 196.357 24.608 196.789 24.768C197.221 24.928 197.909 25.08 198.853 25.224C199.909 25.4 200.773 25.592 201.445 25.8C202.117 25.992 202.701 26.352 203.197 26.88C203.693 27.408 203.941 28.144 203.941 29.088C203.941 29.888 203.701 30.6 203.221 31.224C202.741 31.848 202.037 32.336 201.109 32.688C200.197 33.024 199.109 33.192 197.845 33.192ZM206.251 20.088H209.995V33H206.251V20.088ZM208.123 18.288C207.435 18.288 206.875 18.088 206.443 17.688C206.011 17.288 205.795 16.792 205.795 16.2C205.795 15.608 206.011 15.112 206.443 14.712C206.875 14.312 207.435 14.112 208.123 14.112C208.811 14.112 209.371 14.304 209.803 14.688C210.235 15.072 210.451 15.552 210.451 16.128C210.451 16.752 210.235 17.272 209.803 17.688C209.371 18.088 208.811 18.288 208.123 18.288Z" fill="white"/>
</svg>
