<svg width="417" height="48" viewBox="0 0 417 48" fill="none" xmlns="http://www.w3.org/2000/svg">
<path d="M107.408 30.736L107.3 27.496L122.564 11.8H125.624L114.5 23.464L112.988 25.084L107.408 30.736ZM105.104 37V11.8H107.768V37H105.104ZM123.212 37L112.34 24.472L114.14 22.528L126.38 37H123.212ZM137.307 37.18C135.339 37.18 133.611 36.772 132.123 35.956C130.635 35.116 129.471 33.976 128.631 32.536C127.791 31.072 127.371 29.404 127.371 27.532C127.371 25.66 127.767 24.004 128.559 22.564C129.375 21.124 130.479 19.996 131.871 19.18C133.287 18.34 134.871 17.92 136.623 17.92C138.399 17.92 139.971 18.328 141.339 19.144C142.731 19.936 143.823 21.064 144.615 22.528C145.407 23.968 145.803 25.636 145.803 27.532C145.803 27.652 145.791 27.784 145.767 27.928C145.767 28.048 145.767 28.18 145.767 28.324H129.315V26.416H144.399L143.391 27.172C143.391 25.804 143.091 24.592 142.491 23.536C141.915 22.456 141.123 21.616 140.115 21.016C139.107 20.416 137.943 20.116 136.623 20.116C135.327 20.116 134.163 20.416 133.131 21.016C132.099 21.616 131.295 22.456 130.719 23.536C130.143 24.616 129.855 25.852 129.855 27.244V27.64C129.855 29.08 130.167 30.352 130.791 31.456C131.439 32.536 132.327 33.388 133.455 34.012C134.607 34.612 135.915 34.912 137.379 34.912C138.531 34.912 139.599 34.708 140.583 34.3C141.591 33.892 142.455 33.268 143.175 32.428L144.615 34.084C143.775 35.092 142.719 35.86 141.447 36.388C140.199 36.916 138.819 37.18 137.307 37.18ZM174.621 17.92C176.157 17.92 177.489 18.22 178.617 18.82C179.769 19.396 180.657 20.284 181.281 21.484C181.929 22.684 182.253 24.196 182.253 26.02V37H179.697V26.272C179.697 24.28 179.217 22.78 178.257 21.772C177.321 20.74 175.989 20.224 174.261 20.224C172.965 20.224 171.837 20.5 170.877 21.052C169.941 21.58 169.209 22.36 168.681 23.392C168.177 24.4 167.925 25.624 167.925 27.064V37H165.369V26.272C165.369 24.28 164.889 22.78 163.929 21.772C162.969 20.74 161.625 20.224 159.897 20.224C158.625 20.224 157.509 20.5 156.549 21.052C155.589 21.58 154.845 22.36 154.317 23.392C153.813 24.4 153.561 25.624 153.561 27.064V37H151.005V18.1H153.453V23.212L153.057 22.312C153.633 20.944 154.557 19.876 155.829 19.108C157.125 18.316 158.649 17.92 160.401 17.92C162.249 17.92 163.821 18.388 165.117 19.324C166.413 20.236 167.253 21.616 167.637 23.464L166.629 23.068C167.181 21.532 168.153 20.296 169.545 19.36C170.961 18.4 172.653 17.92 174.621 17.92ZM198.941 37.18C197.285 37.18 195.797 36.808 194.477 36.064C193.157 35.296 192.113 34.192 191.345 32.752C190.577 31.312 190.193 29.572 190.193 27.532C190.193 25.468 190.577 23.728 191.345 22.312C192.137 20.872 193.193 19.78 194.513 19.036C195.833 18.292 197.309 17.92 198.941 17.92C200.741 17.92 202.349 18.328 203.765 19.144C205.205 19.936 206.333 21.052 207.149 22.492C207.965 23.932 208.373 25.612 208.373 27.532C208.373 29.428 207.965 31.108 207.149 32.572C206.333 34.012 205.205 35.14 203.765 35.956C202.349 36.772 200.741 37.18 198.941 37.18ZM189.185 37V10.288H191.741V23.68L191.381 27.496L191.633 31.312V37H189.185ZM198.761 34.912C200.105 34.912 201.305 34.612 202.361 34.012C203.417 33.388 204.257 32.524 204.881 31.42C205.505 30.292 205.817 28.996 205.817 27.532C205.817 26.044 205.505 24.748 204.881 23.644C204.257 22.54 203.417 21.688 202.361 21.088C201.305 20.464 200.105 20.152 198.761 20.152C197.417 20.152 196.205 20.464 195.125 21.088C194.069 21.688 193.229 22.54 192.605 23.644C192.005 24.748 191.705 26.044 191.705 27.532C191.705 28.996 192.005 30.292 192.605 31.42C193.229 32.524 194.069 33.388 195.125 34.012C196.205 34.612 197.417 34.912 198.761 34.912ZM225.322 37V32.824L225.214 32.14V25.156C225.214 23.548 224.758 22.312 223.846 21.448C222.958 20.584 221.626 20.152 219.85 20.152C218.626 20.152 217.462 20.356 216.358 20.764C215.254 21.172 214.318 21.712 213.55 22.384L212.398 20.476C213.358 19.66 214.51 19.036 215.854 18.604C217.198 18.148 218.614 17.92 220.102 17.92C222.55 17.92 224.434 18.532 225.754 19.756C227.098 20.956 227.77 22.792 227.77 25.264V37H225.322ZM218.806 37.18C217.39 37.18 216.154 36.952 215.098 36.496C214.066 36.016 213.274 35.368 212.722 34.552C212.17 33.712 211.894 32.752 211.894 31.672C211.894 30.688 212.122 29.8 212.578 29.008C213.058 28.192 213.826 27.544 214.882 27.064C215.962 26.56 217.402 26.308 219.202 26.308H225.718V28.216H219.274C217.45 28.216 216.178 28.54 215.458 29.188C214.762 29.836 214.414 30.64 214.414 31.6C214.414 32.68 214.834 33.544 215.674 34.192C216.514 34.84 217.69 35.164 219.202 35.164C220.642 35.164 221.878 34.84 222.91 34.192C223.966 33.52 224.734 32.56 225.214 31.312L225.79 33.076C225.31 34.324 224.47 35.32 223.27 36.064C222.094 36.808 220.606 37.18 218.806 37.18ZM234.712 37V10.288H237.268V37H234.712ZM244.38 37V18.1H246.936V37H244.38ZM245.676 13.924C245.148 13.924 244.704 13.744 244.344 13.384C243.984 13.024 243.804 12.592 243.804 12.088C243.804 11.584 243.984 11.164 244.344 10.828C244.704 10.468 245.148 10.288 245.676 10.288C246.204 10.288 246.648 10.456 247.008 10.792C247.368 11.128 247.548 11.548 247.548 12.052C247.548 12.58 247.368 13.024 247.008 13.384C246.672 13.744 246.228 13.924 245.676 13.924Z" fill="white"/>
<path d="M11.3158 26.6254L27.8827 43.1923L23.667 47.334L0 23.667L23.667 0L27.8827 4.14172L11.3158 20.7086H47.334V26.6254H11.3158Z" fill="white"/>
</svg>
