<svg width="225" height="86" viewBox="0 0 225 86" fill="none" xmlns="http://www.w3.org/2000/svg">
<rect width="225" height="86" rx="20" fill="#292929"/>
<path d="M100.078 23.05H102.67V32.138H108.286V34.25H100.078V23.05ZM109.558 25.642H112.054V34.25H109.558V25.642ZM110.806 24.442C110.348 24.442 109.974 24.3087 109.686 24.042C109.398 23.7753 109.254 23.4447 109.254 23.05C109.254 22.6553 109.398 22.3247 109.686 22.058C109.974 21.7913 110.348 21.658 110.806 21.658C111.265 21.658 111.638 21.786 111.926 22.042C112.214 22.298 112.358 22.618 112.358 23.002C112.358 23.418 112.214 23.7647 111.926 24.042C111.638 24.3087 111.265 24.442 110.806 24.442ZM117.267 34.378C116.552 34.378 115.853 34.2927 115.171 34.122C114.488 33.9407 113.944 33.7167 113.539 33.45L114.371 31.658C114.755 31.9033 115.219 32.106 115.763 32.266C116.307 32.4153 116.84 32.49 117.363 32.49C118.419 32.49 118.947 32.2287 118.947 31.706C118.947 31.4607 118.803 31.2847 118.515 31.178C118.227 31.0713 117.784 30.9807 117.187 30.906C116.483 30.7993 115.901 30.6767 115.443 30.538C114.984 30.3993 114.584 30.154 114.243 29.802C113.912 29.45 113.747 28.9487 113.747 28.298C113.747 27.754 113.901 27.274 114.211 26.858C114.531 26.4313 114.989 26.1007 115.587 25.866C116.195 25.6313 116.909 25.514 117.731 25.514C118.339 25.514 118.941 25.5833 119.539 25.722C120.147 25.85 120.648 26.0313 121.043 26.266L120.211 28.042C119.453 27.6153 118.627 27.402 117.731 27.402C117.197 27.402 116.797 27.4767 116.531 27.626C116.264 27.7753 116.131 27.9673 116.131 28.202C116.131 28.4687 116.275 28.6553 116.563 28.762C116.851 28.8687 117.309 28.97 117.939 29.066C118.643 29.1833 119.219 29.3113 119.667 29.45C120.115 29.578 120.504 29.818 120.835 30.17C121.165 30.522 121.331 31.0127 121.331 31.642C121.331 32.1753 121.171 32.65 120.851 33.066C120.531 33.482 120.061 33.8073 119.443 34.042C118.835 34.266 118.109 34.378 117.267 34.378ZM128.423 33.834C128.177 34.0153 127.873 34.154 127.511 34.25C127.159 34.3353 126.785 34.378 126.391 34.378C125.367 34.378 124.572 34.1167 124.007 33.594C123.452 33.0713 123.175 32.3033 123.175 31.29V27.754H121.847V25.834H123.175V23.738H125.671V25.834H127.815V27.754H125.671V31.258C125.671 31.6207 125.761 31.9033 125.943 32.106C126.135 32.298 126.401 32.394 126.743 32.394C127.137 32.394 127.473 32.2873 127.751 32.074L128.423 33.834ZM137.99 29.978C137.99 30.01 137.974 30.234 137.942 30.65H131.43C131.548 31.1833 131.825 31.6047 132.262 31.914C132.7 32.2233 133.244 32.378 133.894 32.378C134.342 32.378 134.737 32.314 135.078 32.186C135.43 32.0473 135.756 31.834 136.054 31.546L137.382 32.986C136.572 33.914 135.388 34.378 133.83 34.378C132.86 34.378 132.001 34.1913 131.254 33.818C130.508 33.434 129.932 32.906 129.526 32.234C129.121 31.562 128.918 30.7993 128.918 29.946C128.918 29.1033 129.116 28.346 129.51 27.674C129.916 26.9913 130.465 26.4633 131.158 26.09C131.862 25.706 132.646 25.514 133.51 25.514C134.353 25.514 135.116 25.6953 135.798 26.058C136.481 26.4207 137.014 26.9433 137.398 27.626C137.793 28.298 137.99 29.082 137.99 29.978ZM133.526 27.402C132.961 27.402 132.486 27.562 132.102 27.882C131.718 28.202 131.484 28.6393 131.398 29.194H135.638C135.553 28.65 135.318 28.218 134.934 27.898C134.55 27.5673 134.081 27.402 133.526 27.402ZM144.884 25.514C145.951 25.514 146.809 25.834 147.46 26.474C148.121 27.114 148.452 28.0633 148.452 29.322V34.25H145.956V29.706C145.956 29.0233 145.807 28.5167 145.508 28.186C145.209 27.8447 144.777 27.674 144.212 27.674C143.583 27.674 143.081 27.8713 142.708 28.266C142.335 28.65 142.148 29.226 142.148 29.994V34.25H139.652V25.642H142.036V26.65C142.367 26.2873 142.777 26.01 143.268 25.818C143.759 25.6153 144.297 25.514 144.884 25.514ZM159.342 34.378C158.435 34.378 157.619 34.1913 156.894 33.818C156.179 33.434 155.619 32.906 155.214 32.234C154.808 31.562 154.606 30.7993 154.606 29.946C154.606 29.0927 154.808 28.33 155.214 27.658C155.619 26.986 156.179 26.4633 156.894 26.09C157.619 25.706 158.435 25.514 159.342 25.514C160.248 25.514 161.059 25.706 161.774 26.09C162.488 26.4633 163.048 26.986 163.454 27.658C163.859 28.33 164.062 29.0927 164.062 29.946C164.062 30.7993 163.859 31.562 163.454 32.234C163.048 32.906 162.488 33.434 161.774 33.818C161.059 34.1913 160.248 34.378 159.342 34.378ZM159.342 32.33C159.982 32.33 160.504 32.1167 160.91 31.69C161.326 31.2527 161.534 30.6713 161.534 29.946C161.534 29.2207 161.326 28.6447 160.91 28.218C160.504 27.7807 159.982 27.562 159.342 27.562C158.702 27.562 158.174 27.7807 157.758 28.218C157.342 28.6447 157.134 29.2207 157.134 29.946C157.134 30.6713 157.342 31.2527 157.758 31.69C158.174 32.1167 158.702 32.33 159.342 32.33ZM170.962 25.514C172.029 25.514 172.887 25.834 173.538 26.474C174.199 27.114 174.53 28.0633 174.53 29.322V34.25H172.034V29.706C172.034 29.0233 171.885 28.5167 171.586 28.186C171.287 27.8447 170.855 27.674 170.29 27.674C169.661 27.674 169.159 27.8713 168.786 28.266C168.413 28.65 168.226 29.226 168.226 29.994V34.25H165.73V25.642H168.114V26.65C168.445 26.2873 168.855 26.01 169.346 25.818C169.837 25.6153 170.375 25.514 170.962 25.514ZM106.262 58.538C104.934 58.538 103.646 58.362 102.398 58.01C101.166 57.642 100.174 57.17 99.422 56.594L100.742 53.666C101.462 54.194 102.318 54.618 103.31 54.938C104.302 55.258 105.294 55.418 106.286 55.418C107.39 55.418 108.206 55.258 108.734 54.938C109.262 54.602 109.526 54.162 109.526 53.618C109.526 53.218 109.366 52.89 109.046 52.634C108.742 52.362 108.342 52.146 107.846 51.986C107.366 51.826 106.71 51.65 105.878 51.458C104.598 51.154 103.55 50.85 102.734 50.546C101.918 50.242 101.214 49.754 100.622 49.082C100.046 48.41 99.758 47.514 99.758 46.394C99.758 45.418 100.022 44.538 100.55 43.754C101.078 42.954 101.87 42.322 102.926 41.858C103.998 41.394 105.302 41.162 106.838 41.162C107.91 41.162 108.958 41.29 109.982 41.546C111.006 41.802 111.902 42.17 112.67 42.65L111.47 45.602C109.918 44.722 108.366 44.282 106.814 44.282C105.726 44.282 104.918 44.458 104.39 44.81C103.878 45.162 103.622 45.626 103.622 46.202C103.622 46.778 103.918 47.21 104.51 47.498C105.118 47.77 106.038 48.042 107.27 48.314C108.55 48.618 109.598 48.922 110.414 49.226C111.23 49.53 111.926 50.01 112.502 50.666C113.094 51.322 113.39 52.21 113.39 53.33C113.39 54.29 113.118 55.17 112.574 55.97C112.046 56.754 111.246 57.378 110.174 57.842C109.102 58.306 107.798 58.538 106.262 58.538ZM123.415 45.146C124.615 45.146 125.703 45.426 126.679 45.986C127.671 46.53 128.447 47.306 129.007 48.314C129.567 49.306 129.847 50.466 129.847 51.794C129.847 53.122 129.567 54.29 129.007 55.298C128.447 56.29 127.671 57.066 126.679 57.626C125.703 58.17 124.615 58.442 123.415 58.442C121.767 58.442 120.471 57.922 119.527 56.882V62.906H115.783V45.338H119.359V46.826C120.287 45.706 121.639 45.146 123.415 45.146ZM122.767 55.37C123.727 55.37 124.511 55.05 125.119 54.41C125.743 53.754 126.055 52.882 126.055 51.794C126.055 50.706 125.743 49.842 125.119 49.202C124.511 48.546 123.727 48.218 122.767 48.218C121.807 48.218 121.015 48.546 120.391 49.202C119.783 49.842 119.479 50.706 119.479 51.794C119.479 52.882 119.783 53.754 120.391 54.41C121.015 55.05 121.807 55.37 122.767 55.37ZM138.497 58.442C137.137 58.442 135.913 58.162 134.825 57.602C133.753 57.026 132.913 56.234 132.305 55.226C131.697 54.218 131.393 53.074 131.393 51.794C131.393 50.514 131.697 49.37 132.305 48.362C132.913 47.354 133.753 46.57 134.825 46.01C135.913 45.434 137.137 45.146 138.497 45.146C139.857 45.146 141.073 45.434 142.145 46.01C143.217 46.57 144.057 47.354 144.665 48.362C145.273 49.37 145.577 50.514 145.577 51.794C145.577 53.074 145.273 54.218 144.665 55.226C144.057 56.234 143.217 57.026 142.145 57.602C141.073 58.162 139.857 58.442 138.497 58.442ZM138.497 55.37C139.457 55.37 140.241 55.05 140.849 54.41C141.473 53.754 141.785 52.882 141.785 51.794C141.785 50.706 141.473 49.842 140.849 49.202C140.241 48.546 139.457 48.218 138.497 48.218C137.537 48.218 136.745 48.546 136.121 49.202C135.497 49.842 135.185 50.706 135.185 51.794C135.185 52.882 135.497 53.754 136.121 54.41C136.745 55.05 137.537 55.37 138.497 55.37ZM156.408 57.626C156.04 57.898 155.584 58.106 155.04 58.25C154.512 58.378 153.952 58.442 153.36 58.442C151.824 58.442 150.632 58.05 149.784 57.266C148.952 56.482 148.536 55.33 148.536 53.81V48.506H146.544V45.626H148.536V42.482H152.28V45.626H155.496V48.506H152.28V53.762C152.28 54.306 152.416 54.73 152.688 55.034C152.976 55.322 153.376 55.466 153.888 55.466C154.48 55.466 154.984 55.306 155.4 54.986L156.408 57.626ZM158.509 45.338H162.253V58.25H158.509V45.338ZM160.381 43.538C159.693 43.538 159.133 43.338 158.701 42.938C158.269 42.538 158.053 42.042 158.053 41.45C158.053 40.858 158.269 40.362 158.701 39.962C159.133 39.562 159.693 39.362 160.381 39.362C161.069 39.362 161.629 39.554 162.061 39.938C162.493 40.322 162.709 40.802 162.709 41.378C162.709 42.002 162.493 42.522 162.061 42.938C161.629 43.338 161.069 43.538 160.381 43.538ZM169.832 45.626H173.144V48.506H169.928V58.25H166.184V48.506H164.192V45.626H166.184V45.05C166.184 43.578 166.616 42.41 167.48 41.546C168.36 40.682 169.592 40.25 171.176 40.25C171.736 40.25 172.264 40.314 172.76 40.442C173.272 40.554 173.696 40.722 174.032 40.946L173.048 43.658C172.616 43.354 172.112 43.202 171.536 43.202C170.4 43.202 169.832 43.826 169.832 45.074V45.626ZM188.06 45.338L182.228 59.042C181.636 60.53 180.9 61.578 180.02 62.186C179.156 62.794 178.108 63.098 176.876 63.098C176.204 63.098 175.54 62.994 174.884 62.786C174.228 62.578 173.692 62.29 173.276 61.922L174.644 59.258C174.932 59.514 175.26 59.714 175.628 59.858C176.012 60.002 176.388 60.074 176.756 60.074C177.268 60.074 177.684 59.946 178.004 59.69C178.324 59.45 178.612 59.042 178.868 58.466L178.916 58.346L173.324 45.338H177.188L180.812 54.098L184.46 45.338H188.06Z" fill="white"/>
<path d="M84.402 42.6847C84.3628 56.569 73.0548 67.3191 59.7087 67.3247C46.5855 67.3303 34.9986 56.89 35 42.637C35.0014 28.5312 46.6051 17.6045 60.4559 18.011C73.4697 18.3923 84.3656 28.9783 84.402 42.6861V42.6847ZM54.9918 30.8973C53.5732 31.0319 51.0641 31.2029 48.576 31.5351C47.0873 31.7342 45.6127 32.1224 44.1661 32.5402C42.8835 32.9102 42.2457 34.2671 42.6354 35.5021C43.0166 36.709 44.246 37.323 45.5174 37.0734C47.7476 36.6361 49.9805 36.1581 52.236 35.9128C55.9086 35.5133 59.591 35.6773 63.2425 36.2478C67.1745 36.8618 70.9452 37.965 74.4328 39.9512C75.6032 40.6185 76.9839 40.1461 77.6189 39.0037C78.2511 37.8654 77.8853 36.5015 76.7022 35.8133C75.8387 35.31 74.9486 34.8433 74.0375 34.4353C68.3281 31.8827 62.2809 31.0319 54.9918 30.8973ZM72.3778 47.9132C73.3324 47.8347 74.0501 47.3091 74.3458 46.4105C74.601 45.634 74.3388 44.7158 73.6085 44.2644C72.6792 43.6911 71.7176 43.1585 70.7293 42.6973C66.8296 40.8806 62.7169 39.9106 58.4289 39.584C54.1353 39.2574 49.9231 39.6106 45.7907 40.8287C44.5586 41.1918 43.9726 42.1997 44.2768 43.3379C44.5544 44.3752 45.694 44.9934 46.8476 44.6611C51.0711 43.443 55.3577 43.1949 59.7087 43.7318C63.7682 44.2322 67.6244 45.3466 71.1793 47.4156C71.5507 47.6315 71.9783 47.7478 72.3806 47.9104L72.3778 47.9132ZM55.8259 47.4632C54.1087 47.602 52.3846 47.6791 50.6772 47.8978C49.2292 48.0828 47.791 48.3856 46.3682 48.7192C45.516 48.9183 45.0562 49.8364 45.2763 50.6326C45.4935 51.419 46.3178 51.9559 47.0957 51.8241C48.7666 51.5382 50.4333 51.2101 52.1126 50.9802C54.853 50.606 57.5963 50.6663 60.3297 51.0868C63.3785 51.5564 66.2227 52.5825 68.886 54.1384C69.8869 54.7229 70.941 54.2926 71.2886 53.2146C71.5185 52.4983 71.1877 51.7947 70.3733 51.3097C65.8933 48.6421 61.011 47.5137 55.8259 47.4661V47.4632Z" fill="#1ED760"/>
<path d="M54.9906 30.8975C62.2797 31.0334 68.3255 31.8829 74.0362 34.4355C74.9488 34.8434 75.8375 35.3116 76.701 35.8134C77.884 36.5017 78.2499 37.8656 77.6177 39.0038C76.9827 40.1462 75.602 40.6186 74.4315 39.9514C70.9453 37.9637 67.1732 36.8605 63.2413 36.248C59.5897 35.6774 55.9073 35.5148 52.2347 35.9129C49.9793 36.1582 47.7463 36.6362 45.5161 37.0736C44.2447 37.3231 43.0154 36.7105 42.6341 35.5022C42.2444 34.2673 42.8822 32.9104 44.1648 32.5403C45.6114 32.1226 47.0861 31.7343 48.5747 31.5353C51.0629 31.203 53.572 31.0334 54.9906 30.8975Z" fill="black"/>
<path d="M72.3783 47.9116C71.976 47.749 71.5485 47.6313 71.177 47.4168C67.6222 45.3478 63.7673 44.2334 59.7064 43.733C55.3554 43.1961 51.0688 43.4443 46.8454 44.6624C45.6917 44.9946 44.5521 44.3764 44.2745 43.3391C43.9704 42.2009 44.5563 41.193 45.7884 40.83C49.9208 39.6105 54.1331 39.2572 58.4266 39.5852C62.716 39.9118 66.8274 40.8818 70.727 42.6985C71.7167 43.1597 72.6783 43.6924 73.6062 44.2657C74.3366 44.717 74.6001 45.6352 74.3436 46.4118C74.0478 47.3089 73.3301 47.8359 72.3755 47.9144L72.3783 47.9116Z" fill="black"/>
<path d="M55.826 47.4618C61.0111 47.5095 65.8934 48.6379 70.3734 51.3054C71.1878 51.7904 71.5186 52.4955 71.2887 53.2104C70.9411 54.2897 69.887 54.7201 68.8861 54.1341C66.2242 52.5782 63.3787 51.5521 60.3298 51.0825C57.595 50.662 54.8518 50.6017 52.1128 50.976C50.4335 51.2059 48.7682 51.5339 47.0959 51.8198C46.3179 51.953 45.4937 51.4147 45.2764 50.6284C45.0563 49.8322 45.5161 48.9154 46.3684 48.715C47.7911 48.3813 49.2293 48.0786 50.6774 47.8935C52.3847 47.6763 54.1089 47.5978 55.826 47.459V47.4618Z" fill="black"/>
</svg>
