<svg width="225" height="86" viewBox="0 0 225 86" fill="none" xmlns="http://www.w3.org/2000/svg">
<rect width="225" height="86" rx="20" fill="#292929"/>
<path d="M86.078 21.05H88.67V30.138H94.286V32.25H86.078V21.05ZM95.5583 23.642H98.0543V32.25H95.5583V23.642ZM96.8063 22.442C96.3476 22.442 95.9743 22.3087 95.6863 22.042C95.3983 21.7753 95.2543 21.4447 95.2543 21.05C95.2543 20.6553 95.3983 20.3247 95.6863 20.058C95.9743 19.7913 96.3476 19.658 96.8063 19.658C97.2649 19.658 97.6383 19.786 97.9263 20.042C98.2143 20.298 98.3583 20.618 98.3583 21.002C98.3583 21.418 98.2143 21.7647 97.9263 22.042C97.6383 22.3087 97.2649 22.442 96.8063 22.442ZM103.267 32.378C102.552 32.378 101.853 32.2927 101.171 32.122C100.488 31.9407 99.9441 31.7167 99.5388 31.45L100.371 29.658C100.755 29.9033 101.219 30.106 101.763 30.266C102.307 30.4153 102.84 30.49 103.363 30.49C104.419 30.49 104.947 30.2287 104.947 29.706C104.947 29.4607 104.803 29.2847 104.515 29.178C104.227 29.0713 103.784 28.9807 103.187 28.906C102.483 28.7993 101.901 28.6767 101.443 28.538C100.984 28.3993 100.584 28.154 100.243 27.802C99.9121 27.45 99.7467 26.9487 99.7467 26.298C99.7467 25.754 99.9014 25.274 100.211 24.858C100.531 24.4313 100.989 24.1007 101.587 23.866C102.195 23.6313 102.909 23.514 103.731 23.514C104.339 23.514 104.941 23.5833 105.539 23.722C106.147 23.85 106.648 24.0313 107.043 24.266L106.211 26.042C105.453 25.6153 104.627 25.402 103.731 25.402C103.197 25.402 102.797 25.4767 102.531 25.626C102.264 25.7753 102.131 25.9673 102.131 26.202C102.131 26.4687 102.275 26.6553 102.563 26.762C102.851 26.8687 103.309 26.97 103.939 27.066C104.643 27.1833 105.219 27.3113 105.667 27.45C106.115 27.578 106.504 27.818 106.835 28.17C107.165 28.522 107.331 29.0127 107.331 29.642C107.331 30.1753 107.171 30.65 106.851 31.066C106.531 31.482 106.061 31.8073 105.443 32.042C104.835 32.266 104.109 32.378 103.267 32.378ZM114.423 31.834C114.177 32.0153 113.873 32.154 113.511 32.25C113.159 32.3353 112.785 32.378 112.391 32.378C111.367 32.378 110.572 32.1167 110.007 31.594C109.452 31.0713 109.175 30.3033 109.175 29.29V25.754H107.847V23.834H109.175V21.738H111.671V23.834H113.815V25.754H111.671V29.258C111.671 29.6207 111.761 29.9033 111.943 30.106C112.135 30.298 112.401 30.394 112.743 30.394C113.137 30.394 113.473 30.2873 113.751 30.074L114.423 31.834ZM123.99 27.978C123.99 28.01 123.974 28.234 123.942 28.65H117.43C117.548 29.1833 117.825 29.6047 118.262 29.914C118.7 30.2233 119.244 30.378 119.894 30.378C120.342 30.378 120.737 30.314 121.078 30.186C121.43 30.0473 121.756 29.834 122.054 29.546L123.382 30.986C122.572 31.914 121.388 32.378 119.83 32.378C118.86 32.378 118.001 32.1913 117.254 31.818C116.508 31.434 115.932 30.906 115.526 30.234C115.121 29.562 114.918 28.7993 114.918 27.946C114.918 27.1033 115.116 26.346 115.51 25.674C115.916 24.9913 116.465 24.4633 117.158 24.09C117.862 23.706 118.646 23.514 119.51 23.514C120.353 23.514 121.116 23.6953 121.798 24.058C122.481 24.4207 123.014 24.9433 123.398 25.626C123.793 26.298 123.99 27.082 123.99 27.978ZM119.526 25.402C118.961 25.402 118.486 25.562 118.102 25.882C117.718 26.202 117.484 26.6393 117.398 27.194H121.638C121.553 26.65 121.318 26.218 120.934 25.898C120.55 25.5673 120.081 25.402 119.526 25.402ZM130.884 23.514C131.951 23.514 132.809 23.834 133.46 24.474C134.121 25.114 134.452 26.0633 134.452 27.322V32.25H131.956V27.706C131.956 27.0233 131.807 26.5167 131.508 26.186C131.209 25.8447 130.777 25.674 130.212 25.674C129.583 25.674 129.081 25.8713 128.708 26.266C128.335 26.65 128.148 27.226 128.148 27.994V32.25H125.652V23.642H128.036V24.65C128.367 24.2873 128.777 24.01 129.268 23.818C129.759 23.6153 130.297 23.514 130.884 23.514ZM145.342 32.378C144.435 32.378 143.619 32.1913 142.894 31.818C142.179 31.434 141.619 30.906 141.214 30.234C140.808 29.562 140.606 28.7993 140.606 27.946C140.606 27.0927 140.808 26.33 141.214 25.658C141.619 24.986 142.179 24.4633 142.894 24.09C143.619 23.706 144.435 23.514 145.342 23.514C146.248 23.514 147.059 23.706 147.774 24.09C148.488 24.4633 149.048 24.986 149.454 25.658C149.859 26.33 150.062 27.0927 150.062 27.946C150.062 28.7993 149.859 29.562 149.454 30.234C149.048 30.906 148.488 31.434 147.774 31.818C147.059 32.1913 146.248 32.378 145.342 32.378ZM145.342 30.33C145.982 30.33 146.504 30.1167 146.91 29.69C147.326 29.2527 147.534 28.6713 147.534 27.946C147.534 27.2207 147.326 26.6447 146.91 26.218C146.504 25.7807 145.982 25.562 145.342 25.562C144.702 25.562 144.174 25.7807 143.758 26.218C143.342 26.6447 143.134 27.2207 143.134 27.946C143.134 28.6713 143.342 29.2527 143.758 29.69C144.174 30.1167 144.702 30.33 145.342 30.33ZM156.962 23.514C158.029 23.514 158.887 23.834 159.538 24.474C160.199 25.114 160.53 26.0633 160.53 27.322V32.25H158.034V27.706C158.034 27.0233 157.885 26.5167 157.586 26.186C157.287 25.8447 156.855 25.674 156.29 25.674C155.661 25.674 155.159 25.8713 154.786 26.266C154.413 26.65 154.226 27.226 154.226 27.994V32.25H151.73V23.642H154.114V24.65C154.445 24.2873 154.855 24.01 155.346 23.818C155.837 23.6153 156.375 23.514 156.962 23.514ZM94.806 50.298V56.25H90.918V50.25L84.414 39.45H88.542L93.03 46.914L97.518 39.45H101.334L94.806 50.298ZM107.411 56.442C106.051 56.442 104.827 56.162 103.739 55.602C102.667 55.026 101.827 54.234 101.219 53.226C100.611 52.218 100.307 51.074 100.307 49.794C100.307 48.514 100.611 47.37 101.219 46.362C101.827 45.354 102.667 44.57 103.739 44.01C104.827 43.434 106.051 43.146 107.411 43.146C108.771 43.146 109.987 43.434 111.059 44.01C112.131 44.57 112.971 45.354 113.579 46.362C114.187 47.37 114.491 48.514 114.491 49.794C114.491 51.074 114.187 52.218 113.579 53.226C112.971 54.234 112.131 55.026 111.059 55.602C109.987 56.162 108.771 56.442 107.411 56.442ZM107.411 53.37C108.371 53.37 109.155 53.05 109.763 52.41C110.387 51.754 110.699 50.882 110.699 49.794C110.699 48.706 110.387 47.842 109.763 47.202C109.155 46.546 108.371 46.218 107.411 46.218C106.451 46.218 105.659 46.546 105.035 47.202C104.411 47.842 104.099 48.706 104.099 49.794C104.099 50.882 104.411 51.754 105.035 52.41C105.659 53.05 106.451 53.37 107.411 53.37ZM130.002 43.338V56.25H126.45V54.714C125.954 55.274 125.362 55.706 124.674 56.01C123.986 56.298 123.242 56.442 122.442 56.442C120.746 56.442 119.402 55.954 118.41 54.978C117.418 54.002 116.922 52.554 116.922 50.634V43.338H120.666V50.082C120.666 52.162 121.538 53.202 123.282 53.202C124.178 53.202 124.898 52.914 125.442 52.338C125.986 51.746 126.258 50.874 126.258 49.722V43.338H130.002ZM135.667 42.618H130.291V39.45H144.931V42.618H139.555V56.25H135.667V42.618ZM159.486 43.338V56.25H155.934V54.714C155.438 55.274 154.846 55.706 154.158 56.01C153.47 56.298 152.726 56.442 151.926 56.442C150.23 56.442 148.886 55.954 147.894 54.978C146.902 54.002 146.406 52.554 146.406 50.634V43.338H150.15V50.082C150.15 52.162 151.022 53.202 152.766 53.202C153.662 53.202 154.382 52.914 154.926 52.338C155.47 51.746 155.742 50.874 155.742 49.722V43.338H159.486ZM170.587 43.146C171.787 43.146 172.875 43.426 173.851 43.986C174.843 44.53 175.619 45.306 176.179 46.314C176.739 47.306 177.019 48.466 177.019 49.794C177.019 51.122 176.739 52.29 176.179 53.298C175.619 54.29 174.843 55.066 173.851 55.626C172.875 56.17 171.787 56.442 170.587 56.442C168.811 56.442 167.459 55.882 166.531 54.762V56.25H162.955V38.442H166.699V44.706C167.643 43.666 168.939 43.146 170.587 43.146ZM169.939 53.37C170.899 53.37 171.683 53.05 172.291 52.41C172.915 51.754 173.227 50.882 173.227 49.794C173.227 48.706 172.915 47.842 172.291 47.202C171.683 46.546 170.899 46.218 169.939 46.218C168.979 46.218 168.187 46.546 167.563 47.202C166.955 47.842 166.651 48.706 166.651 49.794C166.651 50.882 166.955 51.754 167.563 52.41C168.187 53.05 168.979 53.37 169.939 53.37ZM192.173 49.842C192.173 49.89 192.149 50.226 192.101 50.85H182.333C182.509 51.65 182.925 52.282 183.581 52.746C184.237 53.21 185.053 53.442 186.029 53.442C186.701 53.442 187.293 53.346 187.805 53.154C188.333 52.946 188.821 52.626 189.269 52.194L191.261 54.354C190.045 55.746 188.269 56.442 185.933 56.442C184.477 56.442 183.189 56.162 182.069 55.602C180.949 55.026 180.085 54.234 179.477 53.226C178.869 52.218 178.565 51.074 178.565 49.794C178.565 48.53 178.861 47.394 179.453 46.386C180.061 45.362 180.885 44.57 181.925 44.01C182.981 43.434 184.157 43.146 185.453 43.146C186.717 43.146 187.861 43.418 188.885 43.962C189.909 44.506 190.709 45.29 191.285 46.314C191.877 47.322 192.173 48.498 192.173 49.842ZM185.477 45.978C184.629 45.978 183.917 46.218 183.341 46.698C182.765 47.178 182.413 47.834 182.285 48.666H188.645C188.517 47.85 188.165 47.202 187.589 46.722C187.013 46.226 186.309 45.978 185.477 45.978Z" fill="white"/>
<path d="M45.4054 64.7478C32.1252 64.932 20.9753 53.89 21 40.4503C21.0248 26.8443 31.8623 16.0135 45.4863 16C58.9507 15.9865 69.8062 27.1814 69.7905 40.4323C69.7748 53.7192 58.7215 64.932 45.4054 64.7455V64.7478Z" fill="#ED2224"/>
<path d="M59.8497 40.4412C59.8497 48.4497 53.3849 54.8494 45.3044 54.8471C37.3791 54.8449 30.8985 48.3239 30.9053 40.3581C30.9098 32.39 37.4757 25.8892 45.5044 25.9027C53.4051 25.9162 59.8519 32.4507 59.8497 40.4412Z" fill="#FFFEFE"/>
<path d="M58.0544 40.3897C58.0611 47.3219 52.3468 53.0406 45.4012 53.0519C38.4622 53.0631 32.721 47.3331 32.7188 40.3942C32.7165 33.4687 38.4712 27.7073 45.3877 27.714C52.3356 27.7207 58.0476 33.4373 58.0544 40.3897Z" fill="#ED2224"/>
<path d="M53.2093 40.3963C49.1219 42.7445 45.1918 44.9938 41.2729 47.2678C40.7336 47.5824 40.6348 47.4072 40.637 46.8926C40.6415 42.5557 40.6438 38.2167 40.6348 33.8798C40.6348 33.3675 40.7269 33.172 41.2595 33.4821C45.1783 35.7606 49.1062 38.0257 53.2116 40.3986L53.2093 40.3963Z" fill="#FFFEFE"/>
</svg>
