<svg width="410" height="78" viewBox="0 0 410 78" fill="none" xmlns="http://www.w3.org/2000/svg">
<path d="M126.252 26.1003H116.112L114.178 30.7803H108.998L118.733 8.94028H123.725L133.49 30.7803H128.186L126.252 26.1003ZM124.661 22.2627L121.198 13.9011L117.734 22.2627H124.661ZM135.413 7.62988H140.28V30.7803H135.413V7.62988ZM154.719 13.7451C156.279 13.7451 157.694 14.1091 158.962 14.8371C160.252 15.5443 161.261 16.5531 161.989 17.8635C162.717 19.1531 163.081 20.6611 163.081 22.3875C163.081 24.1139 162.717 25.6323 161.989 26.9427C161.261 28.2323 160.252 29.2411 158.962 29.9691C157.694 30.6763 156.279 31.0299 154.719 31.0299C152.41 31.0299 150.653 30.3019 149.446 28.8459V30.7803H144.798V7.62988H149.665V15.7731C150.892 14.4211 152.577 13.7451 154.719 13.7451ZM153.877 27.0363C155.125 27.0363 156.144 26.6203 156.934 25.7883C157.746 24.9355 158.151 23.8019 158.151 22.3875C158.151 20.9731 157.746 19.8499 156.934 19.0179C156.144 18.1651 155.125 17.7387 153.877 17.7387C152.629 17.7387 151.599 18.1651 150.788 19.0179C149.998 19.8499 149.602 20.9731 149.602 22.3875C149.602 23.8019 149.998 24.9355 150.788 25.7883C151.599 26.6203 152.629 27.0363 153.877 27.0363ZM183.249 13.9947V30.7803H178.632V28.7835C177.987 29.5115 177.217 30.0731 176.323 30.4683C175.429 30.8427 174.461 31.0299 173.421 31.0299C171.217 31.0299 169.469 30.3955 168.18 29.1267C166.89 27.8579 166.245 25.9755 166.245 23.4795V13.9947H171.113V22.7619C171.113 25.4659 172.246 26.8179 174.513 26.8179C175.678 26.8179 176.614 26.4435 177.321 25.6947C178.029 24.9251 178.382 23.7915 178.382 22.2939V13.9947H183.249ZM209.255 13.7451C211.356 13.7451 213.02 14.3691 214.247 15.6171C215.495 16.8443 216.119 18.6955 216.119 21.1707V30.7803H211.252V21.9195C211.252 20.5883 210.971 19.6003 210.41 18.9555C209.869 18.2899 209.089 17.9571 208.07 17.9571C206.926 17.9571 206.021 18.3315 205.355 19.0803C204.69 19.8083 204.357 20.9003 204.357 22.3563V30.7803H199.49V21.9195C199.49 19.2779 198.429 17.9571 196.307 17.9571C195.184 17.9571 194.29 18.3315 193.624 19.0803C192.958 19.8083 192.626 20.9003 192.626 22.3563V30.7803H187.758V13.9947H192.407V15.9291C193.031 15.2219 193.79 14.6811 194.685 14.3067C195.6 13.9323 196.598 13.7451 197.68 13.7451C198.866 13.7451 199.937 13.9843 200.894 14.4627C201.85 14.9203 202.62 15.5963 203.202 16.4907C203.889 15.6171 204.752 14.9411 205.792 14.4627C206.853 13.9843 208.007 13.7451 209.255 13.7451ZM237.305 31.0299C235.537 31.0299 233.946 30.6659 232.531 29.9379C231.138 29.1891 230.046 28.1595 229.255 26.8491C228.465 25.5387 228.07 24.0515 228.07 22.3875C228.07 20.7235 228.465 19.2363 229.255 17.9259C230.046 16.6155 231.138 15.5963 232.531 14.8683C233.946 14.1195 235.537 13.7451 237.305 13.7451C239.073 13.7451 240.654 14.1195 242.047 14.8683C243.441 15.5963 244.533 16.6155 245.323 17.9259C246.114 19.2363 246.509 20.7235 246.509 22.3875C246.509 24.0515 246.114 25.5387 245.323 26.8491C244.533 28.1595 243.441 29.1891 242.047 29.9379C240.654 30.6659 239.073 31.0299 237.305 31.0299ZM237.305 27.0363C238.553 27.0363 239.572 26.6203 240.363 25.7883C241.174 24.9355 241.579 23.8019 241.579 22.3875C241.579 20.9731 241.174 19.8499 240.363 19.0179C239.572 18.1651 238.553 17.7387 237.305 17.7387C236.057 17.7387 235.027 18.1651 234.216 19.0179C233.405 19.8499 232.999 20.9731 232.999 22.3875C232.999 23.8019 233.405 24.9355 234.216 25.7883C235.027 26.6203 236.057 27.0363 237.305 27.0363ZM255.098 14.3691H259.403V18.1131H255.222V30.7803H250.355V18.1131H247.766V14.3691H250.355V13.6203C250.355 11.7067 250.917 10.1883 252.04 9.06508C253.184 7.94188 254.786 7.38028 256.845 7.38028C257.573 7.38028 258.259 7.46348 258.904 7.62988C259.57 7.77548 260.121 7.99388 260.558 8.28508L259.278 11.8107C258.717 11.4155 258.062 11.2179 257.313 11.2179C255.836 11.2179 255.098 12.0291 255.098 13.6515V14.3691ZM275.531 13.0587H268.542V8.94028H287.574V13.0587H280.586V30.7803H275.531V13.0587ZM300.153 13.7451C302.233 13.7451 303.907 14.3691 305.176 15.6171C306.466 16.8651 307.111 18.7163 307.111 21.1707V30.7803H302.243V21.9195C302.243 20.5883 301.952 19.6003 301.37 18.9555C300.787 18.2899 299.945 17.9571 298.843 17.9571C297.615 17.9571 296.638 18.3419 295.91 19.1115C295.182 19.8603 294.818 20.9835 294.818 22.4811V30.7803H289.951V7.62988H294.818V15.7419C295.463 15.0971 296.243 14.6083 297.158 14.2755C298.073 13.9219 299.071 13.7451 300.153 13.7451ZM328.148 22.4499C328.148 22.5123 328.117 22.9491 328.054 23.7603H315.356C315.585 24.8003 316.125 25.6219 316.978 26.2251C317.831 26.8283 318.892 27.1299 320.161 27.1299C321.034 27.1299 321.804 27.0051 322.469 26.7555C323.156 26.4851 323.79 26.0691 324.373 25.5075L326.962 28.3155C325.381 30.1251 323.073 31.0299 320.036 31.0299C318.143 31.0299 316.469 30.6659 315.013 29.9379C313.557 29.1891 312.433 28.1595 311.643 26.8491C310.853 25.5387 310.457 24.0515 310.457 22.3875C310.457 20.7443 310.842 19.2675 311.612 17.9571C312.402 16.6259 313.473 15.5963 314.825 14.8683C316.198 14.1195 317.727 13.7451 319.412 13.7451C321.055 13.7451 322.542 14.0987 323.873 14.8059C325.205 15.5131 326.245 16.5323 326.993 17.8635C327.763 19.1739 328.148 20.7027 328.148 22.4499ZM319.443 17.4267C318.341 17.4267 317.415 17.7387 316.666 18.3627C315.917 18.9867 315.46 19.8395 315.293 20.9211H323.561C323.395 19.8603 322.937 19.0179 322.189 18.3939C321.44 17.7491 320.525 17.4267 319.443 17.4267ZM351.05 23.0427V30.7803H345.996V22.9803L337.541 8.94028H342.907L348.742 18.6435L354.576 8.94028H359.537L351.05 23.0427ZM375.892 22.4499C375.892 22.5123 375.861 22.9491 375.799 23.7603H363.1C363.329 24.8003 363.87 25.6219 364.723 26.2251C365.575 26.8283 366.636 27.1299 367.905 27.1299C368.779 27.1299 369.548 27.0051 370.214 26.7555C370.9 26.4851 371.535 26.0691 372.117 25.5075L374.707 28.3155C373.126 30.1251 370.817 31.0299 367.78 31.0299C365.887 31.0299 364.213 30.6659 362.757 29.9379C361.301 29.1891 360.178 28.1595 359.387 26.8491C358.597 25.5387 358.202 24.0515 358.202 22.3875C358.202 20.7443 358.587 19.2675 359.356 17.9571C360.147 16.6259 361.218 15.5963 362.57 14.8683C363.943 14.1195 365.471 13.7451 367.156 13.7451C368.799 13.7451 370.287 14.0987 371.618 14.8059C372.949 15.5131 373.989 16.5323 374.738 17.8635C375.507 19.1739 375.892 20.7027 375.892 22.4499ZM367.187 17.4267C366.085 17.4267 365.159 17.7387 364.411 18.3627C363.662 18.9867 363.204 19.8395 363.038 20.9211H371.306C371.139 19.8603 370.682 19.0179 369.933 18.3939C369.184 17.7491 368.269 17.4267 367.187 17.4267ZM385.446 13.7451C388.046 13.7451 390.043 14.3691 391.436 15.6171C392.83 16.8443 393.527 18.7059 393.527 21.2019V30.7803H388.972V28.6899C388.056 30.2499 386.351 31.0299 383.855 31.0299C382.565 31.0299 381.442 30.8115 380.485 30.3747C379.549 29.9379 378.832 29.3347 378.332 28.5651C377.833 27.7955 377.584 26.9219 377.584 25.9443C377.584 24.3843 378.166 23.1571 379.331 22.2627C380.516 21.3683 382.336 20.9211 384.791 20.9211H388.66C388.66 19.8603 388.337 19.0491 387.692 18.4875C387.048 17.9051 386.08 17.6139 384.791 17.6139C383.896 17.6139 383.012 17.7595 382.139 18.0507C381.286 18.3211 380.558 18.6955 379.955 19.1739L378.208 15.7731C379.123 15.1283 380.215 14.6291 381.484 14.2755C382.773 13.9219 384.094 13.7451 385.446 13.7451ZM385.072 27.7539C385.904 27.7539 386.642 27.5667 387.287 27.1923C387.932 26.7971 388.389 26.2251 388.66 25.4763V23.7603H385.321C383.324 23.7603 382.326 24.4155 382.326 25.7259C382.326 26.3499 382.565 26.8491 383.044 27.2235C383.543 27.5771 384.219 27.7539 385.072 27.7539ZM402.581 16.2099C403.163 15.3987 403.943 14.7851 404.921 14.3691C405.919 13.9531 407.063 13.7451 408.353 13.7451V18.2379C407.812 18.1963 407.448 18.1755 407.261 18.1755C405.867 18.1755 404.775 18.5707 403.985 19.3611C403.194 20.1307 402.799 21.2955 402.799 22.8555V30.7803H397.932V13.9947H402.581V16.2099ZM127.75 68.7803L122.758 61.7603C122.196 61.8227 121.614 61.8539 121.01 61.8539H115.145V68.7803H112.836V46.9403H121.01C123.798 46.9403 125.982 47.6059 127.562 48.9371C129.143 50.2683 129.934 52.0987 129.934 54.4283C129.934 56.1339 129.497 57.5795 128.623 58.7651C127.77 59.9299 126.543 60.7723 124.942 61.2923L130.277 68.7803H127.75ZM120.948 59.8883C123.111 59.8883 124.765 59.4099 125.909 58.4531C127.053 57.4963 127.625 56.1547 127.625 54.4283C127.625 52.6603 127.053 51.3083 125.909 50.3723C124.765 49.4155 123.111 48.9371 120.948 48.9371H115.145V59.8883H120.948ZM149.205 61.2611H135.477C135.601 62.9667 136.257 64.3499 137.442 65.4107C138.628 66.4507 140.125 66.9707 141.935 66.9707C142.954 66.9707 143.89 66.7939 144.743 66.4403C145.596 66.0659 146.334 65.5251 146.958 64.8179L148.206 66.2531C147.478 67.1267 146.563 67.7923 145.461 68.2499C144.379 68.7075 143.183 68.9363 141.873 68.9363C140.188 68.9363 138.69 68.5827 137.38 67.8755C136.09 67.1475 135.081 66.1491 134.353 64.8803C133.625 63.6115 133.261 62.1763 133.261 60.5747C133.261 58.9731 133.605 57.5379 134.291 56.2691C134.998 55.0003 135.955 54.0123 137.161 53.3051C138.389 52.5979 139.761 52.2443 141.28 52.2443C142.798 52.2443 144.161 52.5979 145.367 53.3051C146.573 54.0123 147.52 55.0003 148.206 56.2691C148.893 57.5171 149.236 58.9523 149.236 60.5747L149.205 61.2611ZM141.28 54.1475C139.699 54.1475 138.368 54.6571 137.286 55.6763C136.225 56.6747 135.622 57.9851 135.477 59.6075H147.114C146.969 57.9851 146.355 56.6747 145.273 55.6763C144.213 54.6571 142.881 54.1475 141.28 54.1475ZM160.546 68.9363C158.924 68.9363 157.468 68.5827 156.178 67.8755C154.909 67.1683 153.911 66.1803 153.183 64.9115C152.455 63.6219 152.091 62.1763 152.091 60.5747C152.091 58.9731 152.455 57.5379 153.183 56.2691C153.911 55.0003 154.909 54.0123 156.178 53.3051C157.468 52.5979 158.924 52.2443 160.546 52.2443C161.961 52.2443 163.219 52.5251 164.321 53.0867C165.445 53.6275 166.329 54.4283 166.973 55.4891L165.32 56.6123C164.779 55.8011 164.093 55.1979 163.261 54.8027C162.429 54.3867 161.524 54.1787 160.546 54.1787C159.361 54.1787 158.289 54.4491 157.333 54.9899C156.397 55.5099 155.658 56.2587 155.117 57.2363C154.597 58.2139 154.337 59.3267 154.337 60.5747C154.337 61.8435 154.597 62.9667 155.117 63.9443C155.658 64.9011 156.397 65.6499 157.333 66.1907C158.289 66.7107 159.361 66.9707 160.546 66.9707C161.524 66.9707 162.429 66.7731 163.261 66.3779C164.093 65.9827 164.779 65.3795 165.32 64.5683L166.973 65.6915C166.329 66.7523 165.445 67.5635 164.321 68.1251C163.198 68.6659 161.94 68.9363 160.546 68.9363ZM177.759 68.9363C176.178 68.9363 174.753 68.5827 173.484 67.8755C172.216 67.1475 171.217 66.1491 170.489 64.8803C169.761 63.6115 169.397 62.1763 169.397 60.5747C169.397 58.9731 169.761 57.5379 170.489 56.2691C171.217 55.0003 172.216 54.0123 173.484 53.3051C174.753 52.5979 176.178 52.2443 177.759 52.2443C179.34 52.2443 180.764 52.5979 182.033 53.3051C183.302 54.0123 184.29 55.0003 184.997 56.2691C185.725 57.5379 186.089 58.9731 186.089 60.5747C186.089 62.1763 185.725 63.6115 184.997 64.8803C184.29 66.1491 183.302 67.1475 182.033 67.8755C180.764 68.5827 179.34 68.9363 177.759 68.9363ZM177.759 66.9707C178.924 66.9707 179.964 66.7107 180.879 66.1907C181.815 65.6499 182.543 64.8907 183.063 63.9131C183.583 62.9355 183.843 61.8227 183.843 60.5747C183.843 59.3267 183.583 58.2139 183.063 57.2363C182.543 56.2587 181.815 55.5099 180.879 54.9899C179.964 54.4491 178.924 54.1787 177.759 54.1787C176.594 54.1787 175.544 54.4491 174.608 54.9899C173.692 55.5099 172.964 56.2587 172.424 57.2363C171.904 58.2139 171.644 59.3267 171.644 60.5747C171.644 61.8227 171.904 62.9355 172.424 63.9131C172.964 64.8907 173.692 65.6499 174.608 66.1907C175.544 66.7107 176.594 66.9707 177.759 66.9707ZM211.079 52.2443C213.138 52.2443 214.75 52.8371 215.915 54.0227C217.101 55.2083 217.693 56.9555 217.693 59.2643V68.7803H215.478V59.4827C215.478 57.7771 215.062 56.4771 214.23 55.5827C213.419 54.6883 212.265 54.2411 210.767 54.2411C209.061 54.2411 207.72 54.7715 206.742 55.8323C205.765 56.8723 205.276 58.3179 205.276 60.1691V68.7803H203.061V59.4827C203.061 57.7771 202.645 56.4771 201.813 55.5827C201.001 54.6883 199.837 54.2411 198.318 54.2411C196.633 54.2411 195.292 54.7715 194.293 55.8323C193.316 56.8723 192.827 58.3179 192.827 60.1691V68.7803H190.612V52.3691H192.733V55.3643C193.316 54.3659 194.127 53.5963 195.167 53.0555C196.207 52.5147 197.403 52.2443 198.755 52.2443C200.128 52.2443 201.313 52.5355 202.312 53.1179C203.331 53.7003 204.09 54.5635 204.589 55.7075C205.193 54.6259 206.056 53.7835 207.179 53.1803C208.323 52.5563 209.623 52.2443 211.079 52.2443ZM244.168 52.2443C246.227 52.2443 247.839 52.8371 249.004 54.0227C250.19 55.2083 250.782 56.9555 250.782 59.2643V68.7803H248.567V59.4827C248.567 57.7771 248.151 56.4771 247.319 55.5827C246.508 54.6883 245.354 54.2411 243.856 54.2411C242.15 54.2411 240.809 54.7715 239.831 55.8323C238.854 56.8723 238.365 58.3179 238.365 60.1691V68.7803H236.15V59.4827C236.15 57.7771 235.734 56.4771 234.902 55.5827C234.09 54.6883 232.926 54.2411 231.407 54.2411C229.722 54.2411 228.381 54.7715 227.382 55.8323C226.405 56.8723 225.916 58.3179 225.916 60.1691V68.7803H223.701V52.3691H225.822V55.3643C226.405 54.3659 227.216 53.5963 228.256 53.0555C229.296 52.5147 230.492 52.2443 231.844 52.2443C233.217 52.2443 234.402 52.5355 235.401 53.1179C236.42 53.7003 237.179 54.5635 237.678 55.7075C238.282 54.6259 239.145 53.7835 240.268 53.1803C241.412 52.5563 242.712 52.2443 244.168 52.2443ZM271.14 61.2611H257.412C257.537 62.9667 258.192 64.3499 259.378 65.4107C260.564 66.4507 262.061 66.9707 263.871 66.9707C264.89 66.9707 265.826 66.7939 266.679 66.4403C267.532 66.0659 268.27 65.5251 268.894 64.8179L270.142 66.2531C269.414 67.1267 268.499 67.7923 267.396 68.2499C266.315 68.7075 265.119 68.9363 263.808 68.9363C262.124 68.9363 260.626 68.5827 259.316 67.8755C258.026 67.1475 257.017 66.1491 256.289 64.8803C255.561 63.6115 255.197 62.1763 255.197 60.5747C255.197 58.9731 255.54 57.5379 256.227 56.2691C256.934 55.0003 257.891 54.0123 259.097 53.3051C260.324 52.5979 261.697 52.2443 263.216 52.2443C264.734 52.2443 266.096 52.5979 267.303 53.3051C268.509 54.0123 269.456 55.0003 270.142 56.2691C270.828 57.5171 271.172 58.9523 271.172 60.5747L271.14 61.2611ZM263.216 54.1475C261.635 54.1475 260.304 54.6571 259.222 55.6763C258.161 56.6747 257.558 57.9851 257.412 59.6075H269.05C268.904 57.9851 268.291 56.6747 267.209 55.6763C266.148 54.6571 264.817 54.1475 263.216 54.1475ZM284.042 52.2443C286.101 52.2443 287.734 52.8475 288.941 54.0539C290.168 55.2395 290.781 56.9763 290.781 59.2643V68.7803H288.566V59.4827C288.566 57.7771 288.14 56.4771 287.287 55.5827C286.434 54.6883 285.217 54.2411 283.637 54.2411C281.869 54.2411 280.465 54.7715 279.425 55.8323C278.405 56.8723 277.896 58.3179 277.896 60.1691V68.7803H275.681V52.3691H277.802V55.3955C278.405 54.3971 279.237 53.6275 280.298 53.0867C281.38 52.5251 282.628 52.2443 284.042 52.2443ZM311.832 45.6299V68.7803H309.711V65.5355C309.045 66.6379 308.161 67.4803 307.059 68.0627C305.977 68.6451 304.75 68.9363 303.377 68.9363C301.838 68.9363 300.444 68.5827 299.196 67.8755C297.948 67.1683 296.971 66.1803 296.264 64.9115C295.556 63.6427 295.203 62.1971 295.203 60.5747C295.203 58.9523 295.556 57.5067 296.264 56.2379C296.971 54.9691 297.948 53.9915 299.196 53.3051C300.444 52.5979 301.838 52.2443 303.377 52.2443C304.708 52.2443 305.904 52.5251 306.965 53.0867C308.047 53.6275 308.931 54.4283 309.617 55.4891V45.6299H311.832ZM303.564 66.9707C304.708 66.9707 305.738 66.7107 306.653 66.1907C307.589 65.6499 308.317 64.8907 308.837 63.9131C309.378 62.9355 309.648 61.8227 309.648 60.5747C309.648 59.3267 309.378 58.2139 308.837 57.2363C308.317 56.2587 307.589 55.5099 306.653 54.9899C305.738 54.4491 304.708 54.1787 303.564 54.1787C302.4 54.1787 301.349 54.4491 300.413 54.9899C299.498 55.5099 298.77 56.2587 298.229 57.2363C297.709 58.2139 297.449 59.3267 297.449 60.5747C297.449 61.8227 297.709 62.9355 298.229 63.9131C298.77 64.8907 299.498 65.6499 300.413 66.1907C301.349 66.7107 302.4 66.9707 303.564 66.9707ZM323.742 52.2443C325.885 52.2443 327.528 52.7851 328.672 53.8667C329.816 54.9275 330.388 56.5083 330.388 58.6091V68.7803H328.266V66.2219C327.767 67.0747 327.029 67.7403 326.051 68.2187C325.094 68.6971 323.95 68.9363 322.619 68.9363C320.789 68.9363 319.333 68.4995 318.251 67.6259C317.17 66.7523 316.629 65.5979 316.629 64.1627C316.629 62.7691 317.128 61.6459 318.126 60.7931C319.146 59.9403 320.758 59.5139 322.962 59.5139H328.173V58.5155C328.173 57.1011 327.778 56.0299 326.987 55.3019C326.197 54.5531 325.042 54.1787 323.524 54.1787C322.484 54.1787 321.486 54.3555 320.529 54.7091C319.572 55.0419 318.75 55.5099 318.064 56.1131L317.066 54.4595C317.898 53.7523 318.896 53.2115 320.061 52.8371C321.226 52.4419 322.453 52.2443 323.742 52.2443ZM322.962 67.1891C324.21 67.1891 325.282 66.9083 326.176 66.3467C327.07 65.7643 327.736 64.9323 328.173 63.8507V61.1675H323.025C320.217 61.1675 318.813 62.1451 318.813 64.1003C318.813 65.0571 319.177 65.8163 319.905 66.3779C320.633 66.9187 321.652 67.1891 322.962 67.1891ZM345.047 67.7819C344.631 68.1563 344.111 68.4475 343.487 68.6555C342.884 68.8427 342.25 68.9363 341.584 68.9363C340.045 68.9363 338.859 68.5203 338.027 67.6883C337.195 66.8563 336.779 65.6811 336.779 64.1627V54.2411H333.846V52.3691H336.779V48.7811H338.994V52.3691H343.986V54.2411H338.994V64.0379C338.994 65.0155 339.234 65.7643 339.712 66.2843C340.211 66.7835 340.918 67.0331 341.834 67.0331C342.291 67.0331 342.728 66.9603 343.144 66.8147C343.581 66.6691 343.955 66.4611 344.267 66.1907L345.047 67.7819ZM349.08 52.3691H351.295V68.7803H349.08V52.3691ZM350.203 48.7811C349.745 48.7811 349.361 48.6251 349.049 48.3131C348.737 48.0011 348.581 47.6267 348.581 47.1899C348.581 46.7739 348.737 46.4099 349.049 46.0979C349.361 45.7859 349.745 45.6299 350.203 45.6299C350.661 45.6299 351.045 45.7859 351.357 46.0979C351.669 46.3891 351.825 46.7427 351.825 47.1587C351.825 47.6163 351.669 48.0011 351.357 48.3131C351.045 48.6251 350.661 48.7811 350.203 48.7811ZM364.167 68.9363C362.586 68.9363 361.161 68.5827 359.892 67.8755C358.623 67.1475 357.625 66.1491 356.897 64.8803C356.169 63.6115 355.805 62.1763 355.805 60.5747C355.805 58.9731 356.169 57.5379 356.897 56.2691C357.625 55.0003 358.623 54.0123 359.892 53.3051C361.161 52.5979 362.586 52.2443 364.167 52.2443C365.747 52.2443 367.172 52.5979 368.441 53.3051C369.71 54.0123 370.698 55.0003 371.405 56.2691C372.133 57.5379 372.497 58.9731 372.497 60.5747C372.497 62.1763 372.133 63.6115 371.405 64.8803C370.698 66.1491 369.71 67.1475 368.441 67.8755C367.172 68.5827 365.747 68.9363 364.167 68.9363ZM364.167 66.9707C365.331 66.9707 366.371 66.7107 367.287 66.1907C368.223 65.6499 368.951 64.8907 369.471 63.9131C369.991 62.9355 370.251 61.8227 370.251 60.5747C370.251 59.3267 369.991 58.2139 369.471 57.2363C368.951 56.2587 368.223 55.5099 367.287 54.9899C366.371 54.4491 365.331 54.1787 364.167 54.1787C363.002 54.1787 361.951 54.4491 361.015 54.9899C360.1 55.5099 359.372 56.2587 358.831 57.2363C358.311 58.2139 358.051 59.3267 358.051 60.5747C358.051 61.8227 358.311 62.9355 358.831 63.9131C359.372 64.8907 360.1 65.6499 361.015 66.1907C361.951 66.7107 363.002 66.9707 364.167 66.9707ZM385.381 52.2443C387.44 52.2443 389.073 52.8475 390.28 54.0539C391.507 55.2395 392.12 56.9763 392.12 59.2643V68.7803H389.905V59.4827C389.905 57.7771 389.479 56.4771 388.626 55.5827C387.773 54.6883 386.556 54.2411 384.976 54.2411C383.208 54.2411 381.804 54.7715 380.764 55.8323C379.744 56.8723 379.235 58.3179 379.235 60.1691V68.7803H377.02V52.3691H379.141V55.3955C379.744 54.3971 380.576 53.6275 381.637 53.0867C382.719 52.5251 383.967 52.2443 385.381 52.2443Z" fill="white"/>
<path d="M0 38.9984C0 17.4987 17.5019 -0.00158506 39.0032 1.0768e-07C60.5029 0.00158528 78.0016 17.5035 78 39.0032C78 60.5393 60.4854 78.0143 38.9176 78C17.4797 77.9857 0 60.468 0 38.9984ZM24.892 39.0872C24.892 39.0872 24.9015 39.0872 24.9062 39.0872C24.9062 40.9609 24.8539 42.8361 24.9173 44.7082C25.0172 47.6788 26.6769 49.7649 29.5302 50.3276C30.7444 50.567 32.0617 50.5781 33.2902 50.4021C36.4637 49.9456 38.3073 47.8183 38.358 44.6131C38.4166 40.9196 38.4151 37.223 38.358 33.5296C38.312 30.5764 36.6745 28.5188 33.8957 27.8483C33.0619 27.647 32.1742 27.6058 31.3119 27.6042C27.3347 27.5931 24.9268 29.9835 24.8935 33.9417C24.8793 35.6569 24.8904 37.372 24.8904 39.0872H24.892ZM14.3268 27.433C13.2822 27.433 12.8462 27.712 12.5831 28.5696C10.5113 35.3192 8.44104 42.0673 6.37556 48.8186C6.13145 49.6159 6.4041 50.0582 7.27436 50.3308C8.1351 50.6019 8.66297 50.3847 8.90391 49.6254C9.30179 48.3715 9.69333 47.1145 10.0547 45.8495C10.1673 45.4548 10.3385 45.3026 10.7601 45.3058C13.1363 45.3248 15.5125 45.3232 17.8887 45.3058C18.3103 45.3026 18.4847 45.4453 18.5957 45.8511C18.9222 47.0447 19.2995 48.2241 19.653 49.4114C19.9272 50.334 20.3948 50.605 21.3015 50.3578C22.2479 50.0994 22.5491 49.5842 22.2622 48.6474C20.2173 42.0007 18.1677 35.3541 16.1149 28.7091C15.7883 27.6533 15.4586 27.4298 14.3284 27.4314L14.3268 27.433ZM63.93 38.7971C63.7477 38.4896 63.6336 38.3184 63.54 38.1377C61.8661 34.9103 60.1953 31.6797 58.523 28.4507C58.0553 27.5487 57.4562 27.349 56.5843 27.7976C55.8028 28.2002 55.703 28.6916 56.2102 29.638C58.1758 33.3108 60.1541 36.9773 62.0928 40.6628C62.3385 41.1289 62.4859 41.6995 62.497 42.2242C62.5414 44.4149 62.5144 46.6057 62.516 48.7979C62.516 50.0201 62.8568 50.4085 63.9252 50.4069C64.9683 50.4069 65.2806 50.0471 65.2806 48.8487C65.2806 46.6833 65.2457 44.518 65.3028 42.3558C65.3186 41.7265 65.4851 41.0433 65.7767 40.4885C67.6995 36.8251 69.6778 33.1888 71.6355 29.5429C72.0778 28.7186 71.9589 28.197 71.263 27.8103C70.4609 27.3632 69.7714 27.5487 69.3275 28.3397C69.1357 28.6837 68.9645 29.0388 68.7838 29.3891C67.1891 32.4802 65.5944 35.5713 63.9316 38.7987L63.93 38.7971ZM48.9882 29.9598C50.6589 29.9598 52.214 29.9645 53.769 29.9582C54.5838 29.955 54.9801 29.5492 54.9754 28.7471C54.9706 27.9862 54.5933 27.5804 53.8007 27.5788C49.7078 27.5677 45.6149 27.5677 41.522 27.5788C40.6993 27.5804 40.3062 28.0068 40.3173 28.7962C40.3268 29.5857 40.7199 29.9566 41.5648 29.9582C43.1151 29.9613 44.6654 29.9582 46.2854 29.9582V30.8855C46.2854 34.7945 46.2854 38.702 46.2854 42.611C46.2854 44.8033 46.2791 46.994 46.2902 49.1863C46.295 49.9932 46.6326 50.3356 47.4268 50.4053C48.5126 50.502 48.9882 50.0708 48.9882 48.9739C48.9882 42.9534 48.9882 36.9313 48.9882 30.9109V29.9582V29.9598Z" fill="white"/>
<path d="M24.8896 39.087C24.8896 37.3719 24.8769 35.6567 24.8927 33.9416C24.926 29.9834 27.3355 27.5914 31.3111 27.6041C32.175 27.6072 33.0627 27.6469 33.8949 27.8482C36.6737 28.5203 38.3112 30.5778 38.3572 33.5294C38.4143 37.2229 38.4174 40.9195 38.3572 44.613C38.3065 47.8166 36.4629 49.9455 33.2894 50.402C32.0609 50.578 30.7436 50.5669 29.5294 50.3275C26.6745 49.7648 25.0164 47.6803 24.9165 44.7081C24.8531 42.836 24.9054 40.9607 24.9054 39.087C24.9007 39.087 24.8959 39.087 24.8912 39.087H24.8896ZM35.6893 39.152C35.6893 37.4369 35.7163 35.7217 35.6814 34.0081C35.6513 32.5403 35.1995 31.2404 33.8204 30.4875C30.8054 28.8421 27.7048 30.6095 27.5891 34.0208C27.5844 34.1524 27.5875 34.284 27.5875 34.4171C27.5875 37.5304 27.5764 40.6421 27.597 43.7554C27.6002 44.3562 27.67 44.9696 27.8079 45.5545C28.0345 46.5152 28.5624 47.2776 29.4802 47.7373C32.546 49.2765 35.6735 47.3902 35.6893 43.9805C35.6973 42.3715 35.6893 40.7626 35.6893 39.1536V39.152Z" fill="black"/>
<path d="M14.3246 27.4331C15.4549 27.4331 15.7846 27.6566 16.1111 28.7108C18.1639 35.3558 20.2136 42.0008 22.2584 48.6491C22.5469 49.5859 22.2458 50.1011 21.2978 50.3595C20.3911 50.6067 19.9235 50.3357 19.6492 49.4131C19.2957 48.2258 18.9185 47.0464 18.5919 45.8528C18.481 45.447 18.3066 45.3043 17.8849 45.3075C15.5088 45.3249 13.1326 45.3265 10.7564 45.3075C10.3348 45.3043 10.1636 45.4565 10.051 45.8512C9.69119 47.1162 9.29807 48.3732 8.90019 49.6271C8.65924 50.3864 8.13138 50.602 7.27063 50.3325C6.40196 50.0599 6.12931 49.6176 6.37184 48.8203C8.43732 42.069 10.5076 35.3209 12.5794 28.5713C12.8425 27.7137 13.2784 27.4363 14.3231 27.4347L14.3246 27.4331ZM17.7233 42.9757C16.593 39.1824 15.4961 35.4969 14.3278 31.5752C13.1516 35.5143 12.0468 39.2189 10.9245 42.9757H17.7233Z" fill="black"/>
<path d="M63.929 38.7972C65.5934 35.5714 67.1881 32.4803 68.7812 29.3877C68.9619 29.0373 69.1331 28.6823 69.3249 28.3383C69.7672 27.5473 70.4567 27.3618 71.2604 27.8088C71.9563 28.1972 72.0752 28.7171 71.6329 29.5414C69.6768 33.1889 67.6985 36.8237 65.7741 40.487C65.4825 41.0434 65.316 41.725 65.3002 42.3544C65.2431 44.5181 65.278 46.6835 65.278 48.8472C65.278 50.0472 64.9657 50.4039 63.9227 50.4055C62.8558 50.4055 62.515 50.0187 62.5134 48.7965C62.5134 46.6058 62.5388 44.4135 62.4944 42.2228C62.4833 41.6965 62.3343 41.1274 62.0902 40.6614C60.1515 36.9743 58.1732 33.3094 56.2076 29.6365C55.7004 28.6886 55.7987 28.1988 56.5817 27.7961C57.4536 27.346 58.0528 27.5457 58.5204 28.4492C60.1928 31.6782 61.8635 34.9072 63.5375 38.1362C63.631 38.3169 63.7451 38.4881 63.9274 38.7956L63.929 38.7972Z" fill="black"/>
<path d="M48.9873 29.9597V30.9124C48.9873 36.9329 48.9873 42.955 48.9873 48.9755C48.9873 50.0724 48.5118 50.5036 47.426 50.4069C46.6318 50.3371 46.2926 49.9947 46.2894 49.1879C46.2783 46.9956 46.2846 44.8049 46.2846 42.6126C46.2846 38.7035 46.2846 34.7961 46.2846 30.8871V29.9597C44.6646 29.9597 43.1143 29.9629 41.564 29.9597C40.7191 29.9581 40.326 29.5872 40.3165 28.7978C40.3069 28.0084 40.6985 27.582 41.5212 27.5804C45.6141 27.5709 49.707 27.5709 53.7999 27.5804C54.5925 27.582 54.9698 27.9878 54.9745 28.7487C54.9793 29.5508 54.5846 29.9566 53.7682 29.9597C52.2132 29.9661 50.6565 29.9613 48.9873 29.9613V29.9597Z" fill="black"/>
<path d="M35.6888 39.1523C35.6888 40.7613 35.6951 42.3702 35.6888 43.9792C35.6729 47.3889 32.5454 49.2752 29.4797 47.736C28.5618 47.2747 28.034 46.5139 27.8073 45.5532C27.6694 44.9683 27.6012 44.3548 27.5965 43.7541C27.5759 40.6424 27.587 37.5291 27.587 34.4158C27.587 34.2842 27.5838 34.1527 27.5886 34.0195C27.7027 30.6082 30.8049 28.8408 33.8199 30.4862C35.2006 31.2391 35.6507 32.539 35.6809 34.0068C35.7157 35.7204 35.6888 37.4356 35.6888 39.1507V39.1523Z" fill="white"/>
<path d="M17.7246 42.9758H10.9258C12.0465 39.2189 13.1529 35.5143 14.3291 31.5752C15.4974 35.4985 16.5944 39.1824 17.7246 42.9758Z" fill="white"/>
</svg>
