<svg width="50" height="50" viewBox="0 0 50 50" fill="none" xmlns="http://www.w3.org/2000/svg">
<path d="M6.25 28.9474C6.25 31.2281 6.79688 33.3882 7.89062 35.4276C8.98438 37.4671 10.5469 39.2544 12.5781 40.7895C12.526 40.5702 12.5 40.3728 12.5 40.1974V39.6053C12.5 38.2018 12.8125 36.886 13.4375 35.6579C14.0625 34.4298 14.974 33.3114 16.1719 32.3026L25 25L33.8281 32.3026C35.026 33.3114 35.9375 34.4298 36.5625 35.6579C37.1875 36.886 37.5 38.2018 37.5 39.6053V40.1974C37.5 40.3728 37.474 40.5702 37.4219 40.7895C39.4531 39.2544 41.0156 37.4671 42.1094 35.4276C43.2031 33.3882 43.75 31.2281 43.75 28.9474C43.75 26.7544 43.2682 24.682 42.3047 22.7303C41.3411 20.7785 39.9479 19.0351 38.125 17.5C37.0833 18.0702 35.9896 18.4978 34.8438 18.7829C33.6979 19.068 32.526 19.2105 31.3281 19.2105C28.099 19.2105 25.2995 18.3114 22.9297 16.5132C20.5599 14.7149 19.1927 12.5 18.8281 9.86842C16.7969 11.3158 15 12.818 13.4375 14.375C11.875 15.932 10.5599 17.511 9.49219 19.1118C8.42448 20.7127 7.61719 22.3465 7.07031 24.0132C6.52344 25.6798 6.25 27.3246 6.25 28.9474ZM25 32.3684L20.5469 36.0526C19.974 36.5351 19.5312 37.0833 19.2188 37.6974C18.9062 38.3114 18.75 38.9474 18.75 39.6053C18.75 41.0088 19.362 42.2149 20.5859 43.2237C21.8099 44.2325 23.2812 44.7368 25 44.7368C26.7188 44.7368 28.1901 44.2325 29.4141 43.2237C30.638 42.2149 31.25 41.0088 31.25 39.6053C31.25 38.9035 31.0938 38.2566 30.7812 37.6645C30.4688 37.0724 30.026 36.5351 29.4531 36.0526L25 32.3684ZM25 0V8.68421C25 10.1754 25.612 11.4254 26.8359 12.4342C28.0599 13.443 29.5573 13.9474 31.3281 13.9474C32.2656 13.9474 33.138 13.7829 33.9453 13.4539C34.7526 13.125 35.4688 12.6316 36.0938 11.9737L37.5 10.5263C41.3542 12.3684 44.401 14.9342 46.6406 18.2237C48.8802 21.5132 50 25.0877 50 28.9474C50 34.8246 47.5781 39.8026 42.7344 43.8816C37.8906 47.9605 31.9792 50 25 50C18.0208 50 12.1094 47.9605 7.26562 43.8816C2.42188 39.8026 0 34.8246 0 28.9474C0 23.2895 2.2526 17.9167 6.75781 12.8289C11.263 7.74123 17.3438 3.46491 25 0Z" fill="white"/>
</svg>
