<svg width="512" height="512" viewBox="0 0 512 512" fill="none" xmlns="http://www.w3.org/2000/svg">
<g clip-path="url(#clip0_94_32)">
<path d="M256 0C397.312 0 512 114.688 512 256C512 397.312 397.312 512 256 512C114.688 512 0 397.312 0 256C0 114.688 114.688 0 256 0Z" fill="white"/>
<path d="M255.712 69C274.144 69 279.469 72.6864 284.794 89.8896C318.381 198.024 351.559 306.158 384.736 414.293C389.242 429.448 384.327 438.05 369.171 442.146C354.426 446.242 346.643 441.736 342.547 426.581C336.813 407.33 330.669 388.078 325.344 368.827C323.706 362.274 320.839 359.816 313.875 359.816C275.373 360.226 236.461 360.226 197.959 359.816C190.995 359.816 188.128 362.274 186.49 368.827C180.755 389.307 174.202 409.787 167.648 430.267C163.552 442.555 154.951 446.242 141.024 441.736C126.688 437.23 122.592 430.267 126.279 417.16C159.866 307.387 193.453 197.614 227.45 87.8416C231.546 73.5056 238.509 69 255.712 69ZM311.008 321.723C292.576 259.874 274.963 200.072 255.712 136.174C236.461 200.482 218.439 260.693 200.416 321.723H311.008Z" fill="black"/>
</g>
<defs>
<clipPath id="clip0_94_32">
<rect width="512" height="512" fill="white"/>
</clipPath>
</defs>
</svg>
