<svg width="240" height="50" viewBox="0 0 240 50" fill="none" xmlns="http://www.w3.org/2000/svg">
<path d="M91.112 26.4L88.856 28.752V33H84.992V16.2H88.856V24.048L96.296 16.2H100.616L93.656 23.688L101.024 33H96.488L91.112 26.4ZM108.099 33.192C106.739 33.192 105.515 32.912 104.427 32.352C103.355 31.776 102.515 30.984 101.907 29.976C101.299 28.968 100.995 27.824 100.995 26.544C100.995 25.264 101.299 24.12 101.907 23.112C102.515 22.104 103.355 21.32 104.427 20.76C105.515 20.184 106.739 19.896 108.099 19.896C109.459 19.896 110.675 20.184 111.747 20.76C112.819 21.32 113.659 22.104 114.267 23.112C114.875 24.12 115.179 25.264 115.179 26.544C115.179 27.824 114.875 28.968 114.267 29.976C113.659 30.984 112.819 31.776 111.747 32.352C110.675 32.912 109.459 33.192 108.099 33.192ZM108.099 30.12C109.059 30.12 109.843 29.8 110.451 29.16C111.075 28.504 111.387 27.632 111.387 26.544C111.387 25.456 111.075 24.592 110.451 23.952C109.843 23.296 109.059 22.968 108.099 22.968C107.139 22.968 106.347 23.296 105.723 23.952C105.099 24.592 104.787 25.456 104.787 26.544C104.787 27.632 105.099 28.504 105.723 29.16C106.347 29.8 107.139 30.12 108.099 30.12ZM117.681 15.192H121.425V33H117.681V15.192ZM137.548 26.592C137.548 26.64 137.524 26.976 137.476 27.6H127.708C127.884 28.4 128.3 29.032 128.956 29.496C129.612 29.96 130.428 30.192 131.404 30.192C132.076 30.192 132.668 30.096 133.18 29.904C133.708 29.696 134.196 29.376 134.644 28.944L136.636 31.104C135.42 32.496 133.644 33.192 131.308 33.192C129.852 33.192 128.564 32.912 127.444 32.352C126.324 31.776 125.46 30.984 124.852 29.976C124.244 28.968 123.94 27.824 123.94 26.544C123.94 25.28 124.236 24.144 124.828 23.136C125.436 22.112 126.26 21.32 127.3 20.76C128.356 20.184 129.532 19.896 130.828 19.896C132.092 19.896 133.236 20.168 134.26 20.712C135.284 21.256 136.084 22.04 136.66 23.064C137.252 24.072 137.548 25.248 137.548 26.592ZM130.852 22.728C130.004 22.728 129.292 22.968 128.716 23.448C128.14 23.928 127.788 24.584 127.66 25.416H134.02C133.892 24.6 133.54 23.952 132.964 23.472C132.388 22.976 131.684 22.728 130.852 22.728ZM145.585 27.936L143.785 29.712V33H140.041V15.192H143.785V25.272L149.257 20.088H153.721L148.345 25.56L154.201 33H149.665L145.585 27.936ZM159.806 33.192C158.734 33.192 157.686 33.064 156.662 32.808C155.638 32.536 154.822 32.2 154.214 31.8L155.462 29.112C156.038 29.48 156.734 29.784 157.55 30.024C158.366 30.248 159.166 30.36 159.95 30.36C161.534 30.36 162.326 29.968 162.326 29.184C162.326 28.816 162.11 28.552 161.678 28.392C161.246 28.232 160.582 28.096 159.686 27.984C158.63 27.824 157.758 27.64 157.07 27.432C156.382 27.224 155.782 26.856 155.27 26.328C154.774 25.8 154.526 25.048 154.526 24.072C154.526 23.256 154.758 22.536 155.222 21.912C155.702 21.272 156.39 20.776 157.286 20.424C158.198 20.072 159.27 19.896 160.502 19.896C161.414 19.896 162.318 20 163.214 20.208C164.126 20.4 164.878 20.672 165.47 21.024L164.222 23.688C163.086 23.048 161.846 22.728 160.502 22.728C159.702 22.728 159.102 22.84 158.702 23.064C158.302 23.288 158.102 23.576 158.102 23.928C158.102 24.328 158.318 24.608 158.75 24.768C159.182 24.928 159.87 25.08 160.814 25.224C161.87 25.4 162.734 25.592 163.406 25.8C164.078 25.992 164.662 26.352 165.158 26.88C165.654 27.408 165.902 28.144 165.902 29.088C165.902 29.888 165.662 30.6 165.182 31.224C164.702 31.848 163.998 32.336 163.07 32.688C162.158 33.024 161.07 33.192 159.806 33.192ZM168.212 20.088H171.956V33H168.212V20.088ZM170.084 18.288C169.396 18.288 168.836 18.088 168.404 17.688C167.972 17.288 167.756 16.792 167.756 16.2C167.756 15.608 167.972 15.112 168.404 14.712C168.836 14.312 169.396 14.112 170.084 14.112C170.772 14.112 171.332 14.304 171.764 14.688C172.196 15.072 172.412 15.552 172.412 16.128C172.412 16.752 172.196 17.272 171.764 17.688C171.332 18.088 170.772 18.288 170.084 18.288ZM188.012 33.288C186.684 33.288 185.396 33.112 184.148 32.76C182.916 32.392 181.924 31.92 181.172 31.344L182.492 28.416C183.212 28.944 184.068 29.368 185.06 29.688C186.052 30.008 187.044 30.168 188.036 30.168C189.14 30.168 189.956 30.008 190.484 29.688C191.012 29.352 191.276 28.912 191.276 28.368C191.276 27.968 191.116 27.64 190.796 27.384C190.492 27.112 190.092 26.896 189.596 26.736C189.116 26.576 188.46 26.4 187.628 26.208C186.348 25.904 185.3 25.6 184.484 25.296C183.668 24.992 182.964 24.504 182.372 23.832C181.796 23.16 181.508 22.264 181.508 21.144C181.508 20.168 181.772 19.288 182.3 18.504C182.828 17.704 183.62 17.072 184.676 16.608C185.748 16.144 187.052 15.912 188.588 15.912C189.66 15.912 190.708 16.04 191.732 16.296C192.756 16.552 193.652 16.92 194.42 17.4L193.22 20.352C191.668 19.472 190.116 19.032 188.564 19.032C187.476 19.032 186.668 19.208 186.14 19.56C185.628 19.912 185.372 20.376 185.372 20.952C185.372 21.528 185.668 21.96 186.26 22.248C186.868 22.52 187.788 22.792 189.02 23.064C190.3 23.368 191.348 23.672 192.164 23.976C192.98 24.28 193.676 24.76 194.252 25.416C194.844 26.072 195.14 26.96 195.14 28.08C195.14 29.04 194.868 29.92 194.324 30.72C193.796 31.504 192.996 32.128 191.924 32.592C190.852 33.056 189.548 33.288 188.012 33.288ZM202.741 19.896C204.741 19.896 206.277 20.376 207.349 21.336C208.421 22.28 208.957 23.712 208.957 25.632V33H205.453V31.392C204.749 32.592 203.437 33.192 201.517 33.192C200.525 33.192 199.661 33.024 198.925 32.688C198.205 32.352 197.653 31.888 197.269 31.296C196.885 30.704 196.693 30.032 196.693 29.28C196.693 28.08 197.141 27.136 198.037 26.448C198.949 25.76 200.349 25.416 202.237 25.416H205.213C205.213 24.6 204.965 23.976 204.469 23.544C203.973 23.096 203.229 22.872 202.237 22.872C201.549 22.872 200.869 22.984 200.197 23.208C199.541 23.416 198.981 23.704 198.517 24.072L197.173 21.456C197.877 20.96 198.717 20.576 199.693 20.304C200.685 20.032 201.701 19.896 202.741 19.896ZM202.453 30.672C203.093 30.672 203.661 30.528 204.157 30.24C204.653 29.936 205.005 29.496 205.213 28.92V27.6H202.645C201.109 27.6 200.341 28.104 200.341 29.112C200.341 29.592 200.525 29.976 200.893 30.264C201.277 30.536 201.797 30.672 202.453 30.672ZM224.927 20.088L219.095 33.792C218.503 35.28 217.767 36.328 216.887 36.936C216.023 37.544 214.975 37.848 213.743 37.848C213.071 37.848 212.407 37.744 211.751 37.536C211.095 37.328 210.559 37.04 210.143 36.672L211.511 34.008C211.799 34.264 212.127 34.464 212.495 34.608C212.879 34.752 213.255 34.824 213.623 34.824C214.135 34.824 214.551 34.696 214.871 34.44C215.191 34.2 215.479 33.792 215.735 33.216L215.783 33.096L210.191 20.088H214.055L217.679 28.848L221.327 20.088H224.927ZM231.241 19.896C233.241 19.896 234.777 20.376 235.849 21.336C236.921 22.28 237.457 23.712 237.457 25.632V33H233.953V31.392C233.249 32.592 231.937 33.192 230.017 33.192C229.025 33.192 228.161 33.024 227.425 32.688C226.705 32.352 226.153 31.888 225.769 31.296C225.385 30.704 225.193 30.032 225.193 29.28C225.193 28.08 225.641 27.136 226.537 26.448C227.449 25.76 228.849 25.416 230.737 25.416H233.713C233.713 24.6 233.465 23.976 232.969 23.544C232.473 23.096 231.729 22.872 230.737 22.872C230.049 22.872 229.369 22.984 228.697 23.208C228.041 23.416 227.481 23.704 227.017 24.072L225.673 21.456C226.377 20.96 227.217 20.576 228.193 20.304C229.185 20.032 230.201 19.896 231.241 19.896ZM230.953 30.672C231.593 30.672 232.161 30.528 232.657 30.24C233.153 29.936 233.505 29.496 233.713 28.92V27.6H231.145C229.609 27.6 228.841 28.104 228.841 29.112C228.841 29.592 229.025 29.976 229.393 30.264C229.777 30.536 230.297 30.672 230.953 30.672Z" fill="white"/>
<path d="M26.25 32.5C28 32.5 29.4792 31.8958 30.6875 30.6875C31.8958 29.4792 32.5 28 32.5 26.25V12.5H40V7.5H30V21.25C29.4583 20.8333 28.875 20.5208 28.25 20.3125C27.625 20.1042 26.9583 20 26.25 20C24.5 20 23.0208 20.6042 21.8125 21.8125C20.6042 23.0208 20 24.5 20 26.25C20 28 20.6042 29.4792 21.8125 30.6875C23.0208 31.8958 24.5 32.5 26.25 32.5ZM15 40C13.625 40 12.4479 39.5104 11.4688 38.5312C10.4896 37.5521 10 36.375 10 35V5C10 3.625 10.4896 2.44792 11.4688 1.46875C12.4479 0.489583 13.625 0 15 0H45C46.375 0 47.5521 0.489583 48.5312 1.46875C49.5104 2.44792 50 3.625 50 5V35C50 36.375 49.5104 37.5521 48.5312 38.5312C47.5521 39.5104 46.375 40 45 40H15ZM15 35H45V5H15V35ZM5 50C3.625 50 2.44792 49.5104 1.46875 48.5312C0.489583 47.5521 0 46.375 0 45V10H5V45H40V50H5Z" fill="white"/>
</svg>
