<svg width="50" height="50" viewBox="0 0 50 50" fill="none" xmlns="http://www.w3.org/2000/svg">
<path d="M26.25 32.5C28 32.5 29.4792 31.8958 30.6875 30.6875C31.8958 29.4792 32.5 28 32.5 26.25V12.5H40V7.5H30V21.25C29.4583 20.8333 28.875 20.5208 28.25 20.3125C27.625 20.1042 26.9583 20 26.25 20C24.5 20 23.0208 20.6042 21.8125 21.8125C20.6042 23.0208 20 24.5 20 26.25C20 28 20.6042 29.4792 21.8125 30.6875C23.0208 31.8958 24.5 32.5 26.25 32.5ZM15 40C13.625 40 12.4479 39.5104 11.4688 38.5312C10.4896 37.5521 10 36.375 10 35V5C10 3.625 10.4896 2.44792 11.4688 1.46875C12.4479 0.489583 13.625 0 15 0H45C46.375 0 47.5521 0.489583 48.5312 1.46875C49.5104 2.44792 50 3.625 50 5V35C50 36.375 49.5104 37.5521 48.5312 38.5312C47.5521 39.5104 46.375 40 45 40H15ZM15 35H45V5H15V35ZM5 50C3.625 50 2.44792 49.5104 1.46875 48.5312C0.489583 47.5521 0 46.375 0 45V10H5V45H40V50H5Z" fill="white"/>
</svg>
