<svg width="245" height="50" viewBox="0 0 245 50" fill="none" xmlns="http://www.w3.org/2000/svg">
<path d="M84.696 33L81.456 28.32H81.264H77.88V33H73.992V16.2H81.264C82.752 16.2 84.04 16.448 85.128 16.944C86.232 17.44 87.08 18.144 87.672 19.056C88.264 19.968 88.56 21.048 88.56 22.296C88.56 23.544 88.256 24.624 87.648 25.536C87.056 26.432 86.208 27.12 85.104 27.6L88.872 33H84.696ZM84.624 22.296C84.624 21.352 84.32 20.632 83.712 20.136C83.104 19.624 82.216 19.368 81.048 19.368H77.88V25.224H81.048C82.216 25.224 83.104 24.968 83.712 24.456C84.32 23.944 84.624 23.224 84.624 22.296ZM104.024 26.592C104.024 26.64 104 26.976 103.952 27.6H94.1844C94.3604 28.4 94.7764 29.032 95.4324 29.496C96.0884 29.96 96.9044 30.192 97.8804 30.192C98.5524 30.192 99.1444 30.096 99.6564 29.904C100.184 29.696 100.672 29.376 101.12 28.944L103.112 31.104C101.896 32.496 100.12 33.192 97.7844 33.192C96.3284 33.192 95.0404 32.912 93.9204 32.352C92.8004 31.776 91.9364 30.984 91.3284 29.976C90.7204 28.968 90.4164 27.824 90.4164 26.544C90.4164 25.28 90.7124 24.144 91.3044 23.136C91.9124 22.112 92.7364 21.32 93.7764 20.76C94.8324 20.184 96.0084 19.896 97.3044 19.896C98.5684 19.896 99.7124 20.168 100.736 20.712C101.76 21.256 102.56 22.04 103.136 23.064C103.728 24.072 104.024 25.248 104.024 26.592ZM97.3284 22.728C96.4804 22.728 95.7684 22.968 95.1924 23.448C94.6164 23.928 94.2644 24.584 94.1364 25.416H100.496C100.368 24.6 100.016 23.952 99.4404 23.472C98.8644 22.976 98.1604 22.728 97.3284 22.728ZM112.061 27.936L110.261 29.712V33H106.517V15.192H110.261V25.272L115.733 20.088H120.197L114.821 25.56L120.677 33H116.141L112.061 27.936ZM127.942 33.192C126.582 33.192 125.358 32.912 124.27 32.352C123.198 31.776 122.358 30.984 121.75 29.976C121.142 28.968 120.838 27.824 120.838 26.544C120.838 25.264 121.142 24.12 121.75 23.112C122.358 22.104 123.198 21.32 124.27 20.76C125.358 20.184 126.582 19.896 127.942 19.896C129.302 19.896 130.518 20.184 131.59 20.76C132.662 21.32 133.502 22.104 134.11 23.112C134.718 24.12 135.022 25.264 135.022 26.544C135.022 27.824 134.718 28.968 134.11 29.976C133.502 30.984 132.662 31.776 131.59 32.352C130.518 32.912 129.302 33.192 127.942 33.192ZM127.942 30.12C128.902 30.12 129.686 29.8 130.294 29.16C130.918 28.504 131.23 27.632 131.23 26.544C131.23 25.456 130.918 24.592 130.294 23.952C129.686 23.296 128.902 22.968 127.942 22.968C126.982 22.968 126.19 23.296 125.566 23.952C124.942 24.592 124.63 25.456 124.63 26.544C124.63 27.632 124.942 28.504 125.566 29.16C126.19 29.8 126.982 30.12 127.942 30.12ZM154.061 19.896C155.677 19.896 156.957 20.376 157.901 21.336C158.861 22.28 159.341 23.704 159.341 25.608V33H155.597V26.184C155.597 25.16 155.381 24.4 154.949 23.904C154.533 23.392 153.933 23.136 153.149 23.136C152.269 23.136 151.573 23.424 151.061 24C150.549 24.56 150.293 25.4 150.293 26.52V33H146.549V26.184C146.549 24.152 145.733 23.136 144.101 23.136C143.237 23.136 142.549 23.424 142.037 24C141.525 24.56 141.269 25.4 141.269 26.52V33H137.525V20.088H141.101V21.576C141.581 21.032 142.165 20.616 142.853 20.328C143.557 20.04 144.325 19.896 145.157 19.896C146.069 19.896 146.893 20.08 147.629 20.448C148.365 20.8 148.957 21.32 149.405 22.008C149.933 21.336 150.597 20.816 151.397 20.448C152.213 20.08 153.101 19.896 154.061 19.896ZM175.485 26.592C175.485 26.64 175.461 26.976 175.413 27.6H165.645C165.821 28.4 166.237 29.032 166.893 29.496C167.549 29.96 168.365 30.192 169.341 30.192C170.013 30.192 170.605 30.096 171.117 29.904C171.645 29.696 172.133 29.376 172.581 28.944L174.573 31.104C173.357 32.496 171.581 33.192 169.245 33.192C167.789 33.192 166.501 32.912 165.381 32.352C164.261 31.776 163.397 30.984 162.789 29.976C162.181 28.968 161.877 27.824 161.877 26.544C161.877 25.28 162.173 24.144 162.765 23.136C163.373 22.112 164.197 21.32 165.237 20.76C166.293 20.184 167.469 19.896 168.765 19.896C170.029 19.896 171.173 20.168 172.197 20.712C173.221 21.256 174.021 22.04 174.597 23.064C175.189 24.072 175.485 25.248 175.485 26.592ZM168.789 22.728C167.941 22.728 167.229 22.968 166.653 23.448C166.077 23.928 165.725 24.584 165.597 25.416H171.957C171.829 24.6 171.477 23.952 170.901 23.472C170.325 22.976 169.621 22.728 168.789 22.728ZM185.826 19.896C187.426 19.896 188.714 20.376 189.69 21.336C190.682 22.296 191.178 23.72 191.178 25.608V33H187.434V26.184C187.434 25.16 187.21 24.4 186.762 23.904C186.314 23.392 185.666 23.136 184.818 23.136C183.874 23.136 183.122 23.432 182.562 24.024C182.002 24.6 181.722 25.464 181.722 26.616V33H177.978V20.088H181.554V21.6C182.05 21.056 182.666 20.64 183.402 20.352C184.138 20.048 184.946 19.896 185.826 19.896ZM207.864 15.192V33H204.288V31.512C203.36 32.632 202.016 33.192 200.256 33.192C199.04 33.192 197.936 32.92 196.944 32.376C195.968 31.832 195.2 31.056 194.64 30.048C194.08 29.04 193.8 27.872 193.8 26.544C193.8 25.216 194.08 24.048 194.64 23.04C195.2 22.032 195.968 21.256 196.944 20.712C197.936 20.168 199.04 19.896 200.256 19.896C201.904 19.896 203.192 20.416 204.12 21.456V15.192H207.864ZM200.904 30.12C201.848 30.12 202.632 29.8 203.256 29.16C203.88 28.504 204.192 27.632 204.192 26.544C204.192 25.456 203.88 24.592 203.256 23.952C202.632 23.296 201.848 22.968 200.904 22.968C199.944 22.968 199.152 23.296 198.528 23.952C197.904 24.592 197.592 25.456 197.592 26.544C197.592 27.632 197.904 28.504 198.528 29.16C199.152 29.8 199.944 30.12 200.904 30.12ZM216.538 19.896C218.538 19.896 220.074 20.376 221.146 21.336C222.218 22.28 222.754 23.712 222.754 25.632V33H219.25V31.392C218.546 32.592 217.234 33.192 215.314 33.192C214.322 33.192 213.458 33.024 212.722 32.688C212.002 32.352 211.45 31.888 211.066 31.296C210.682 30.704 210.49 30.032 210.49 29.28C210.49 28.08 210.938 27.136 211.834 26.448C212.746 25.76 214.146 25.416 216.034 25.416H219.01C219.01 24.6 218.762 23.976 218.266 23.544C217.77 23.096 217.026 22.872 216.034 22.872C215.346 22.872 214.666 22.984 213.994 23.208C213.338 23.416 212.778 23.704 212.314 24.072L210.97 21.456C211.674 20.96 212.514 20.576 213.49 20.304C214.482 20.032 215.498 19.896 216.538 19.896ZM216.25 30.672C216.89 30.672 217.458 30.528 217.954 30.24C218.45 29.936 218.802 29.496 219.01 28.92V27.6H216.442C214.906 27.6 214.138 28.104 214.138 29.112C214.138 29.592 214.322 29.976 214.69 30.264C215.074 30.536 215.594 30.672 216.25 30.672ZM230.486 33.192C229.414 33.192 228.366 33.064 227.342 32.808C226.318 32.536 225.502 32.2 224.894 31.8L226.142 29.112C226.718 29.48 227.414 29.784 228.23 30.024C229.046 30.248 229.846 30.36 230.63 30.36C232.214 30.36 233.006 29.968 233.006 29.184C233.006 28.816 232.79 28.552 232.358 28.392C231.926 28.232 231.262 28.096 230.366 27.984C229.31 27.824 228.438 27.64 227.75 27.432C227.062 27.224 226.462 26.856 225.95 26.328C225.454 25.8 225.206 25.048 225.206 24.072C225.206 23.256 225.438 22.536 225.902 21.912C226.382 21.272 227.07 20.776 227.966 20.424C228.878 20.072 229.95 19.896 231.182 19.896C232.094 19.896 232.998 20 233.894 20.208C234.806 20.4 235.558 20.672 236.15 21.024L234.902 23.688C233.766 23.048 232.526 22.728 231.182 22.728C230.382 22.728 229.782 22.84 229.382 23.064C228.982 23.288 228.782 23.576 228.782 23.928C228.782 24.328 228.998 24.608 229.43 24.768C229.862 24.928 230.55 25.08 231.494 25.224C232.55 25.4 233.414 25.592 234.086 25.8C234.758 25.992 235.342 26.352 235.838 26.88C236.334 27.408 236.582 28.144 236.582 29.088C236.582 29.888 236.342 30.6 235.862 31.224C235.382 31.848 234.678 32.336 233.75 32.688C232.838 33.024 231.75 33.192 230.486 33.192ZM238.892 20.088H242.636V33H238.892V20.088ZM240.764 18.288C240.076 18.288 239.516 18.088 239.084 17.688C238.652 17.288 238.436 16.792 238.436 16.2C238.436 15.608 238.652 15.112 239.084 14.712C239.516 14.312 240.076 14.112 240.764 14.112C241.452 14.112 242.012 14.304 242.444 14.688C242.876 15.072 243.092 15.552 243.092 16.128C243.092 16.752 242.876 17.272 242.444 17.688C242.012 18.088 241.452 18.288 240.764 18.288Z" fill="white"/>
<path d="M5.26316 28.9474C5.26316 31.2281 5.72368 33.3882 6.64474 35.4276C7.56579 37.4671 8.88158 39.2544 10.5921 40.7895C10.5482 40.5702 10.5263 40.3728 10.5263 40.1974V39.6053C10.5263 38.2018 10.7895 36.886 11.3158 35.6579C11.8421 34.4298 12.6096 33.3114 13.6184 32.3026L21.0526 25L28.4868 32.3026C29.4956 33.3114 30.2632 34.4298 30.7895 35.6579C31.3158 36.886 31.5789 38.2018 31.5789 39.6053V40.1974C31.5789 40.3728 31.557 40.5702 31.5132 40.7895C33.2237 39.2544 34.5395 37.4671 35.4605 35.4276C36.3816 33.3882 36.8421 31.2281 36.8421 28.9474C36.8421 26.7544 36.4364 24.682 35.625 22.7303C34.8136 20.7785 33.6404 19.0351 32.1053 17.5C31.2281 18.0702 30.307 18.4978 29.3421 18.7829C28.3772 19.068 27.3904 19.2105 26.3816 19.2105C23.6623 19.2105 21.3048 18.3114 19.3092 16.5132C17.3136 14.7149 16.1623 12.5 15.8553 9.86842C14.1447 11.3158 12.6316 12.818 11.3158 14.375C10 15.932 8.89254 17.511 7.99342 19.1118C7.0943 20.7127 6.41447 22.3465 5.95395 24.0132C5.49342 25.6798 5.26316 27.3246 5.26316 28.9474ZM21.0526 32.3684L17.3026 36.0526C16.8202 36.5351 16.4474 37.0833 16.1842 37.6974C15.9211 38.3114 15.7895 38.9474 15.7895 39.6053C15.7895 41.0088 16.3048 42.2149 17.3355 43.2237C18.3662 44.2325 19.6053 44.7368 21.0526 44.7368C22.5 44.7368 23.739 44.2325 24.7697 43.2237C25.8004 42.2149 26.3158 41.0088 26.3158 39.6053C26.3158 38.9035 26.1842 38.2566 25.9211 37.6645C25.6579 37.0724 25.2851 36.5351 24.8026 36.0526L21.0526 32.3684ZM21.0526 0V8.68421C21.0526 10.1754 21.568 11.4254 22.5987 12.4342C23.6294 13.443 24.8904 13.9474 26.3816 13.9474C27.1711 13.9474 27.9057 13.7829 28.5855 13.4539C29.2654 13.125 29.8684 12.6316 30.3947 11.9737L31.5789 10.5263C34.8246 12.3684 37.3904 14.9342 39.2763 18.2237C41.1623 21.5132 42.1053 25.0877 42.1053 28.9474C42.1053 34.8246 40.0658 39.8026 35.9868 43.8816C31.9079 47.9605 26.9298 50 21.0526 50C15.1754 50 10.1974 47.9605 6.11842 43.8816C2.03947 39.8026 0 34.8246 0 28.9474C0 23.2895 1.89693 17.9167 5.69079 12.8289C9.48465 7.74123 14.6053 3.46491 21.0526 0Z" fill="white"/>
</svg>
